<?xml version="1.0" encoding="UTF-8" standalone="no"?>
<svg
   width="32"
   height="32"
   viewBox="0 0 32 32"
   version="1.1"
   xml:space="preserve"
   style="clip-rule:evenodd;fill-rule:evenodd;stroke-linejoin:round"
   id="svg1561"
   sodipodi:docname="nodes_number_range.svg"
   inkscape:version="1.1.2 (b8e25be833, 2022-02-05)"
   xmlns:inkscape="http://www.inkscape.org/namespaces/inkscape"
   xmlns:sodipodi="http://sodipodi.sourceforge.net/DTD/sodipodi-0.dtd"
   xmlns="http://www.w3.org/2000/svg"
   xmlns:svg="http://www.w3.org/2000/svg"><defs
   id="defs1565" /><sodipodi:namedview
   id="namedview1563"
   pagecolor="#ffffff"
   bordercolor="#666666"
   borderopacity="1.0"
   inkscape:pageshadow="2"
   inkscape:pageopacity="0.0"
   inkscape:pagecheckerboard="0"
   showgrid="false"
   inkscape:zoom="12.171875"
   inkscape:cx="32"
   inkscape:cy="32"
   inkscape:window-width="1920"
   inkscape:window-height="1001"
   inkscape:window-x="-9"
   inkscape:window-y="-9"
   inkscape:window-maximized="1"
   inkscape:current-layer="svg1561" />
    <g
   transform="matrix(1.1779841,0,0,1.0778905,-53.142653,-22.624304)"
   id="g1559">
        <g
   id="path3057"
   transform="matrix(0.529363,0,0,0.529365,18.774,9.35426)">
            <path
   d="m 53.507,27.518 3.68,-0.88 v 19.08 h -3.24 c -1.84,0 -2.68,0.08 -2.68,1.36 0,0.92 0.52,1.4 1.56,1.4 h 11.68 c 1.04,0 1.56,-0.48 1.56,-1.4 0,-1.28 -0.84,-1.36 -2.68,-1.36 h -3.12 v -21.12 c 0,-0.8 -0.32,-1.28 -0.8,-1.28 -0.24,0 -0.52,0.04 -0.84,0.12 l -5.8,1.56 c -0.84,0.24 -1.28,0.72 -1.28,1.36 0,0.72 0.52,1.24 1.36,1.24 0.2,0 0.4,-0.04 0.6,-0.08 z"
   style="fill:#d3d7cf;fill-rule:nonzero;stroke:#2e3436;stroke-width:1.72px"
   id="path1544" />
        </g>
        <g
   id="text3259"
   transform="matrix(0.492121,0,0,0.513843,41.2963,21.4972)">
            <path
   id="path3264"
   d="m 49.491,41.971 c 0.68,-5.52 3.4,-8.92 7.44,-9.68 2.76,-0.52 4.76,0.36 4.76,-1.48 0,-1.12 -0.84,-1.32 -3.12,-1.32 -7.44,0 -12.44,5.8 -12.44,14.72 0,6.88 3.4,11.2 8.48,11.2 4.36,0 7.44,-3.4 7.44,-8.12 0,-4.64 -3.4,-8.04 -7.4,-8.04 -2.04,0 -3.76,0.92 -5.16,2.72 z m 0.44,5.2 c 0,-3 1.88,-5.08 4.36,-5.08 2.56,0 4.44,2.16 4.44,5.36 0,3.16 -1.84,5.16 -4.28,5.16 -2.56,0 -4.52,-2.12 -4.52,-5.44"
   style="fill:#d3d7cf;fill-rule:nonzero;stroke:#2e3436;stroke-width:1.81px;stroke-linecap:square" />
        </g>
        <g
   id="text3222"
   transform="matrix(0.521887,0,0,0.526852,28.8577,21.0711)">
            <path
   id="path3227"
   d="m 52.948,38.931 v -6.32 h 8.84 c 1.2,0 1.88,-0.56 1.88,-1.52 0,-1 -0.6,-1.52 -1.88,-1.52 h -9.88 c -1.24,0 -1.8,0.28 -1.8,1.2 v 9.72 c 0,1.24 0.12,2 1.08,2 1.16,0 2.44,-1.76 5.48,-1.76 3.12,0 5.44,2.44 5.44,5.64 0,3.24 -2.32,5.64 -5.88,5.64 -3.04,0 -5.2,-1.52 -6.16,-1.52 -0.76,0 -1.36,0.64 -1.36,1.32 0,1.6 3.12,3.04 7.72,3.04 5.32,0 8.96,-3.72 8.96,-8.6 0,-4.64 -3.32,-8.24 -7.96,-8.24 -1.36,0 -2.84,0.32 -4.48,0.92 z"
   style="fill:#d3d7cf;fill-rule:nonzero;stroke:#2e3436;stroke-width:1.74px" />
        </g>
        <g
   id="text3133"
   transform="matrix(0.484812,0,0,0.528524,18.8941,23.5348)">
            <path
   id="path3138"
   d="m 63.021,50.016 h 6.32 c 1.04,0 1.56,-0.48 1.56,-1.4 0,-1.08 -0.64,-1.36 -2.2,-1.36 h -0.68 v -3.28 h 1.64 c 0.84,0 1.08,-0.36 1.24,-1.2 l 0.16,-0.8 c 0.08,-0.32 0.08,-0.56 0.08,-0.68 0,-0.56 -0.4,-0.96 -0.92,-0.96 -0.64,0 -0.4,0.68 -1.2,0.68 h -1 v -14.84 c 0,-0.6 -0.2,-0.92 -0.6,-1 l -2,-0.32 c -0.2,-0.04 -0.36,-0.04 -0.52,-0.04 -0.44,0 -0.64,0.16 -0.96,0.72 l -8.24,14 c -0.32,0.52 -0.72,0.96 -0.72,1.88 v 1.36 c 0,0.8 0.4,1.2 1.04,1.2 h 9.12 v 3.28 h -2.28 c -1,0 -1.44,0.4 -1.44,1.36 0,1.12 0.44,1.4 1.6,1.4 m 2.12,-9 h -7.4 l 7.4,-13.24 z"
   style="fill:#d3d7cf;fill-rule:nonzero;stroke:#2e3436;stroke-width:1.8px" />
        </g>
        <g
   id="text3096"
   transform="matrix(0.481239,0,0,0.513843,38.5449,7.98147)">
            <path
   id="path3101"
   d="m 63.884,38.534 c 2.72,-0.96 3.96,-2.72 3.96,-5.44 0,-3.48 -2.88,-6.4 -7.08,-6.4 -3.96,0 -7.04,2.24 -7.04,3.56 0,0.72 0.56,1.24 1.28,1.24 1.2,0 2.68,-2.08 5.56,-2.08 2.32,0 4.04,1.72 4.04,4.24 0,1.92 -1.36,3.4 -3.4,3.72 -2.04,0.32 -2.64,0.04 -2.64,1.48 0,1.72 1.04,1.16 3.04,1.52 2.36,0.44 3.76,2.16 3.76,4.48 0,2.76 -2.08,4.76 -5.24,4.76 -3.12,0 -5.12,-2 -6.28,-2 -0.8,0 -1.44,0.56 -1.44,1.36 0,1.76 3.44,3.64 7.6,3.64 5.24,0 8.68,-3.32 8.68,-7.76 0,-3.16 -1.72,-5.48 -4.8,-6.32 z"
   style="fill:#d3d7cf;fill-rule:nonzero;stroke:#2e3436;stroke-width:1.83px" />
        </g>
        <g
   transform="matrix(0.481239,0,0,0.526852,28.5527,6.60278)"
   id="g1557">
            <g
   id="text3059">
                <path
   id="path3064"
   d="m 56.701,53.932 h 12.88 c 0.6,0 1.04,-0.44 1.12,-1.28 l 0.2,-1.52 c 0,-0.12 0.04,-0.28 0.04,-0.4 0,-1.04 -0.56,-1.6 -1.4,-1.6 -0.84,0 -1.36,0.56 -1.48,1.72 h -8.92 l 2.4,-2.32 c 5.08,-5.04 9.24,-8 9.24,-12.64 0,-4.08 -3.24,-7.24 -7.6,-7.24 -2.64,0 -5.24,1.04 -6.88,2.64 -0.6,0.6 -0.64,0.96 -0.64,1.72 0,1.36 0.2,2.04 1.16,2.04 1.36,0 1.64,-1.16 2.12,-1.8 0.88,-1.16 2.52,-1.88 4.16,-1.88 2.52,0 4.28,1.88 4.28,4.68 0,3.28 -3.28,6 -8.4,10.84 -2.76,2.64 -4.32,3.96 -4.32,5.32 0,1.2 0.68,1.72 2.04,1.72"
   style="fill:#d3d7cf;fill-rule:nonzero;stroke:#2e3436;stroke-width:1.81px;stroke-linejoin:miter" />
            </g>
        </g>
    </g>
</svg>
