<?xml version="1.0" encoding="UTF-8" standalone="no"?>
<svg
   width="32"
   height="32"
   viewBox="0 0 32 32"
   version="1.1"
   xml:space="preserve"
   style="clip-rule:evenodd;fill-rule:evenodd;stroke-linejoin:round"
   id="svg2560"
   sodipodi:docname="nodes_scale.svg"
   inkscape:version="1.1.2 (b8e25be833, 2022-02-05)"
   xmlns:inkscape="http://www.inkscape.org/namespaces/inkscape"
   xmlns:sodipodi="http://sodipodi.sourceforge.net/DTD/sodipodi-0.dtd"
   xmlns="http://www.w3.org/2000/svg"
   xmlns:svg="http://www.w3.org/2000/svg"><sodipodi:namedview
   id="namedview2562"
   pagecolor="#ffffff"
   bordercolor="#666666"
   borderopacity="1.0"
   inkscape:pageshadow="2"
   inkscape:pageopacity="0.0"
   inkscape:pagecheckerboard="0"
   showgrid="false"
   inkscape:zoom="3.0262172"
   inkscape:cx="133.33478"
   inkscape:cy="133.66522"
   inkscape:window-width="1920"
   inkscape:window-height="1001"
   inkscape:window-x="-9"
   inkscape:window-y="-9"
   inkscape:window-maximized="1"
   inkscape:current-layer="svg2560" />
    <g
   transform="matrix(0.53201863,0,0,0.53201863,-1.0001819,-1.024809)"
   id="g2541">
        <g
   id="layer1">
            <g
   id="g3518"
   transform="matrix(1.06149,0,0,1,-612.969,-69.1946)">
                <path
   id="rect3446"
   d="m 580.286,72.195 v 14 h 5.652 v -8 h 1.884 v -6 z m 11.305,0 v 6 h 7.536 v -6 z m 11.305,0 v 6 h 7.536 v -6 z m 11.304,0 v 6 h 7.537 v -6 z m 11.305,0 v 6 h 3.768 v 4 h 5.653 v -10 z m 3.768,14 v 8 h 5.653 v -8 z m -48.987,4 v 8 h 5.652 v -8 z m 48.987,8 v 8 h 5.653 v -8 z m 0,12 v 8 h 5.653 v -8 z m 0,12 v 2 h -3.768 v 6 h 9.421 v -8 z m -18.841,2 v 6 h 11.305 v -6 z"
   style="fill:url(#_Linear1);fill-rule:nonzero;stroke:#0b1521;stroke-width:1.94px" />
                <rect
   id="path3018"
   x="583.112"
   y="105.195"
   width="20.726"
   height="22"
   style="fill:none;fill-rule:nonzero;stroke:#0b1521;stroke-width:7.76px;stroke-linecap:round" />
                <rect
   id="path3018-1"
   x="583.112"
   y="105.195"
   width="20.726"
   height="22"
   style="fill:none;fill-rule:nonzero;stroke:url(#_Linear2);stroke-width:3.88px;stroke-linecap:round" />
                <path
   id="path3018-1-7"
   d="m 586.88,126.195 h 16.016 v -17 m 1.884,-5 h -22.61 v 24"
   style="fill:none;fill-rule:nonzero;stroke:#729fcf;stroke-width:1.94px;stroke-linecap:round" />
                <g
   id="path3832"
   transform="matrix(0.942069,0,0,1,577.46,69.1946)">
                    <path
   d="M 36,57 H 46"
   style="fill:none;fill-rule:nonzero;stroke:#729fcf;stroke-width:2px;stroke-linejoin:miter"
   id="path2501" />
                </g>
                <g
   id="path3834"
   transform="matrix(0.942069,0,0,1,577.46,69.1946)">
                    <path
   d="m 52,57 h 5 v -2 h 3"
   style="fill:none;fill-rule:nonzero;stroke:#729fcf;stroke-width:2px"
   id="path2504" />
                </g>
                <g
   id="path3836"
   transform="matrix(0.942069,0,0,1,577.46,69.1946)">
                    <path
   d="M 57,48 V 42"
   style="fill:none;fill-rule:nonzero;stroke:#729fcf;stroke-width:2px;stroke-linejoin:miter"
   id="path2507" />
                </g>
                <g
   id="path3838"
   transform="matrix(0.942069,0,0,1,577.46,69.1946)">
                    <path
   d="M 57,36 V 30"
   style="fill:none;fill-rule:nonzero;stroke:#729fcf;stroke-width:2px;stroke-linejoin:miter"
   id="path2510" />
                </g>
                <g
   id="path3840"
   transform="matrix(0.942069,0,0,1,577.46,69.1946)">
                    <path
   d="M 57,24 V 18"
   style="fill:none;fill-rule:nonzero;stroke:#729fcf;stroke-width:2px;stroke-linejoin:miter"
   id="path2513" />
                </g>
                <g
   id="path3842"
   transform="matrix(0.942069,0,0,1,577.46,69.1946)">
                    <path
   d="M 53,8 V 5 h 7"
   style="fill:none;fill-rule:nonzero;stroke:#729fcf;stroke-width:2px;stroke-linejoin:miter"
   id="path2516" />
                </g>
                <g
   id="path3844"
   transform="matrix(0.942069,0,0,1,577.46,69.1946)">
                    <path
   d="M 46,5 H 40"
   style="fill:none;fill-rule:nonzero;stroke:#729fcf;stroke-width:2px;stroke-linejoin:miter"
   id="path2519" />
                </g>
                <g
   id="path3846"
   transform="matrix(0.942069,0,0,1,577.46,69.1946)">
                    <path
   d="M 34,5 H 28"
   style="fill:none;fill-rule:nonzero;stroke:#729fcf;stroke-width:2px;stroke-linejoin:miter"
   id="path2522" />
                </g>
                <g
   id="path3848"
   transform="matrix(0.942069,0,0,1,577.46,69.1946)">
                    <path
   d="M 22,5 H 16"
   style="fill:none;fill-rule:nonzero;stroke:#729fcf;stroke-width:2px;stroke-linejoin:miter"
   id="path2525" />
                </g>
                <g
   id="path3850"
   transform="matrix(0.942069,0,0,1,577.46,69.1946)">
                    <path
   d="M 10,5 H 5 v 11"
   style="fill:none;fill-rule:nonzero;stroke:#729fcf;stroke-width:2px;stroke-linejoin:miter"
   id="path2528" />
                </g>
                <g
   id="path3852"
   transform="matrix(0.942069,0,0,1,577.46,69.1946)">
                    <path
   d="m 5,22 v 6"
   style="fill:none;fill-rule:nonzero;stroke:#729fcf;stroke-width:2px;stroke-linejoin:miter"
   id="path2531" />
                </g>
                <g
   id="path3854"
   transform="matrix(0.942069,0,0,1,577.46,69.1946)">
                    <path
   d="M 57,12 V 9"
   style="fill:none;fill-rule:nonzero;stroke:#729fcf;stroke-width:2px;stroke-linejoin:miter"
   id="path2534" />
                </g>
            </g>
            <path
   id="path3343"
   d="M 35,15 39.063,19.378 31,27 l 6,6 7.72,-7.965 4.242,4.243 L 49,15 Z"
   style="fill:url(#_Linear3);stroke:#0b1521;stroke-width:2px" />
            <path
   id="path3343-2"
   d="m 39.55,17 2.325,2.378 -7.987,7.654 3.08,3.113 7.752,-7.938 2.221,2.24 L 47,17 Z"
   style="fill:none;fill-rule:nonzero;stroke:#729fcf;stroke-width:2px;stroke-linejoin:miter" />
        </g>
    </g>
    <defs
   id="defs2558">
        <linearGradient
   id="_Linear1"
   x1="0"
   y1="0"
   x2="1"
   y2="0.028265901"
   gradientUnits="userSpaceOnUse"
   gradientTransform="matrix(-17.8993,-67,67,-17.8993,613.258,135.195)"><stop
     offset="0"
     style="stop-color:rgb(52,101,164);stop-opacity:1"
     id="stop2543" /><stop
     offset="1"
     style="stop-color:rgb(114,159,207);stop-opacity:1"
     id="stop2545" /></linearGradient>
        <linearGradient
   id="_Linear2"
   x1="0"
   y1="0"
   x2="1"
   y2="0.0313848"
   gradientUnits="userSpaceOnUse"
   gradientTransform="matrix(7.53656,25,-25,7.53656,590.649,104.195)"><stop
     offset="0"
     style="stop-color:rgb(114,159,207);stop-opacity:1"
     id="stop2548" /><stop
     offset="1"
     style="stop-color:rgb(32,74,135);stop-opacity:1"
     id="stop2550" /></linearGradient>
        <linearGradient
   id="_Linear3"
   x1="0"
   y1="0"
   x2="1"
   y2="0"
   gradientUnits="userSpaceOnUse"
   gradientTransform="matrix(6,15,-15,6,37,16)"><stop
     offset="0"
     style="stop-color:rgb(114,159,207);stop-opacity:1"
     id="stop2553" /><stop
     offset="1"
     style="stop-color:rgb(32,74,135);stop-opacity:1"
     id="stop2555" /></linearGradient>
    </defs>
</svg>
