<?xml version="1.0" encoding="UTF-8" standalone="no"?>
<!DOCTYPE svg PUBLIC "-//W3C//DTD SVG 1.1//EN" "http://www.w3.org/Graphics/SVG/1.1/DTD/svg11.dtd">
<svg width="100%" height="100%" viewBox="0 0 1113 1113" version="1.1" xmlns="http://www.w3.org/2000/svg" xmlns:xlink="http://www.w3.org/1999/xlink" xml:space="preserve" xmlns:serif="http://www.serif.com/" style="fill-rule:evenodd;clip-rule:evenodd;stroke-linejoin:round;stroke-miterlimit:2;">
    <g transform="matrix(4.16667,0,0,4.16667,0,0)">
        <g transform="matrix(4.16667,0,0,4.16667,0,0)">
            <path d="M8.404,31.543C13.743,25.339 22.363,21.28 32.011,21.28C41.658,21.28 50.278,25.339 55.618,31.543C50.278,37.746 41.658,41.854 32.011,41.854C22.363,41.854 13.743,37.746 8.404,31.543Z" style="fill:url(#_Radial1);"/>
            <path d="M6.888,30.238C12.574,23.633 21.739,19.28 32.011,19.28C42.283,19.28 51.448,23.633 57.134,30.238L58.257,31.543L57.134,32.847C51.449,39.452 42.283,43.854 32.011,43.854C21.739,43.854 12.573,39.452 6.888,32.847L5.765,31.543L6.888,30.238ZM8.404,31.543C13.743,37.746 22.363,41.854 32.011,41.854C41.658,41.854 50.278,37.746 55.618,31.543C50.278,25.339 41.658,21.28 32.011,21.28C22.363,21.28 13.743,25.339 8.404,31.543Z" style="fill:rgb(11,21,33);"/>
            <path d="M8.404,31.543C13.743,25.339 22.363,21.28 32.011,21.28C41.658,21.28 50.278,25.339 55.618,31.543C50.278,37.746 41.658,41.854 32.011,41.854C22.363,41.854 13.743,37.746 8.404,31.543ZM11.128,31.543C16.164,36.605 23.683,39.854 32.011,39.854C40.339,39.854 47.858,36.605 52.894,31.543C47.858,26.488 40.338,23.28 32.011,23.28C23.684,23.28 16.164,26.488 11.128,31.543Z" style="fill:rgb(114,159,207);"/>
            <g transform="matrix(0.779233,2.17119e-08,0,0.785328,47.0426,22.2412)">
                <path d="M-26.118,5.664C-24.421,3.696 -21.937,2.561 -19.326,2.561C-14.423,2.561 -10.388,6.564 -10.388,11.429C-10.388,13.546 -11.152,15.594 -12.541,17.201C-14.238,19.169 -16.722,20.304 -19.333,20.304C-24.236,20.304 -28.271,16.301 -28.271,11.436C-28.271,9.32 -27.507,7.271 -26.118,5.664Z" style="fill:white;fill-rule:nonzero;"/>
            </g>
            <g transform="matrix(0.779233,2.17119e-08,0,0.785328,47.0426,22.2412)">
                <path d="M-26.118,5.664C-24.421,3.696 -21.937,2.561 -19.326,2.561C-14.423,2.561 -10.388,6.564 -10.388,11.429C-10.388,13.546 -11.152,15.594 -12.541,17.201C-14.238,19.169 -16.722,20.304 -19.333,20.304C-24.236,20.304 -28.271,16.301 -28.271,11.436C-28.271,9.32 -27.507,7.271 -26.118,5.664ZM-23.413,7.965C-24.248,8.931 -24.708,10.163 -24.708,11.436C-24.708,14.362 -22.281,16.769 -19.333,16.769C-17.762,16.769 -16.268,16.086 -15.246,14.901C-14.411,13.934 -13.951,12.702 -13.951,11.429C-13.951,8.503 -16.377,6.096 -19.326,6.096C-20.896,6.096 -22.391,6.779 -23.413,7.965Z" style="fill:rgb(11,21,33);"/>
            </g>
            <g transform="matrix(0.779233,2.17119e-08,0,0.785328,47.0426,22.2412)">
                <path d="M-28.824,3.365C-26.451,0.613 -22.977,-0.974 -19.326,-0.974C-12.468,-0.974 -6.825,4.625 -6.825,11.429C-6.825,14.389 -7.893,17.253 -9.835,19.5C-12.208,22.253 -15.682,23.84 -19.333,23.84C-26.19,23.84 -31.833,18.24 -31.833,11.436C-31.833,8.477 -30.766,5.612 -28.824,3.365ZM-26.118,5.664C-27.507,7.271 -28.271,9.32 -28.271,11.436C-28.271,16.301 -24.236,20.304 -19.333,20.304C-16.722,20.304 -14.238,19.169 -12.541,17.201C-11.152,15.594 -10.388,13.546 -10.388,11.429C-10.388,6.564 -14.423,2.561 -19.326,2.561C-21.937,2.561 -24.421,3.696 -26.118,5.664Z" style="fill:rgb(114,159,207);"/>
            </g>
            <g transform="matrix(-0.752988,0.658035,0.476581,0.545351,33.8847,-13.7571)">
                <path d="M36.327,4.981C36.325,4.429 36.771,3.979 37.323,3.977C37.875,3.975 38.325,4.421 38.327,4.973L38.367,15.306C38.369,15.858 37.923,16.308 37.371,16.31C36.819,16.312 36.369,15.866 36.367,15.314L36.327,4.981Z" style="fill:rgb(114,159,207);"/>
            </g>
            <g transform="matrix(-0.752988,0.658035,0.476581,0.545351,33.8847,-13.7571)">
                <path d="M34.327,4.996L34.367,15.329C34.374,17.137 35.569,19.079 37.377,19.072C39.191,19.064 40.374,17.106 40.367,15.291L40.327,4.958C40.32,3.15 39.125,1.209 37.317,1.216C35.503,1.223 34.32,3.182 34.327,4.996ZM36.327,4.981C36.325,4.429 36.771,3.979 37.323,3.977C37.875,3.975 38.325,4.421 38.327,4.973L38.367,15.306C38.369,15.858 37.923,16.308 37.371,16.31C36.819,16.312 36.369,15.866 36.367,15.314L36.327,4.981Z" style="fill:rgb(11,21,33);"/>
            </g>
            <g transform="matrix(-0.956254,0.292538,0.211871,0.692566,57.778,-6.76222)">
                <path d="M36.327,4.981C36.325,4.429 36.771,3.979 37.323,3.977C37.875,3.975 38.325,4.421 38.327,4.973L38.367,15.306C38.369,15.858 37.923,16.308 37.371,16.31C36.819,16.312 36.369,15.866 36.367,15.314L36.327,4.981Z" style="fill:rgb(114,159,207);"/>
            </g>
            <g transform="matrix(-0.956254,0.292538,0.211871,0.692566,57.778,-6.76222)">
                <path d="M34.327,4.996L34.367,15.329C34.374,17.137 35.569,19.079 37.377,19.072C39.191,19.064 40.374,17.106 40.367,15.291L40.327,4.958C40.32,3.15 39.125,1.209 37.317,1.216C35.503,1.223 34.32,3.182 34.327,4.996ZM36.327,4.981C36.325,4.429 36.771,3.979 37.323,3.977C37.875,3.975 38.325,4.421 38.327,4.973L38.367,15.306C38.369,15.858 37.923,16.308 37.371,16.31C36.819,16.312 36.369,15.866 36.367,15.314L36.327,4.981Z" style="fill:rgb(11,21,33);"/>
            </g>
            <g transform="matrix(0.752988,0.658035,-0.476581,0.545351,30.5135,-13.7571)">
                <path d="M36.327,4.981C36.325,4.429 36.771,3.979 37.323,3.977C37.875,3.975 38.325,4.421 38.327,4.973L38.367,15.306C38.369,15.858 37.923,16.308 37.371,16.31C36.819,16.312 36.369,15.866 36.367,15.314L36.327,4.981Z" style="fill:rgb(114,159,207);"/>
            </g>
            <g transform="matrix(0.752988,0.658035,-0.476581,0.545351,30.5135,-13.7571)">
                <path d="M34.327,4.996C34.32,3.182 35.503,1.223 37.317,1.216C39.125,1.209 40.32,3.15 40.327,4.958L40.367,15.291C40.374,17.106 39.191,19.064 37.377,19.072C35.569,19.079 34.374,17.137 34.367,15.329L34.327,4.996ZM36.327,4.981L36.367,15.314C36.369,15.866 36.819,16.312 37.371,16.31C37.923,16.308 38.369,15.858 38.367,15.306L38.327,4.973C38.325,4.421 37.875,3.975 37.323,3.977C36.771,3.979 36.325,4.429 36.327,4.981Z" style="fill:rgb(11,21,33);"/>
            </g>
            <g transform="matrix(0.956254,0.292538,-0.211871,0.692566,6.62032,-6.76222)">
                <path d="M36.327,4.981C36.325,4.429 36.771,3.979 37.323,3.977C37.875,3.975 38.325,4.421 38.327,4.973L38.367,15.306C38.369,15.858 37.923,16.308 37.371,16.31C36.819,16.312 36.369,15.866 36.367,15.314L36.327,4.981Z" style="fill:rgb(114,159,207);"/>
            </g>
            <g transform="matrix(0.956254,0.292538,-0.211871,0.692566,6.62032,-6.76222)">
                <path d="M34.327,4.996C34.32,3.182 35.503,1.223 37.317,1.216C39.125,1.209 40.32,3.15 40.327,4.958L40.367,15.291C40.374,17.106 39.191,19.064 37.377,19.072C35.569,19.079 34.374,17.137 34.367,15.329L34.327,4.996ZM36.327,4.981L36.367,15.314C36.369,15.866 36.819,16.312 37.371,16.31C37.923,16.308 38.369,15.858 38.367,15.306L38.327,4.973C38.325,4.421 37.875,3.975 37.323,3.977C36.771,3.979 36.325,4.429 36.327,4.981Z" style="fill:rgb(11,21,33);"/>
            </g>
            <g transform="matrix(-0.752988,-0.658035,0.476581,-0.545351,33.8847,77.7572)">
                <path d="M36.327,4.981C36.325,4.429 36.771,3.979 37.323,3.977C37.875,3.975 38.325,4.421 38.327,4.973L38.367,15.306C38.369,15.858 37.923,16.308 37.371,16.31C36.819,16.312 36.369,15.866 36.367,15.314L36.327,4.981Z" style="fill:rgb(114,159,207);"/>
            </g>
            <g transform="matrix(-0.752988,-0.658035,0.476581,-0.545351,33.8847,77.7572)">
                <path d="M34.327,4.996C34.32,3.182 35.503,1.223 37.317,1.216C39.125,1.209 40.32,3.15 40.327,4.958L40.367,15.291C40.374,17.106 39.191,19.064 37.377,19.072C35.569,19.079 34.374,17.137 34.367,15.329L34.327,4.996ZM36.327,4.981L36.367,15.314C36.369,15.866 36.819,16.312 37.371,16.31C37.923,16.308 38.369,15.858 38.367,15.306L38.327,4.973C38.325,4.421 37.875,3.975 37.323,3.977C36.771,3.979 36.325,4.429 36.327,4.981Z" style="fill:rgb(11,21,33);"/>
            </g>
            <g transform="matrix(-0.956254,-0.292538,0.211871,-0.692566,57.778,70.7623)">
                <path d="M36.327,4.981C36.325,4.429 36.771,3.979 37.323,3.977C37.875,3.975 38.325,4.421 38.327,4.973L38.367,15.306C38.369,15.858 37.923,16.308 37.371,16.31C36.819,16.312 36.369,15.866 36.367,15.314L36.327,4.981Z" style="fill:rgb(114,159,207);"/>
            </g>
            <g transform="matrix(-0.956254,-0.292538,0.211871,-0.692566,57.778,70.7623)">
                <path d="M34.327,4.996C34.32,3.182 35.503,1.223 37.317,1.216C39.125,1.209 40.32,3.15 40.327,4.958L40.367,15.291C40.374,17.106 39.191,19.064 37.377,19.072C35.569,19.079 34.374,17.137 34.367,15.329L34.327,4.996ZM36.327,4.981L36.367,15.314C36.369,15.866 36.819,16.312 37.371,16.31C37.923,16.308 38.369,15.858 38.367,15.306L38.327,4.973C38.325,4.421 37.875,3.975 37.323,3.977C36.771,3.979 36.325,4.429 36.327,4.981Z" style="fill:rgb(11,21,33);"/>
            </g>
            <g transform="matrix(0.752988,-0.658035,-0.476581,-0.545351,30.5135,77.7572)">
                <path d="M36.327,4.981C36.325,4.429 36.771,3.979 37.323,3.977C37.875,3.975 38.325,4.421 38.327,4.973L38.367,15.306C38.369,15.858 37.923,16.308 37.371,16.31C36.819,16.312 36.369,15.866 36.367,15.314L36.327,4.981Z" style="fill:rgb(114,159,207);"/>
            </g>
            <g transform="matrix(0.752988,-0.658035,-0.476581,-0.545351,30.5135,77.7572)">
                <path d="M34.327,4.996L34.367,15.329C34.374,17.137 35.569,19.079 37.377,19.072C39.191,19.064 40.374,17.106 40.367,15.291L40.327,4.958C40.32,3.15 39.125,1.209 37.317,1.216C35.503,1.223 34.32,3.182 34.327,4.996ZM36.327,4.981C36.325,4.429 36.771,3.979 37.323,3.977C37.875,3.975 38.325,4.421 38.327,4.973L38.367,15.306C38.369,15.858 37.923,16.308 37.371,16.31C36.819,16.312 36.369,15.866 36.367,15.314L36.327,4.981Z" style="fill:rgb(11,21,33);"/>
            </g>
            <g transform="matrix(0.956254,-0.292538,-0.211871,-0.692566,6.62032,70.7623)">
                <path d="M36.327,4.981C36.325,4.429 36.771,3.979 37.323,3.977C37.875,3.975 38.325,4.421 38.327,4.973L38.367,15.306C38.369,15.858 37.923,16.308 37.371,16.31C36.819,16.312 36.369,15.866 36.367,15.314L36.327,4.981Z" style="fill:rgb(114,159,207);"/>
            </g>
            <g transform="matrix(0.956254,-0.292538,-0.211871,-0.692566,6.62032,70.7623)">
                <path d="M34.327,4.996L34.367,15.329C34.374,17.137 35.569,19.079 37.377,19.072C39.191,19.064 40.374,17.106 40.367,15.291L40.327,4.958C40.32,3.15 39.125,1.209 37.317,1.216C35.503,1.223 34.32,3.182 34.327,4.996ZM36.327,4.981C36.325,4.429 36.771,3.979 37.323,3.977C37.875,3.975 38.325,4.421 38.327,4.973L38.367,15.306C38.369,15.858 37.923,16.308 37.371,16.31C36.819,16.312 36.369,15.866 36.367,15.314L36.327,4.981Z" style="fill:rgb(11,21,33);"/>
            </g>
        </g>
    </g>
    <defs>
        <radialGradient id="_Radial1" cx="0" cy="0" r="1" gradientUnits="userSpaceOnUse" gradientTransform="matrix(18.0564,18.9592,-36.5934,34.8509,20.8025,18.627)"><stop offset="0" style="stop-color:rgb(114,159,207);stop-opacity:1"/><stop offset="1" style="stop-color:rgb(32,74,135);stop-opacity:1"/></radialGradient>
    </defs>
</svg>
