<?xml version="1.0" encoding="UTF-8" standalone="no"?><!DOCTYPE svg PUBLIC "-//W3C//DTD SVG 1.1//EN" "http://www.w3.org/Graphics/SVG/1.1/DTD/svg11.dtd"><svg width="100%" height="100%" viewBox="0 0 4638 4638" version="1.1" xmlns="http://www.w3.org/2000/svg" xmlns:xlink="http://www.w3.org/1999/xlink" xml:space="preserve" xmlns:serif="http://www.serif.com/" style="fill-rule:evenodd;clip-rule:evenodd;"><g id="Layer-1" serif:id="Layer 1"><path d="M2267.12,1475.62c69.046,-123.842 228.558,-166.763 355.958,-95.759c127.421,71.013 174.813,229.196 105.758,353.055l-1338.32,2400.72c-69.029,123.85 -228.542,166.77 -355.959,95.758c-127.404,-71.004 -174.795,-229.188 -105.758,-353.054l1338.32,-2400.72Z" style="fill:url(#_Linear1);"/><path d="M2123.17,1395.38c113.262,-203.204 370.175,-276.225 573.383,-162.967c203.204,113.263 276.225,370.18 162.963,573.384l-1338.12,2400.83c-113.242,203.217 -370.175,276.229 -573.38,162.967c-203.204,-113.258 -276.225,-370.175 -162.966,-573.379l1338.12,-2400.84Zm143.758,80.125l-1338.12,2400.84c-69.025,123.871 -24.512,280.462 99.333,349.496c123.863,69.045 280.484,24.525 349.501,-99.334l1338.12,-2400.83c69.042,-123.863 24.529,-280.454 -99.333,-349.5c-123.846,-69.033 -280.467,-24.513 -349.5,99.333Z" style="fill:#2e3436;"/><path d="M2278.02,1458.94c35.337,-63.426 188.945,28.395 153.591,91.808l-1454.2,2641.2c-99.814,-78.664 -108.627,-220.067 -37.514,-332.175l1338.12,-2400.83Z" style="fill:#d3d7cf;"/><path id="path6475" d="M3254.28,1667.72c-182.917,339.1 -1383.43,-339.088 -1233.08,-652.829l1213.87,-742.146l19.212,1394.98Z" style="fill:#313131;fill-rule:nonzero;"/><path d="M3381.18,1736.2c-60.266,111.721 -180.304,172.25 -343.462,168.117c-166.675,-4.23 -389.404,-79.696 -594.15,-191.688c-241.504,-132.071 -455.038,-315.046 -535.075,-470.671c-54.158,-105.291 -57.742,-205.087 -17.329,-289.383c12.025,-25.104 31.058,-46.192 54.804,-60.704l1213.87,-742.146c44.196,-27.025 99.508,-28.258 144.858,-3.217c45.363,25.021 73.817,72.467 74.533,124.267l19.221,1394.96c0.338,24.592 -5.612,48.838 -17.271,70.467Zm-126.908,-68.475l-19.212,-1394.98l-1213.87,742.146c-150.346,313.741 1050.17,991.929 1233.08,652.829Z" style="fill:#2e3436;"/><path id="path6475-6" d="M3192.76,1643.29c-132.902,267.492 -1257.15,-394.765 -1112.77,-593.475l1092.58,-659.084l20.196,1252.56Z" style="fill:url(#_Linear2);stroke:#d3d7cf;stroke-width:131.63px;"/></g><defs><linearGradient id="_Linear1" x1="0" y1="0" x2="1" y2="0" gradientUnits="userSpaceOnUse" gradientTransform="matrix(1863.49,0,0,3027.48,897.08,2804.63)"><stop offset="0" style="stop-color:#393e35;stop-opacity:1"/><stop offset="1" style="stop-color:#82887d;stop-opacity:1"/></linearGradient><linearGradient id="_Linear2" x1="0" y1="0" x2="1" y2="0" gradientUnits="userSpaceOnUse" gradientTransform="matrix(1121.37,0,0,1358.44,2071.39,1045.4)"><stop offset="0" style="stop-color:#393e35;stop-opacity:1"/><stop offset="1" style="stop-color:#82887d;stop-opacity:1"/></linearGradient></defs></svg>