<?xml version="1.0" encoding="UTF-8" standalone="no"?>
<!DOCTYPE svg PUBLIC "-//W3C//DTD SVG 1.1//EN" "http://www.w3.org/Graphics/SVG/1.1/DTD/svg11.dtd">
<svg width="100%" height="100%" viewBox="0 0 1113 1113" version="1.1" xmlns="http://www.w3.org/2000/svg" xmlns:xlink="http://www.w3.org/1999/xlink" xml:space="preserve" xmlns:serif="http://www.serif.com/" style="fill-rule:evenodd;clip-rule:evenodd;">
    <g transform="matrix(4.16667,0,0,4.16667,0,0)">
        <g id="Layer-1" serif:id="Layer 1">
            <g transform="matrix(1,0,0,1,0,119.582)">
                <path d="M226.893,31.874L226.893,34.321C223.939,34.719 221.668,35.579 220.08,36.901C217.876,38.754 214.391,43.803 209.628,52.05L190.179,84.53L190.179,106.228C190.179,110.859 190.422,113.737 190.907,114.861C191.393,115.986 192.352,116.978 193.785,117.838C195.218,118.698 197.126,119.128 199.507,119.128L204.534,119.128L204.534,121.576L154.193,121.576L154.193,119.128L158.889,119.128C161.536,119.128 163.63,118.665 165.175,117.739C166.321,117.122 167.225,116.063 167.886,114.564C168.372,113.505 168.614,110.727 168.614,106.228L168.614,88.235L147.512,49.801C143.322,42.215 140.368,37.75 138.648,36.405C136.928,35.06 134.634,34.365 131.767,34.321L131.767,31.874L174.767,31.874L174.767,34.321L172.848,34.321C170.246,34.321 168.426,34.697 167.391,35.446C166.354,36.196 165.836,36.99 165.836,37.828C165.836,39.415 167.6,43.406 171.128,49.801L187.335,79.503L203.476,52.447C207.49,45.832 209.496,41.444 209.496,39.283C209.496,38.092 208.923,37.1 207.776,36.306C206.276,35.203 203.521,34.542 199.507,34.321L199.507,31.874L226.893,31.874Z" style="fill:rgb(115,210,22);fill-rule:nonzero;"/>
                <path d="M165.288,88.764L137.2,38.986L130.294,38.123L127.481,30.886L147.357,31.009L176.718,86.424L177,123.57L151.911,123.158L151.984,117.261L163.916,113.544L165.288,88.764ZM202.12,42.267L194.288,36.296L194.133,29.599L232.224,29.575L231.055,35.983L223.175,39.528L190.885,85.784L187.305,79.41L202.12,42.267Z" style="fill:rgb(138,226,52);"/>
                <path d="M176.664,42.427C177.202,43.51 177.796,44.658 178.415,45.78L178.434,45.815L187.657,62.718L196.329,48.183C196.339,48.165 196.35,48.148 196.361,48.13C197.475,46.292 198.519,44.316 199.35,42.652C199.249,42.644 199.149,42.637 199.05,42.632C194.638,42.389 191.184,38.741 191.184,34.321L191.184,31.874C191.184,27.277 194.91,23.551 199.507,23.551L226.893,23.551C231.491,23.551 235.217,27.277 235.217,31.874L235.217,34.321C235.217,38.49 232.133,42.015 228.002,42.57C226.917,42.716 226.008,42.804 225.421,43.285C223.56,44.858 220.847,49.267 216.836,56.213C216.814,56.251 216.791,56.289 216.769,56.326L198.503,86.831L198.503,106.228C198.503,107.894 198.598,109.65 198.678,110.832C198.926,110.833 199.205,110.805 199.507,110.805L204.534,110.805C209.132,110.805 212.858,114.532 212.858,119.128L212.858,121.576C212.858,126.172 209.132,129.899 204.534,129.899L154.193,129.899C149.596,129.899 145.87,126.172 145.87,121.576L145.87,119.128C145.87,114.532 149.596,110.805 154.193,110.805L158.889,110.805C159.341,110.805 159.751,110.83 160.111,110.807C160.189,109.698 160.292,107.919 160.292,106.228L160.292,90.37L140.223,53.82C137.245,48.429 133.827,43.518 133.364,42.859C132.919,42.615 132.318,42.654 131.639,42.644C127.093,42.574 123.445,38.868 123.445,34.321L123.445,31.874C123.445,27.277 127.171,23.551 131.767,23.551L174.767,23.551C179.363,23.551 183.089,27.277 183.089,31.874L183.089,34.321C183.089,38.265 180.347,41.568 176.664,42.427ZM160.746,110.676C160.796,110.655 160.845,110.63 160.892,110.602C161.003,110.536 161.115,110.472 161.228,110.411C161.074,110.494 160.904,110.573 160.746,110.676ZM226.893,31.874L199.507,31.874L199.507,34.321C203.521,34.542 206.276,35.203 207.776,36.306C208.923,37.1 209.496,38.092 209.496,39.283C209.496,41.444 207.49,45.832 203.476,52.447L187.335,79.503L171.128,49.801C167.6,43.406 165.836,39.415 165.836,37.828C165.836,36.99 166.354,36.196 167.391,35.446C168.426,34.697 170.246,34.321 172.848,34.321L174.767,34.321L174.767,31.874L131.767,31.874L131.767,34.321C134.634,34.365 136.928,35.06 138.648,36.405C140.368,37.75 143.322,42.215 147.512,49.801L168.614,88.235L168.614,106.228C168.614,110.727 168.372,113.505 167.886,114.564C167.225,116.063 166.321,117.122 165.175,117.739C163.63,118.665 161.536,119.128 158.889,119.128L154.193,119.128L154.193,121.576L204.534,121.576L204.534,119.128L199.507,119.128C197.126,119.128 195.218,118.698 193.785,117.838C192.352,116.978 191.393,115.986 190.907,114.861C190.422,113.737 190.179,110.859 190.179,106.228L190.179,84.53L209.628,52.05C214.391,43.803 217.876,38.754 220.08,36.901C221.668,35.579 223.939,34.719 226.893,34.321L226.893,31.874Z" style="fill:rgb(11,21,33);"/>
            </g>
            <path id="path6475-3-5" d="M196.971,96.927C213.48,81.878 205.909,35.4 167.787,27.243L240.062,42.003L196.971,96.927Z" style="fill:rgb(115,210,22);fill-rule:nonzero;"/>
            <path id="path6571" d="M191.673,41.876L235.61,48.457" style="fill:none;fill-rule:nonzero;stroke:rgb(138,226,52);stroke-width:8.28px;"/>
            <path d="M155.721,32.87C168.966,25.223 188.229,33.753 198.711,51.907C209.192,70.061 206.947,91.008 193.702,98.656C180.456,106.303 161.194,97.773 150.713,79.618C140.232,61.465 142.476,40.517 155.721,32.87Z" style="fill:rgb(138,226,52);stroke:rgb(11,21,33);stroke-width:8.32px;stroke-linecap:round;stroke-linejoin:round;stroke-miterlimit:1.5;"/>
            <path id="path6475-3-5-1" d="M169.004,30.241L242.455,41.169L199.607,93.478" style="fill:none;fill-rule:nonzero;stroke:rgb(11,21,33);stroke-width:8.32px;stroke-linecap:round;stroke-linejoin:round;stroke-miterlimit:32.2;"/>
            <path d="M39.46,132.858C33.504,135.26 26.575,133.013 23.995,127.842C21.414,122.673 24.155,116.524 30.109,114.122L164.289,59.991C170.244,57.589 177.174,59.836 179.754,65.006C182.334,70.176 179.595,76.325 173.639,78.727L39.46,132.858Z" style="fill:rgb(115,210,22);"/>
            <path d="M42.574,140.576C32.484,144.646 20.919,140.319 16.547,131.56C11.869,122.184 16.197,110.76 26.995,106.403L161.176,52.273C171.264,48.203 182.829,52.53 187.201,61.289C191.88,70.665 187.552,82.088 176.753,86.445L42.574,140.576ZM39.46,132.858L173.639,78.727C179.595,76.325 182.334,70.176 179.754,65.006C177.174,59.836 170.244,57.589 164.289,59.991L30.109,114.122C24.155,116.524 21.414,122.673 23.995,127.842C26.575,133.013 33.504,135.26 39.46,132.858Z" style="fill:rgb(11,21,33);"/>
            <path d="M23.883,127.689C23.234,126.773 20.677,119.153 29.18,114.479L165.218,59.646C172.646,57.179 178.303,61.332 179.551,64.578L23.883,127.689Z" style="fill:rgb(138,226,52);"/>
        </g>
    </g>
</svg>
