<?xml version="1.0" encoding="UTF-8" standalone="no"?><!DOCTYPE svg PUBLIC "-//W3C//DTD SVG 1.1//EN" "http://www.w3.org/Graphics/SVG/1.1/DTD/svg11.dtd"><svg width="100%" height="100%" viewBox="0 0 267 267" version="1.1" xmlns="http://www.w3.org/2000/svg" xmlns:xlink="http://www.w3.org/1999/xlink" xml:space="preserve" xmlns:serif="http://www.serif.com/" style="fill-rule:evenodd;clip-rule:evenodd;"><g id="Layer-1" serif:id="Layer 1"><path d="M130.365,84.851c3.97,-7.121 13.142,-9.589 20.468,-5.506c7.327,4.083 10.052,13.179 6.081,20.301l-76.956,138.047c-3.969,7.122 -13.142,9.59 -20.468,5.507c-7.326,-4.083 -10.051,-13.179 -6.082,-20.302l76.957,-138.047Z" style="fill:url(#_Linear1);"/><path d="M122.087,80.237c6.513,-11.684 21.286,-15.883 32.971,-9.371c11.684,6.513 15.883,21.287 9.37,32.971l-76.945,138.054c-6.511,11.685 -21.285,15.883 -32.97,9.371c-11.685,-6.513 -15.884,-21.286 -9.371,-32.971l76.945,-138.054Zm8.266,4.608l-76.945,138.053c-3.969,7.123 -1.409,16.128 5.712,20.097c7.123,3.97 16.129,1.41 20.097,-5.712l76.945,-138.053c3.97,-7.122 1.411,-16.127 -5.712,-20.097c-7.121,-3.97 -16.127,-1.41 -20.097,5.712Z" style="fill:#2e3436;"/><path d="M130.991,83.892c2.032,-3.647 10.865,1.633 8.832,5.279l-83.62,151.875c-5.739,-4.523 -6.246,-12.654 -2.157,-19.101l76.945,-138.053Z" style="fill:#d3d7cf;"/><path id="path6475" d="M187.128,95.898c-10.518,19.499 -79.55,-19.499 -70.905,-37.539l69.8,-42.676l1.105,80.215Z" style="fill:#313131;fill-rule:nonzero;"/><path d="M194.426,99.835c-3.466,6.424 -10.368,9.905 -19.75,9.667c-9.584,-0.243 -22.392,-4.582 -34.165,-11.022c-13.887,-7.595 -26.166,-18.116 -30.768,-27.065c-3.114,-6.054 -3.32,-11.793 -0.997,-16.64c0.692,-1.444 1.786,-2.656 3.152,-3.491l69.8,-42.675c2.541,-1.554 5.722,-1.625 8.33,-0.185c2.608,1.439 4.244,4.167 4.286,7.146l1.105,80.213c0.019,1.414 -0.323,2.808 -0.993,4.052Zm-7.298,-3.937l-1.105,-80.215l-69.8,42.676c-8.645,18.04 60.387,57.038 70.905,37.539Z" style="fill:#2e3436;"/><path id="path6475-6" d="M183.591,94.493c-7.642,15.381 -72.289,-22.7 -63.987,-34.126l62.826,-37.899l1.161,72.025Z" style="fill:url(#_Linear2);stroke:#d3d7cf;stroke-width:7.57px;"/></g><defs><linearGradient id="_Linear1" x1="0" y1="0" x2="1" y2="0" gradientUnits="userSpaceOnUse" gradientTransform="matrix(107.155,0,0,174.087,51.5841,161.273)"><stop offset="0" style="stop-color:#393e35;stop-opacity:1"/><stop offset="1" style="stop-color:#82887d;stop-opacity:1"/></linearGradient><linearGradient id="_Linear2" x1="0" y1="0" x2="1" y2="0" gradientUnits="userSpaceOnUse" gradientTransform="matrix(64.4814,0,0,78.1134,119.11,60.113)"><stop offset="0" style="stop-color:#393e35;stop-opacity:1"/><stop offset="1" style="stop-color:#82887d;stop-opacity:1"/></linearGradient></defs></svg>