<?xml version="1.0" encoding="UTF-8" standalone="no"?>
<svg
   width="32"
   height="32"
   viewBox="0 0 32 32"
   version="1.1"
   xml:space="preserve"
   style="clip-rule:evenodd;fill-rule:evenodd;stroke-linecap:round;stroke-linejoin:round"
   id="svg3403"
   sodipodi:docname="nodes_helix.svg"
   inkscape:version="1.1.2 (b8e25be833, 2022-02-05)"
   xmlns:inkscape="http://www.inkscape.org/namespaces/inkscape"
   xmlns:sodipodi="http://sodipodi.sourceforge.net/DTD/sodipodi-0.dtd"
   xmlns="http://www.w3.org/2000/svg"
   xmlns:svg="http://www.w3.org/2000/svg"
   xmlns:serif="http://www.serif.com/"><sodipodi:namedview
   id="namedview3405"
   pagecolor="#ffffff"
   bordercolor="#666666"
   borderopacity="1.0"
   inkscape:pageshadow="2"
   inkscape:pageopacity="0.0"
   inkscape:pagecheckerboard="0"
   showgrid="false"
   inkscape:zoom="12.625"
   inkscape:cx="31.960396"
   inkscape:cy="32.039604"
   inkscape:window-width="1920"
   inkscape:window-height="1001"
   inkscape:window-x="-9"
   inkscape:window-y="-9"
   inkscape:window-maximized="1"
   inkscape:current-layer="svg3403" />
    <g
   transform="matrix(0.52869646,0,0,0.52869646,30.868027,-0.91925455)"
   id="g3379">
        <g
   id="g3122">
            <g
   id="path2195"
   transform="matrix(-1.11579,-2.37639,2.00616,-1.3217,-206.271,2002.41)">
                <path
   d="m 581.55,424.77 0.536,0.078 0.572,-0.023 0.598,-0.119 0.461,-0.147 0.466,-0.191 0.618,-0.315 0.619,-0.378 0.627,-0.442 0.619,-0.491 1.193,-1.097 1.133,-1.222 1.021,-1.262 0.947,-1.325 0.863,-1.366 0.765,-1.385 0.71,-1.514 0.321,-0.811 0.264,-0.785 0.17,-0.616 0.121,-0.581 0.081,-0.771 -0.008,-0.336 -0.042,-0.295 -0.078,-0.249 -0.112,-0.198 -0.218,-0.185 -0.28,-0.068"
   style="fill:none;fill-rule:nonzero;stroke:#0b1521;stroke-width:2.4px"
   id="path3282" />
            </g>
            <g
   id="path2197"
   transform="matrix(-1.11579,-2.37639,2.00616,-1.3217,-206.271,2002.41)">
                <path
   d="m 593.517,408.676 -0.203,0.018 -0.221,0.062 -0.486,0.249 -0.525,0.399 -0.413,0.388 -0.42,0.451 -0.838,1.056 -0.81,1.213 -0.763,1.325 -0.828,1.681 -0.725,1.76 -0.601,1.806 -0.259,0.958 -0.215,0.955 -0.15,0.849 -0.106,0.836 -0.053,0.699 -0.015,0.681 0.044,0.871 0.124,0.815 0.212,0.739 0.162,0.38 0.193,0.345 0.304,0.4 0.358,0.324 0.407,0.242 0.417,0.147"
   style="fill:none;fill-rule:nonzero;stroke:#0b1521;stroke-width:2.4px"
   id="path3285" />
            </g>
            <g
   id="path2199"
   transform="matrix(-1.11579,-2.37639,2.00616,-1.3217,-206.271,2002.41)">
                <path
   d="m 588.107,428.325 0.536,0.078 0.572,-0.024 0.598,-0.118 0.46,-0.147 0.467,-0.192 0.618,-0.314 0.619,-0.378 0.626,-0.442 0.62,-0.492 1.193,-1.096 1.133,-1.223 1.021,-1.262 0.947,-1.325 0.862,-1.366 0.766,-1.384 0.71,-1.514 0.321,-0.811 0.264,-0.785 0.17,-0.617 0.121,-0.58 0.081,-0.771 -0.008,-0.336 -0.042,-0.295 -0.078,-0.25 -0.113,-0.198 -0.217,-0.184 -0.28,-0.068"
   style="fill:none;fill-rule:nonzero;stroke:#0b1521;stroke-width:2.4px"
   id="path3288" />
            </g>
            <g
   id="path2201"
   transform="matrix(-1.11579,-2.37639,2.00616,-1.3217,-206.271,2002.41)">
                <path
   d="m 600.074,412.231 -0.203,0.017 -0.221,0.062 -0.486,0.25 -0.525,0.399 -0.413,0.388 -0.42,0.451 -0.838,1.056 -0.81,1.213 -0.763,1.325 -0.828,1.681 -0.725,1.76 -0.601,1.805 -0.259,0.958 -0.215,0.955 -0.15,0.849 -0.106,0.837 -0.053,0.698 -0.015,0.681 0.044,0.872 0.124,0.814 0.212,0.74 0.162,0.38 0.193,0.345 0.304,0.4 0.358,0.324 0.407,0.241 0.416,0.147"
   style="fill:none;fill-rule:nonzero;stroke:#0b1521;stroke-width:2.4px"
   id="path3291" />
            </g>
            <g
   id="path2203"
   transform="matrix(-1.11579,-2.37639,2.00616,-1.3217,-206.271,2002.41)">
                <path
   d="m 594.663,431.879 0.537,0.078 0.572,-0.023 0.598,-0.119 0.46,-0.146 0.467,-0.192 0.618,-0.315 0.619,-0.378 0.626,-0.441 0.62,-0.492 1.192,-1.097 1.133,-1.222 1.022,-1.262 0.947,-1.325 0.862,-1.366 0.766,-1.385 0.71,-1.513"
   style="fill:none;fill-rule:nonzero;stroke:#0b1521;stroke-width:2.4px"
   id="path3294" />
            </g>
            <g
   id="path2199-5"
   transform="matrix(-1.11579,-2.37639,2.00616,-1.3217,-206.271,2002.41)">
                <path
   d="m 588.107,428.325 0.536,0.078 0.572,-0.024 0.598,-0.118 0.46,-0.147 0.467,-0.192 0.618,-0.314 0.619,-0.378 0.626,-0.442 0.62,-0.492 1.193,-1.096 1.133,-1.223 1.021,-1.262 0.947,-1.325 0.862,-1.366 0.766,-1.384 0.71,-1.514 0.321,-0.811 0.264,-0.785 0.17,-0.617 0.121,-0.58 0.081,-0.771 -0.008,-0.336 -0.042,-0.295 -0.078,-0.25 -0.113,-0.198 -0.217,-0.184 -0.28,-0.068"
   style="fill:none;fill-rule:nonzero;stroke:#ffffff;stroke-width:0.74px"
   id="path3297" />
            </g>
            <g
   id="path2203-5"
   transform="matrix(-1.11579,-2.37639,2.00616,-1.3217,-206.271,2002.41)">
                <path
   d="m 594.663,431.879 0.537,0.078 0.572,-0.023 0.598,-0.119 0.46,-0.146 0.467,-0.192 0.618,-0.315 0.619,-0.378 0.626,-0.441 0.62,-0.492 1.192,-1.097 1.133,-1.222 1.022,-1.262 0.947,-1.325 0.862,-1.366 0.766,-1.385 0.71,-1.513"
   style="fill:none;fill-rule:nonzero;stroke:#ffffff;stroke-width:0.74px"
   id="path3300" />
            </g>
            <g
   id="path2199-51"
   serif:id="path2199-5"
   transform="matrix(-1.10208,-2.3472,1.95458,-1.28772,-192.864,1971.28)">
                <path
   d="m 588.107,428.325 0.536,0.078 0.572,-0.024 0.598,-0.118 0.46,-0.147 0.467,-0.192 0.618,-0.314 0.619,-0.378 0.626,-0.442 0.62,-0.492 1.193,-1.096 1.133,-1.223 1.021,-1.262 0.947,-1.325 0.862,-1.366 0.766,-1.384 0.71,-1.514 0.321,-0.811 0.264,-0.785 0.17,-0.617 0.121,-0.58 0.081,-0.771 -0.008,-0.336 -0.042,-0.295 -0.078,-0.25 -0.113,-0.198 -0.217,-0.184 -0.28,-0.068"
   style="fill:none;fill-rule:nonzero;stroke:#dddddd;stroke-width:0.37px"
   id="path3303" />
            </g>
            <path
   id="path2201-2"
   d="m -15.564,32.418 4.736,-2.201 1.383,-0.864"
   style="fill:none;fill-rule:nonzero;stroke:#0b1521;stroke-width:6px" />
            <g
   id="path2195-2"
   transform="matrix(-1.11579,-2.37639,2.00616,-1.3217,-206.271,2002.41)">
                <path
   d="m 581.55,424.77 0.536,0.078 0.572,-0.023 0.598,-0.119 0.461,-0.147 0.466,-0.191 0.618,-0.315 0.619,-0.378 0.627,-0.442 0.619,-0.491 1.193,-1.097 1.133,-1.222 1.021,-1.262 0.947,-1.325 0.863,-1.366 0.765,-1.385 0.71,-1.514 0.321,-0.811 0.264,-0.785 0.17,-0.616 0.121,-0.581 0.081,-0.771 -0.008,-0.336 -0.042,-0.295 -0.078,-0.249 -0.112,-0.198 -0.218,-0.185 -0.28,-0.068"
   style="fill:none;fill-rule:nonzero;stroke:#0b1521;stroke-width:2.4px"
   id="path3307" />
            </g>
            <g
   id="path2195-6-9"
   transform="matrix(-1.11579,-2.37639,2.00616,-1.3217,-206.271,2002.41)">
                <path
   d="m 581.55,424.77 0.536,0.078 0.572,-0.023 0.598,-0.119 0.461,-0.147 0.466,-0.191 0.618,-0.315 0.619,-0.378 0.627,-0.442 0.619,-0.491 1.193,-1.097 1.133,-1.222 1.021,-1.262 0.947,-1.325 0.863,-1.366 0.765,-1.385 0.71,-1.514 0.321,-0.811 0.264,-0.785 0.17,-0.616 0.121,-0.581 0.081,-0.771 -0.008,-0.336 -0.042,-0.295 -0.078,-0.249 -0.112,-0.198 -0.218,-0.185 -0.28,-0.068"
   style="fill:none;fill-rule:nonzero;stroke:#ffffff;stroke-width:0.74px"
   id="path3310" />
            </g>
            <g
   id="path2195-6-91"
   serif:id="path2195-6-9"
   transform="matrix(-1.09495,-2.33201,1.95324,-1.28683,-196.331,1962.1)">
                <path
   d="m 581.55,424.77 0.536,0.078 0.572,-0.023 0.598,-0.119 0.461,-0.147 0.466,-0.191 0.618,-0.315 0.619,-0.378 0.627,-0.442 0.619,-0.491 1.193,-1.097 1.133,-1.222 1.021,-1.262 0.947,-1.325 0.863,-1.366 0.765,-1.385 0.71,-1.514 0.321,-0.811 0.264,-0.785 0.17,-0.616 0.121,-0.581 0.081,-0.771 -0.008,-0.336 -0.042,-0.295 -0.078,-0.249 -0.112,-0.198 -0.218,-0.185 -0.28,-0.068"
   style="fill:none;fill-rule:nonzero;stroke:#dddddd;stroke-width:0.37px"
   id="path3313" />
            </g>
            <path
   id="path2201-2-6"
   d="m -15.378,52.697 4.737,-2.201 1.383,-0.864"
   style="fill:none;fill-rule:nonzero;stroke:#0b1521;stroke-width:6px" />
            <g
   id="path2203-51"
   serif:id="path2203-5"
   transform="matrix(-1.08906,-2.31947,1.98214,-1.30588,-212.435,1961.78)">
                <path
   d="m 594.663,431.879 0.537,0.078 0.572,-0.023 0.598,-0.119 0.46,-0.146 0.467,-0.192 0.618,-0.315 0.619,-0.378 0.626,-0.441 0.62,-0.492 1.192,-1.097 1.133,-1.222 1.022,-1.262 0.947,-1.325 0.862,-1.366 0.766,-1.385 0.71,-1.513"
   style="fill:none;fill-rule:nonzero;stroke:#dddddd;stroke-width:0.37px"
   id="path3317" />
            </g>
            <g
   id="path3130-6-3"
   transform="translate(-52,-30)">
                <path
   d="M 22,35 V 88.806"
   style="fill:none;fill-rule:nonzero;stroke:#280000;stroke-width:6px;stroke-linejoin:miter"
   id="path3320" />
            </g>
            <g
   id="path3130-2-1-1"
   transform="translate(-52,-30)">
                <path
   d="M 22,35 V 89"
   style="fill:none;fill-rule:nonzero;stroke:#ef2929;stroke-width:2px;stroke-linejoin:miter"
   id="path3323" />
            </g>
            <g
   id="path2197-78"
   transform="matrix(-1.11579,-2.37639,2.00616,-1.3217,-205.75,2002.53)">
                <path
   d="m 588.838,413.837 -0.828,1.681"
   style="fill:none;fill-rule:nonzero;stroke:#0b1521;stroke-width:2.4px"
   id="path3326" />
            </g>
            <g
   id="path2201-5"
   transform="matrix(-1.11579,-2.37639,2.00616,-1.3217,-205.75,2002.53)">
                <path
   d="m 596.968,414.854 -0.81,1.213 -0.763,1.325 -0.828,1.681"
   style="fill:none;fill-rule:nonzero;stroke:#0b1521;stroke-width:2.4px"
   id="path3329" />
            </g>
            <g
   id="path3130-6-9"
   transform="translate(-42,-35)">
                <path
   d="M 26,43 12,53"
   style="fill:none;fill-rule:nonzero;stroke:#280000;stroke-width:6px;stroke-linecap:butt;stroke-linejoin:miter"
   id="path3332" />
            </g>
            <g
   id="path3130-2-1-2"
   transform="translate(-42,-35)">
                <path
   d="M 26,43 12,53"
   style="fill:none;fill-rule:nonzero;stroke:#ef2929;stroke-width:2px;stroke-linecap:butt;stroke-linejoin:miter"
   id="path3335" />
            </g>
            <g
   id="path4250-71-6-49-2-9-3"
   transform="matrix(0.561379,1.56418e-8,0,0.56577,-19.1295,11.5124)">
                <path
   d="m -26.118,5.664 c 1.697,-1.968 4.181,-3.103 6.792,-3.103 4.903,0 8.938,4.003 8.938,8.868 0,2.117 -0.764,4.165 -2.153,5.772 -1.697,1.968 -4.181,3.103 -6.792,3.103 -4.903,0 -8.938,-4.003 -8.938,-8.868 0,-2.116 0.764,-4.165 2.153,-5.772 z"
   style="fill:#ef2929;fill-rule:nonzero;stroke:#280000;stroke-width:3.55px;stroke-linecap:butt;stroke-linejoin:miter"
   id="path3338" />
            </g>
            <g
   id="path4250-7-3-2-5-7-2-7"
   transform="matrix(0.561379,1.56418e-8,0,0.56577,-19.1295,11.5124)">
                <path
   d="m -23.402,7.974 c 1.014,-1.177 2.5,-1.856 4.061,-1.856 2.932,0 5.344,2.394 5.344,5.303 0,1.266 -0.457,2.491 -1.287,3.452 -1.015,1.174 -2.498,1.85 -4.057,1.85 -2.932,0 -5.344,-2.393 -5.344,-5.302 0,-1.264 0.455,-2.486 1.283,-3.447 z"
   style="fill:url(#_Linear1);fill-rule:nonzero;stroke:#ef2929;stroke-width:3.55px;stroke-linecap:butt;stroke-linejoin:miter"
   id="path3341" />
            </g>
            <g
   id="path4250-71-6-49-2-9-3-1"
   transform="matrix(0.561379,1.56418e-8,0,0.56577,-5.12946,1.51236)">
                <path
   d="m -26.118,5.664 c 1.697,-1.968 4.181,-3.103 6.792,-3.103 4.903,0 8.938,4.003 8.938,8.868 0,2.117 -0.764,4.165 -2.153,5.772 -1.697,1.968 -4.181,3.103 -6.792,3.103 -4.903,0 -8.938,-4.003 -8.938,-8.868 0,-2.116 0.764,-4.165 2.153,-5.772 z"
   style="fill:#ef2929;fill-rule:nonzero;stroke:#280000;stroke-width:3.55px;stroke-linecap:butt;stroke-linejoin:miter"
   id="path3344" />
            </g>
            <g
   id="path4250-7-3-2-5-7-2-7-2"
   transform="matrix(0.561379,1.56418e-8,0,0.56577,-5.12946,1.51236)">
                <path
   d="m -23.402,7.974 c 1.014,-1.177 2.5,-1.856 4.061,-1.856 2.932,0 5.344,2.394 5.344,5.303 0,1.266 -0.457,2.491 -1.287,3.452 -1.015,1.174 -2.498,1.85 -4.057,1.85 -2.932,0 -5.344,-2.393 -5.344,-5.302 0,-1.264 0.455,-2.486 1.283,-3.447 z"
   style="fill:url(#_Linear2);fill-rule:nonzero;stroke:#ef2929;stroke-width:3.55px;stroke-linecap:butt;stroke-linejoin:miter"
   id="path3347" />
            </g>
            <g
   id="path3130-6"
   transform="translate(-72,-6)">
                <path
   d="M 22,36 V 57"
   style="fill:none;fill-rule:nonzero;stroke:#280000;stroke-width:6px;stroke-linecap:butt;stroke-linejoin:miter"
   id="path3350" />
            </g>
            <g
   id="path3130-2-1"
   transform="translate(-72,-6)">
                <path
   d="M 22,36 V 57"
   style="fill:none;fill-rule:nonzero;stroke:#ef2929;stroke-width:2px;stroke-linecap:butt;stroke-linejoin:miter"
   id="path3353" />
            </g>
            <path
   id="path2201-3-0-1"
   d="m -48.638,51.832 0.261,0.46 0.371,0.443 1.044,0.825 1.386,0.72 1.239,0.468 1.374,0.402 3.053,0.596 3.337,0.322 3.51,0.062 4.296,-0.254 4.34,-0.604 4.292,-0.957 2.21,-0.651 2.156,-0.751 1.871,-0.766 1.797,-0.854 1.46,-0.797 1.383,-0.864 1.7,-1.257 1.495,-1.371 1.248,-1.482 0.581,-0.887 0.477,-0.915 0.463,-1.251 0.251,-1.279 0.029,-1.285 -0.169,-1.183"
   style="fill:none;fill-rule:nonzero;stroke:#ffffff;stroke-width:2px;stroke-linecap:butt" />
            <g
   id="path2201-3-0"
   transform="matrix(-1.11579,-2.37639,2.00616,-1.3217,-206.271,2002.41)">
                <path
   d="m 600.074,412.231 -0.203,0.017 -0.221,0.062 -0.486,0.25 -0.525,0.399 -0.413,0.388 -0.42,0.451 -0.838,1.056 -0.81,1.213 -0.763,1.325 -0.828,1.681 -0.725,1.76 -0.601,1.805 -0.259,0.958 -0.215,0.955 -0.15,0.849 -0.106,0.837 -0.053,0.698 -0.015,0.681 0.044,0.872 0.124,0.814 0.212,0.74 0.162,0.38 0.193,0.345 0.304,0.4 0.358,0.324 0.407,0.241 0.416,0.147"
   style="fill:none;fill-rule:nonzero;stroke:#ffffff;stroke-width:0.74px"
   id="path3357" />
            </g>
            <g
   id="path2201-3-0-11"
   serif:id="path2201-3-0-1"
   transform="matrix(0.976285,0,0,0.945838,-0.782478,2.39045)">
                <path
   d="m -48.638,51.832 0.261,0.46 0.371,0.443 1.044,0.825 1.386,0.72 1.239,0.468 1.374,0.402 3.053,0.596 3.337,0.322 3.51,0.062 4.296,-0.254 4.34,-0.604 4.292,-0.957 2.21,-0.651 2.156,-0.751 1.871,-0.766 1.797,-0.854 1.46,-0.797 1.383,-0.864 1.7,-1.257 1.495,-1.371 1.248,-1.482 0.581,-0.887 0.477,-0.915 0.463,-1.251 0.251,-1.279 0.029,-1.285 -0.169,-1.183"
   style="fill:none;fill-rule:nonzero;stroke:#dddddd;stroke-width:1px"
   id="path3360" />
            </g>
            <g
   id="path4250-71-6-49-2"
   transform="matrix(0.561379,1.56418e-8,0,0.56577,-39.1295,43.5124)">
                <path
   d="m -26.118,5.664 c 1.697,-1.968 4.181,-3.103 6.792,-3.103 4.903,0 8.938,4.003 8.938,8.868 0,2.117 -0.764,4.165 -2.153,5.772 -1.697,1.968 -4.181,3.103 -6.792,3.103 -4.903,0 -8.938,-4.003 -8.938,-8.868 0,-2.116 0.764,-4.165 2.153,-5.772 z"
   style="fill:#ef2929;fill-rule:nonzero;stroke:#280000;stroke-width:3.55px;stroke-linecap:butt;stroke-linejoin:miter"
   id="path3363" />
            </g>
            <g
   id="path4250-7-3-2-5-7"
   transform="matrix(0.561379,1.56418e-8,0,0.56577,-39.1295,43.5124)">
                <path
   d="m -23.402,7.974 c 1.014,-1.177 2.5,-1.856 4.061,-1.856 2.932,0 5.344,2.394 5.344,5.303 0,1.266 -0.457,2.491 -1.287,3.452 -1.015,1.174 -2.498,1.85 -4.057,1.85 -2.932,0 -5.344,-2.393 -5.344,-5.302 0,-1.264 0.455,-2.486 1.283,-3.447 z"
   style="fill:url(#_Linear3);fill-rule:nonzero;stroke:#ef2929;stroke-width:3.55px;stroke-linecap:butt;stroke-linejoin:miter"
   id="path3366" />
            </g>
            <g
   id="path2201-3-01"
   serif:id="path2201-3-0"
   transform="matrix(-1.11579,-2.37639,1.9783,-1.30334,-195.086,1993.9)">
                <path
   d="m 600.074,412.231 -0.203,0.017 -0.221,0.062 -0.486,0.25 -0.525,0.399 -0.413,0.388 -0.42,0.451 -0.838,1.056 -0.81,1.213 -0.763,1.325 -0.828,1.681 -0.725,1.76 -0.601,1.805 -0.259,0.958 -0.215,0.955 -0.15,0.849 -0.106,0.837 -0.053,0.698 -0.015,0.681 0.044,0.872 0.124,0.814 0.212,0.74 0.162,0.38 0.193,0.345 0.304,0.4 0.358,0.324 0.407,0.241 0.416,0.147"
   style="fill:none;fill-rule:nonzero;stroke:#dddddd;stroke-width:0.37px"
   id="path3369" />
            </g>
            <g
   id="path4250-71-6-49-2-9"
   transform="matrix(0.561379,1.56418e-8,0,0.56577,-39.1295,23.5124)">
                <path
   d="m -26.118,5.664 c 1.697,-1.968 4.181,-3.103 6.792,-3.103 4.903,0 8.938,4.003 8.938,8.868 0,2.117 -0.764,4.165 -2.153,5.772 -1.697,1.968 -4.181,3.103 -6.792,3.103 -4.903,0 -8.938,-4.003 -8.938,-8.868 0,-2.116 0.764,-4.165 2.153,-5.772 z"
   style="fill:#ef2929;fill-rule:nonzero;stroke:#280000;stroke-width:3.55px;stroke-linecap:butt;stroke-linejoin:miter"
   id="path3372" />
            </g>
            <g
   id="path4250-7-3-2-5-7-2"
   transform="matrix(0.561379,1.56418e-8,0,0.56577,-39.1295,23.5124)">
                <path
   d="m -23.402,7.974 c 1.014,-1.177 2.5,-1.856 4.061,-1.856 2.932,0 5.344,2.394 5.344,5.303 0,1.266 -0.457,2.491 -1.287,3.452 -1.015,1.174 -2.498,1.85 -4.057,1.85 -2.932,0 -5.344,-2.393 -5.344,-5.302 0,-1.264 0.455,-2.486 1.283,-3.447 z"
   style="fill:url(#_Linear4);fill-rule:nonzero;stroke:#ef2929;stroke-width:3.55px;stroke-linecap:butt;stroke-linejoin:miter"
   id="path3375" />
            </g>
        </g>
    </g>
    <defs
   id="defs3401">
        <linearGradient
   id="_Linear1"
   x1="0"
   y1="0"
   x2="1"
   y2="-0.0044366801"
   gradientUnits="userSpaceOnUse"
   gradientTransform="matrix(-3.0537,-9.84756,9.84756,-3.0537,-18.338,16.3876)"><stop
     offset="0"
     style="stop-color:rgb(164,0,0);stop-opacity:1"
     id="stop3381" /><stop
     offset="1"
     style="stop-color:rgb(239,41,41);stop-opacity:1"
     id="stop3383" /></linearGradient>
        <linearGradient
   id="_Linear2"
   x1="0"
   y1="0"
   x2="1"
   y2="-0.0044366801"
   gradientUnits="userSpaceOnUse"
   gradientTransform="matrix(-3.0537,-9.84756,9.84756,-3.0537,-18.338,16.3876)"><stop
     offset="0"
     style="stop-color:rgb(164,0,0);stop-opacity:1"
     id="stop3386" /><stop
     offset="1"
     style="stop-color:rgb(239,41,41);stop-opacity:1"
     id="stop3388" /></linearGradient>
        <linearGradient
   id="_Linear3"
   x1="0"
   y1="0"
   x2="1"
   y2="-0.0044366801"
   gradientUnits="userSpaceOnUse"
   gradientTransform="matrix(-3.0537,-9.84756,9.84756,-3.0537,-18.338,16.3876)"><stop
     offset="0"
     style="stop-color:rgb(164,0,0);stop-opacity:1"
     id="stop3391" /><stop
     offset="1"
     style="stop-color:rgb(239,41,41);stop-opacity:1"
     id="stop3393" /></linearGradient>
        <linearGradient
   id="_Linear4"
   x1="0"
   y1="0"
   x2="1"
   y2="-0.0044366801"
   gradientUnits="userSpaceOnUse"
   gradientTransform="matrix(-3.0537,-9.84756,9.84756,-3.0537,-18.338,16.3876)"><stop
     offset="0"
     style="stop-color:rgb(164,0,0);stop-opacity:1"
     id="stop3396" /><stop
     offset="1"
     style="stop-color:rgb(239,41,41);stop-opacity:1"
     id="stop3398" /></linearGradient>
    </defs>
</svg>
