<?xml version="1.0" encoding="UTF-8" standalone="no"?>
<svg
   width="32"
   height="32"
   viewBox="0 0 32 32"
   version="1.1"
   xml:space="preserve"
   style="clip-rule:evenodd;fill-rule:evenodd"
   id="svg3893"
   sodipodi:docname="nodes_vect_y.svg"
   inkscape:version="1.1.2 (b8e25be833, 2022-02-05)"
   xmlns:inkscape="http://www.inkscape.org/namespaces/inkscape"
   xmlns:sodipodi="http://sodipodi.sourceforge.net/DTD/sodipodi-0.dtd"
   xmlns="http://www.w3.org/2000/svg"
   xmlns:svg="http://www.w3.org/2000/svg"
   xmlns:serif="http://www.serif.com/"><defs
   id="defs3897" /><sodipodi:namedview
   id="namedview3895"
   pagecolor="#ffffff"
   bordercolor="#666666"
   borderopacity="1.0"
   inkscape:pageshadow="2"
   inkscape:pageopacity="0.0"
   inkscape:pagecheckerboard="0"
   showgrid="false"
   inkscape:zoom="0.72596586"
   inkscape:cx="555.81126"
   inkscape:cy="557.18874"
   inkscape:window-width="1920"
   inkscape:window-height="1001"
   inkscape:window-x="-9"
   inkscape:window-y="-9"
   inkscape:window-maximized="1"
   inkscape:current-layer="svg3893" />
    <g
   transform="matrix(0.13796843,0,0,0.13796843,-2.0250336,-2.9983347)"
   id="g3891">
        <g
   id="Layer-1"
   serif:id="Layer 1">
            <g
   transform="translate(0,119.582)"
   id="g3877">
                <path
   d="m 226.893,31.874 v 2.447 c -2.954,0.398 -5.225,1.258 -6.813,2.58 -2.204,1.853 -5.689,6.902 -10.452,15.149 l -19.449,32.48 v 21.698 c 0,4.631 0.243,7.509 0.728,8.633 0.486,1.125 1.445,2.117 2.878,2.977 1.433,0.86 3.341,1.29 5.722,1.29 h 5.027 v 2.448 h -50.341 v -2.448 h 4.696 c 2.647,0 4.741,-0.463 6.286,-1.389 1.146,-0.617 2.05,-1.676 2.711,-3.175 0.486,-1.059 0.728,-3.837 0.728,-8.336 V 88.235 L 147.512,49.801 c -4.19,-7.586 -7.144,-12.051 -8.864,-13.396 -1.72,-1.345 -4.014,-2.04 -6.881,-2.084 v -2.447 h 43 v 2.447 h -1.919 c -2.602,0 -4.422,0.376 -5.457,1.125 -1.037,0.75 -1.555,1.544 -1.555,2.382 0,1.587 1.764,5.578 5.292,11.973 l 16.207,29.702 16.141,-27.056 c 4.014,-6.615 6.02,-11.003 6.02,-13.164 0,-1.191 -0.573,-2.183 -1.72,-2.977 -1.5,-1.103 -4.255,-1.764 -8.269,-1.985 v -2.447 z"
   style="fill:#73d216;fill-rule:nonzero"
   id="path3871" />
                <path
   d="M 165.288,88.764 137.2,38.986 l -6.906,-0.863 -2.813,-7.237 19.876,0.123 29.361,55.415 0.282,37.146 -25.089,-0.412 0.073,-5.897 11.932,-3.717 z m 36.832,-46.497 -7.832,-5.971 -0.155,-6.697 38.091,-0.024 -1.169,6.408 -7.88,3.545 -32.29,46.256 -3.58,-6.374 z"
   style="fill:#8ae234"
   id="path3873" />
                <path
   d="m 176.664,42.427 c 0.538,1.083 1.132,2.231 1.751,3.353 l 0.019,0.035 9.223,16.903 8.672,-14.535 c 0.01,-0.018 0.021,-0.035 0.032,-0.053 1.114,-1.838 2.158,-3.814 2.989,-5.478 -0.101,-0.008 -0.201,-0.015 -0.3,-0.02 -4.412,-0.243 -7.866,-3.891 -7.866,-8.311 v -2.447 c 0,-4.597 3.726,-8.323 8.323,-8.323 h 27.386 c 4.598,0 8.324,3.726 8.324,8.323 v 2.447 c 0,4.169 -3.084,7.694 -7.215,8.249 -1.085,0.146 -1.994,0.234 -2.581,0.715 -1.861,1.573 -4.574,5.982 -8.585,12.928 -0.022,0.038 -0.045,0.076 -0.067,0.113 l -18.266,30.505 v 19.397 c 0,1.666 0.095,3.422 0.175,4.604 0.248,0.001 0.527,-0.027 0.829,-0.027 h 5.027 c 4.598,0 8.324,3.727 8.324,8.323 v 2.448 c 0,4.596 -3.726,8.323 -8.324,8.323 h -50.341 c -4.597,0 -8.323,-3.727 -8.323,-8.323 v -2.448 c 0,-4.596 3.726,-8.323 8.323,-8.323 h 4.696 c 0.452,0 0.862,0.025 1.222,0.002 0.078,-1.109 0.181,-2.888 0.181,-4.579 V 90.37 L 140.223,53.82 c -2.978,-5.391 -6.396,-10.302 -6.859,-10.961 -0.445,-0.244 -1.046,-0.205 -1.725,-0.215 -4.546,-0.07 -8.194,-3.776 -8.194,-8.323 v -2.447 c 0,-4.597 3.726,-8.323 8.322,-8.323 h 43 c 4.596,0 8.322,3.726 8.322,8.323 v 2.447 c 0,3.944 -2.742,7.247 -6.425,8.106 z m -15.918,68.249 c 0.05,-0.021 0.099,-0.046 0.146,-0.074 0.111,-0.066 0.223,-0.13 0.336,-0.191 -0.154,0.083 -0.324,0.162 -0.482,0.265 z m 66.147,-78.802 h -27.386 v 2.447 c 4.014,0.221 6.769,0.882 8.269,1.985 1.147,0.794 1.72,1.786 1.72,2.977 0,2.161 -2.006,6.549 -6.02,13.164 L 187.335,79.503 171.128,49.801 c -3.528,-6.395 -5.292,-10.386 -5.292,-11.973 0,-0.838 0.518,-1.632 1.555,-2.382 1.035,-0.749 2.855,-1.125 5.457,-1.125 h 1.919 v -2.447 h -43 v 2.447 c 2.867,0.044 5.161,0.739 6.881,2.084 1.72,1.345 4.674,5.81 8.864,13.396 l 21.102,38.434 v 17.993 c 0,4.499 -0.242,7.277 -0.728,8.336 -0.661,1.499 -1.565,2.558 -2.711,3.175 -1.545,0.926 -3.639,1.389 -6.286,1.389 h -4.696 v 2.448 h 50.341 v -2.448 h -5.027 c -2.381,0 -4.289,-0.43 -5.722,-1.29 -1.433,-0.86 -2.392,-1.852 -2.878,-2.977 -0.485,-1.124 -0.728,-4.002 -0.728,-8.633 V 84.53 l 19.449,-32.48 c 4.763,-8.247 8.248,-13.296 10.452,-15.149 1.588,-1.322 3.859,-2.182 6.813,-2.58 z"
   style="fill:#0b1521"
   id="path3875" />
            </g>
            <path
   id="path6475-3-5"
   d="M 196.971,96.927 C 213.48,81.878 205.909,35.4 167.787,27.243 l 72.275,14.76 z"
   style="fill:#73d216;fill-rule:nonzero" />
            <path
   id="path6571"
   d="m 191.673,41.876 43.937,6.581"
   style="fill:none;fill-rule:nonzero;stroke:#8ae234;stroke-width:8.28px" />
            <path
   d="m 155.721,32.87 c 13.245,-7.647 32.508,0.883 42.99,19.037 10.481,18.154 8.236,39.101 -5.009,46.749 -13.246,7.647 -32.508,-0.883 -42.989,-19.038 -10.481,-18.153 -8.237,-39.101 5.008,-46.748 z"
   style="fill:#8ae234;stroke:#0b1521;stroke-width:8.32px;stroke-linecap:round;stroke-linejoin:round;stroke-miterlimit:1.5"
   id="path3881" />
            <path
   id="path6475-3-5-1"
   d="m 169.004,30.241 73.451,10.928 -42.848,52.309"
   style="fill:none;fill-rule:nonzero;stroke:#0b1521;stroke-width:8.32px;stroke-linecap:round;stroke-linejoin:round;stroke-miterlimit:32.2" />
            <path
   d="m 39.46,132.858 c -5.956,2.402 -12.885,0.155 -15.465,-5.016 -2.581,-5.169 0.16,-11.318 6.114,-13.72 l 134.18,-54.131 c 5.955,-2.402 12.885,-0.155 15.465,5.015 2.58,5.17 -0.159,11.319 -6.115,13.721 z"
   style="fill:#73d216"
   id="path3884" />
            <path
   d="m 42.574,140.576 c -10.09,4.07 -21.655,-0.257 -26.027,-9.016 -4.678,-9.376 -0.35,-20.8 10.448,-25.157 l 134.181,-54.13 c 10.088,-4.07 21.653,0.257 26.025,9.016 4.679,9.376 0.351,20.799 -10.448,25.156 z M 39.46,132.858 173.639,78.727 c 5.956,-2.402 8.695,-8.551 6.115,-13.721 -2.58,-5.17 -9.51,-7.417 -15.465,-5.015 l -134.18,54.131 c -5.954,2.402 -8.695,8.551 -6.114,13.72 2.58,5.171 9.509,7.418 15.465,5.016 z"
   style="fill:#0b1521"
   id="path3886" />
            <path
   d="m 23.883,127.689 c -0.649,-0.916 -3.206,-8.536 5.297,-13.21 L 165.218,59.646 c 7.428,-2.467 13.085,1.686 14.333,4.932 z"
   style="fill:#8ae234"
   id="path3888" />
        </g>
    </g>
</svg>
