<?xml version="1.0" encoding="UTF-8" standalone="no"?><!DOCTYPE svg PUBLIC "-//W3C//DTD SVG 1.1//EN" "http://www.w3.org/Graphics/SVG/1.1/DTD/svg11.dtd"><svg width="100%" height="100%" viewBox="0 0 267 267" version="1.1" xmlns="http://www.w3.org/2000/svg" xmlns:xlink="http://www.w3.org/1999/xlink" xml:space="preserve" xmlns:serif="http://www.serif.com/" style="fill-rule:evenodd;clip-rule:evenodd;"><g id="Layer-1" serif:id="Layer 1"><path id="path6475-3-5" d="M197.217,97.048c16.53,-15.068 8.949,-61.604 -29.22,-69.771l72.365,14.779l-43.145,54.992Z" style="fill:#73d216;fill-rule:nonzero;"/><path id="path6571" d="M191.913,41.928l43.992,6.59" style="fill:none;fill-rule:nonzero;stroke:#8ae234;stroke-width:8.29px;"/><path d="M155.916,32.911c13.261,-7.656 32.548,0.884 43.043,19.061c10.494,18.177 8.247,39.15 -5.015,46.807c-13.262,7.657 -32.549,-0.884 -43.043,-19.061c-10.494,-18.176 -8.247,-39.15 5.015,-46.807Z" style="fill:#8ae234;stroke:#0b1521;stroke-width:8.33px;stroke-linecap:round;stroke-linejoin:round;stroke-miterlimit:1.5;"/><path id="path6475-3-5-1" d="M169.215,30.279l73.543,10.941l-42.901,52.375" style="fill:none;fill-rule:nonzero;stroke:#0b1521;stroke-width:8.33px;stroke-linecap:round;stroke-linejoin:round;stroke-miterlimit:32.2;"/><path d="M39.509,133.024c-5.963,2.405 -12.901,0.155 -15.484,-5.022c-2.584,-5.176 0.16,-11.332 6.122,-13.737l134.347,-54.199c5.963,-2.405 12.901,-0.155 15.485,5.021c2.583,5.177 -0.16,11.333 -6.123,13.738l-134.347,54.199Z" style="fill:#73d216;"/><path d="M42.627,140.752c-10.102,4.075 -21.682,-0.258 -26.059,-9.028c-4.684,-9.387 -0.351,-20.826 10.461,-25.188l134.348,-54.198c10.101,-4.075 21.681,0.258 26.058,9.028c4.685,9.387 0.351,20.825 -10.461,25.187l-134.347,54.199Zm-3.118,-7.728l134.347,-54.199c5.963,-2.405 8.706,-8.561 6.123,-13.738c-2.584,-5.176 -9.522,-7.426 -15.485,-5.021l-134.347,54.199c-5.962,2.405 -8.706,8.561 -6.122,13.737c2.583,5.177 9.521,7.427 15.484,5.022Z" style="fill:#0b1521;"/><path d="M23.913,127.849c-0.65,-0.918 -3.21,-8.547 5.303,-13.227l136.209,-54.901c7.437,-2.471 13.101,1.688 14.35,4.938l-155.862,63.19Z" style="fill:#8ae234;"/><g><path id="path6475-6" d="M-39.521,72.369c-0.447,15.016 -64.754,11.399 -63.847,0.999l32.237,-55.989l31.61,54.99Z" style="fill:none;stroke:#729fcf;stroke-width:7.63px;stroke-linecap:round;stroke-miterlimit:32.2;"/></g><g><path d="M189.105,189.493l24.811,36.819c4.113,6.103 7.043,9.807 8.79,11.111c1.747,1.305 3.814,2.09 6.202,2.355l0,2.455l-43.85,0l0,-2.455c3.494,-0.265 5.749,-0.796 6.767,-1.592c1.017,-0.796 1.525,-1.769 1.525,-2.919c0,-0.796 -0.154,-1.503 -0.464,-2.122c-0.619,-1.327 -2.167,-3.804 -4.644,-7.43l-13.135,-19.438l-13.732,16.784c-4.113,5.086 -6.17,8.536 -6.17,10.349c0,1.282 0.531,2.477 1.593,3.582c1.061,1.106 2.631,1.902 4.71,2.388c0.928,0.266 2.83,0.398 5.705,0.398l-0,2.455l-34.563,0l0,-2.455c3.936,-0.574 7.032,-1.636 9.288,-3.184c2.963,-2.034 7.098,-6.28 12.405,-12.737l17.845,-21.759l-22.887,-33.634c-3.759,-5.529 -5.904,-8.602 -6.435,-9.221c-1.194,-1.46 -2.366,-2.499 -3.516,-3.118c-1.15,-0.62 -2.742,-1.084 -4.776,-1.393l-0,-2.455l44.646,-0l0,2.455l-2.255,-0c-2.565,-0 -4.357,0.409 -5.374,1.227c-1.017,0.818 -1.526,1.846 -1.526,3.085c0,0.973 0.155,1.813 0.465,2.52l4.577,6.9l11.145,16.983l9.487,-11.61c4.865,-5.97 7.297,-10.15 7.297,-12.538c0,-1.194 -0.343,-2.3 -1.028,-3.317c-0.686,-1.017 -1.67,-1.813 -2.952,-2.388c-1.283,-0.575 -3.273,-0.862 -5.971,-0.862l0,-2.455l33.103,-0l0,2.455c-2.609,0.044 -4.71,0.364 -6.302,0.961c-1.592,0.598 -3.295,1.714 -5.108,3.351c-1.15,1.061 -4.024,4.356 -8.624,9.884l-17.049,20.565Z" style="fill:#73d216;fill-rule:nonzero;"/><path d="M169.717,199.083l-39.818,-48.569l18.641,0.449l64.617,93.803l-31.983,0.082l4.757,-11.689l-9.298,-23.094l-17.642,23.378l10.975,4.898l0.207,6.615l-39.175,-0.172l0.426,-6.471l11.381,-6.693l26.912,-32.537Zm29.029,-36.495l-7.842,-5.979l-0.156,-6.705l38.138,-0.023l-1.17,6.415l-7.889,3.549l-30.008,30.643l-5.676,-8.205l14.603,-19.695Z" style="fill:#8ae234;"/><path d="M186.153,147.651c1.494,-2.235 4.041,-3.707 6.932,-3.707l33.103,-0c4.603,-0 8.334,3.731 8.334,8.333l-0,2.455c-0,4.547 -3.646,8.255 -8.192,8.332c-1.451,0.024 -2.633,0.1 -3.518,0.432c-0.771,0.289 -1.537,0.911 -2.439,1.724c-1.088,1.027 -3.669,4.058 -7.809,9.034l-13.063,15.756l21.325,31.645c3.308,4.907 5.461,8.042 6.866,9.092c0.596,0.445 1.322,0.659 2.137,0.749c4.22,0.469 7.413,4.036 7.413,8.282l-0,2.455c-0,4.602 -3.731,8.333 -8.334,8.333l-43.85,0c-4.602,0 -8.333,-3.731 -8.333,-8.333l-0,-2.455c-0,-3.637 2.339,-6.761 5.639,-7.887c-0.313,-0.464 -0.647,-0.956 -1.003,-1.477l-0.023,-0.034l-6.869,-10.163l-6.625,8.097c-0.826,1.023 -1.618,2.11 -2.3,3.094c0.537,0.021 1.12,0.037 1.669,0.037c4.602,0 8.333,3.731 8.333,8.333l0,2.455c0,4.602 -3.731,8.333 -8.333,8.333l-34.563,0c-4.602,0 -8.333,-3.731 -8.333,-8.333l-0,-2.455c-0,-4.137 3.035,-7.647 7.129,-8.245c2.426,-0.355 4.385,-0.855 5.776,-1.809c2.574,-1.768 6.072,-5.548 10.682,-11.157l13.888,-16.934l-19.382,-28.483c-3.449,-5.073 -5.384,-7.916 -5.871,-8.484c-0.041,-0.048 -0.082,-0.097 -0.122,-0.146c-0.373,-0.456 -0.658,-0.865 -1.017,-1.058c-0.494,-0.266 -1.206,-0.359 -2.08,-0.492c-4.071,-0.62 -7.079,-4.12 -7.079,-8.238l-0,-2.455c-0,-4.602 3.731,-8.333 8.333,-8.333l44.646,-0c2.891,-0 5.438,1.472 6.933,3.707Zm-4.808,15.141l0.706,1.065l0.023,0.035l4.913,7.486l2.293,-2.806c1.503,-1.845 2.905,-3.917 3.92,-5.506c-0.039,-0.001 -0.077,-0.001 -0.115,-0.001c-2.891,-0 -5.438,-1.472 -6.932,-3.707c-1.115,1.667 -2.816,2.91 -4.808,3.434Zm7.76,26.701l17.049,-20.565c4.6,-5.528 7.474,-8.823 8.624,-9.884c1.813,-1.637 3.516,-2.753 5.108,-3.351c1.592,-0.597 3.693,-0.917 6.302,-0.961l0,-2.455l-33.103,-0l0,2.455c2.698,-0 4.688,0.287 5.971,0.862c1.282,0.575 2.266,1.371 2.952,2.388c0.685,1.017 1.028,2.123 1.028,3.317c0,2.388 -2.432,6.568 -7.297,12.538l-9.487,11.61l-11.145,-16.983l-4.577,-6.9c-0.31,-0.707 -0.465,-1.547 -0.465,-2.52c0,-1.239 0.509,-2.267 1.526,-3.085c1.017,-0.818 2.809,-1.227 5.374,-1.227l2.255,-0l0,-2.455l-44.646,-0l-0,2.455c2.034,0.309 3.626,0.773 4.776,1.393c1.15,0.619 2.322,1.658 3.516,3.118c0.531,0.619 2.676,3.692 6.435,9.221l22.887,33.634l-17.845,21.759c-5.307,6.457 -9.442,10.703 -12.405,12.737c-2.256,1.548 -5.352,2.61 -9.288,3.184l0,2.455l34.563,0l-0,-2.455c-2.875,0 -4.777,-0.132 -5.705,-0.398c-2.079,-0.486 -3.649,-1.282 -4.71,-2.388c-1.062,-1.105 -1.593,-2.3 -1.593,-3.582c0,-1.813 2.057,-5.263 6.17,-10.349l13.732,-16.784l13.135,19.438c2.477,3.626 4.025,6.103 4.644,7.43c0.31,0.619 0.464,1.326 0.464,2.122c0,1.15 -0.508,2.123 -1.525,2.919c-1.018,0.796 -3.273,1.327 -6.767,1.592l0,2.455l43.85,0l0,-2.455c-2.388,-0.265 -4.455,-1.05 -6.202,-2.355c-1.747,-1.304 -4.677,-5.008 -8.79,-11.111l-24.811,-36.819Z" style="fill:#0b1521;"/></g></g></svg>