<?xml version="1.0" encoding="UTF-8" standalone="no"?><!DOCTYPE svg PUBLIC "-//W3C//DTD SVG 1.1//EN" "http://www.w3.org/Graphics/SVG/1.1/DTD/svg11.dtd"><svg width="100%" height="100%" viewBox="0 0 267 267" version="1.1" xmlns="http://www.w3.org/2000/svg" xmlns:xlink="http://www.w3.org/1999/xlink" xml:space="preserve" xmlns:serif="http://www.serif.com/" style="fill-rule:evenodd;clip-rule:evenodd;stroke-linecap:round;stroke-miterlimit:32.2;"><g id="Layer-1" serif:id="Layer 1"><path d="M72.885,95.888c0.021,-7.17 5.86,-12.976 13.03,-12.955c7.171,0.021 12.975,5.859 12.954,13.03l-0.399,138.992c-0.02,7.17 -5.859,12.976 -13.03,12.955c-7.17,-0.021 -12.975,-5.859 -12.955,-13.03l0.4,-138.992Z" style="fill:#3465a4;"/><path d="M64.562,95.864c0.034,-11.764 9.612,-21.287 21.377,-21.253c11.764,0.034 21.287,9.612 21.253,21.376l-0.399,138.992c-0.033,11.765 -9.612,21.288 -21.377,21.254c-11.764,-0.034 -21.287,-9.612 -21.253,-21.377l0.399,-138.992Zm8.323,0.024l-0.4,138.992c-0.02,7.171 5.785,13.009 12.955,13.03c7.171,0.021 13.01,-5.785 13.03,-12.955l0.399,-138.992c0.021,-7.171 -5.783,-13.009 -12.954,-13.03c-7.17,-0.021 -13.009,5.785 -13.03,12.955Z" style="fill:#0b1521;"/><path d="M72.97,94.883c0.01,-3.671 2.999,-6.642 6.67,-6.632c3.672,0.011 6.644,3 6.633,6.671l-0.288,152.683c-9.02,0.714 -13.815,-7.028 -13.415,-13.729l0.4,-138.993Z" style="fill:#729fcf;"/><path id="path6475" d="M121.275,80.21c0.213,19.482 -69.511,18.881 -70.543,1.318l35.527,-62.565l35.016,61.247Z" style="fill:#3465a4;fill-rule:nonzero;"/><path d="M128.567,80.131c0.07,6.419 -3.758,12.037 -11.078,15.85c-7.478,3.895 -19.18,6.012 -30.981,6.071c-13.92,0.072 -27.848,-2.793 -35.201,-7.718c-4.975,-3.332 -7.578,-7.659 -7.854,-12.378c-0.083,-1.406 0.242,-2.805 0.938,-4.028l35.527,-62.565c1.293,-2.278 3.71,-3.688 6.33,-3.691c2.62,-0.004 5.041,1.399 6.341,3.673l35.016,61.245c0.618,1.08 0.948,2.298 0.962,3.541Zm-7.292,0.079l-35.016,-61.247l-35.527,62.565c1.032,17.563 70.756,18.164 70.543,-1.318Z" style="fill:#0b1521;"/><path id="path6475-6" d="M117.956,80.635c-0.447,14.997 -64.674,11.385 -63.768,0.998l32.196,-55.919l31.572,54.921Z" style="fill:none;stroke:#729fcf;stroke-width:7.62px;"/><path d="M216.886,152.071l-52.86,84.895l17.112,-0c8.091,-0 13.751,-0.509 16.978,-1.525c5.263,-1.592 9.794,-4.522 13.597,-8.788c3.803,-4.267 6.433,-9.982 7.892,-17.145l2.587,0l-3.647,32.498l-82.375,0l52.927,-85.026l-13.332,-0c-5.172,-0 -8.577,0.154 -10.213,0.463c-3.095,0.575 -6.002,1.714 -8.722,3.416c-2.72,1.703 -4.974,3.969 -6.765,6.798c-1.79,2.83 -3.195,6.411 -4.211,10.745l-2.454,-0l2.454,-26.331l71.032,-0Z" style="fill:#3465a4;fill-rule:nonzero;"/><path d="M150.327,148.312l-3.217,34.278" style="fill:none;stroke:#73a0cf;stroke-width:8.32px;stroke-linecap:butt;stroke-linejoin:round;stroke-miterlimit:1.5;"/><path d="M214.078,207.76l9.333,0.922c0.448,12.212 -2.893,21.693 -14.197,28.096l-25.302,0.138c19.076,-4.601 30.689,-13.436 30.166,-29.156Z" style="fill:#73a0cf;"/><path d="M184.694,157.009l12.9,-0.008l-52.502,85.888l-11.793,1.564l51.395,-87.444Z" style="fill:#729fcf;"/><path d="M174.11,165.305c-3.467,0.015 -5.806,0.088 -7.011,0.316l-0.028,0.006c-2.067,0.383 -4.008,1.15 -5.825,2.287c-1.672,1.047 -3.047,2.453 -4.148,4.194c-1.362,2.152 -2.368,4.9 -3.141,8.196c-0.883,3.761 -4.239,6.421 -8.103,6.421l-2.454,-0c-2.342,-0 -4.576,-0.986 -6.153,-2.718c-1.577,-1.731 -2.352,-4.046 -2.135,-6.377l2.454,-26.331c0.4,-4.279 3.99,-7.551 8.288,-7.551l71.032,0c3.023,0 5.809,1.639 7.277,4.283c1.467,2.643 1.386,5.874 -0.211,8.439l-44.939,72.173l2.125,0c6.893,0 11.728,-0.274 14.477,-1.14c0.03,-0.01 0.061,-0.019 0.091,-0.029c3.796,-1.148 7.051,-3.281 9.793,-6.359c2.93,-3.287 4.827,-7.75 5.951,-13.269c0.79,-3.876 4.199,-6.661 8.155,-6.661l2.587,-0c2.369,-0 4.626,1.009 6.206,2.775c1.578,1.767 2.33,4.122 2.065,6.476l-3.648,32.498c-0.472,4.212 -4.033,7.395 -8.27,7.395l-82.375,0c-3.022,0 -5.808,-1.639 -7.276,-4.282c-1.467,-2.642 -1.387,-5.872 0.211,-8.439l45.005,-72.303Zm42.776,-13.234l-71.032,-0l-2.454,26.331l2.454,-0c1.016,-4.334 2.421,-7.915 4.211,-10.745c1.791,-2.829 4.045,-5.095 6.765,-6.798c2.72,-1.702 5.627,-2.841 8.722,-3.416c1.636,-0.309 5.041,-0.463 10.213,-0.463l13.332,-0l-52.927,85.026l82.375,0l3.647,-32.498l-2.587,0c-1.459,7.163 -4.089,12.878 -7.892,17.145c-3.803,4.266 -8.334,7.196 -13.597,8.788c-3.227,1.016 -8.887,1.525 -16.978,1.525l-17.112,-0l52.86,-84.895Z" style="fill:#0b1521;"/></g></svg>