<?xml version="1.0" encoding="UTF-8" standalone="no"?>
<!DOCTYPE svg PUBLIC "-//W3C//DTD SVG 1.1//EN" "http://www.w3.org/Graphics/SVG/1.1/DTD/svg11.dtd">
<svg width="100%" height="100%" viewBox="0 0 32 32" version="1.1" xmlns="http://www.w3.org/2000/svg" xmlns:xlink="http://www.w3.org/1999/xlink" xml:space="preserve" xmlns:serif="http://www.serif.com/" style="fill-rule:evenodd;clip-rule:evenodd;">
    <g transform="matrix(0.549144,0,0,0.549144,-1.74127,-1.77225)">
        <g id="path3825-8" transform="matrix(0.584923,0.548225,-0.698528,0.38832,43.5413,3.78766)">
            <path d="M3,15.715L37,15.65L37,67.513L3,49.665L3,15.715Z" style="fill:url(#_Linear1);"/>
            <path d="M3,15.715L37,15.65L37,67.513L3,49.665L3,15.715ZM5.193,17.913L5.193,48.667L34.807,64.212L34.807,17.856L5.193,17.913Z" style="fill:rgb(114,159,207);"/>
        </g>
        <g id="path3061" transform="matrix(-0.00487487,-0.0807246,0.0807246,-0.00487487,-16.8243,26.1294)">
            <path d="M162.409,627.635L187.867,654.494L-94.409,920.466L-119.867,893.606L162.409,627.635Z" style="fill:rgb(211,215,207);fill-rule:nonzero;stroke:rgb(46,52,54);stroke-width:12.34px;"/>
        </g>
        <g id="path30611" serif:id="path3061" transform="matrix(-0.00487487,-0.0807246,0.0807246,-0.00487487,-16.8243,26.1294)">
            <path d="M162.409,627.635L187.867,654.494L-94.409,920.466L-119.867,893.606L162.409,627.635Z" style="fill:rgb(211,215,207);fill-rule:nonzero;stroke:rgb(46,52,54);stroke-width:12.34px;"/>
        </g>
        <g id="path3063" transform="matrix(-0.00487487,-0.0807246,0.0807246,-0.00487487,-16.8243,26.1294)">
            <path d="M173.542,651.076L-97.056,905.976" style="fill:none;fill-rule:nonzero;stroke:white;stroke-width:12.34px;"/>
        </g>
        <g transform="matrix(1,0,0,1,-4.34295,1.86912)">
            <g id="path30612" serif:id="path3061" transform="matrix(0.0363348,-0.0722496,0.0722496,0.0363348,-40.0319,11.2047)">
                <path d="M162.409,627.635L187.867,654.494L-94.409,920.466L-119.867,893.606L162.409,627.635Z" style="fill:rgb(211,215,207);fill-rule:nonzero;stroke:rgb(46,52,54);stroke-width:12.34px;"/>
            </g>
            <g id="path30631" serif:id="path3063" transform="matrix(0.0363348,-0.0722496,0.0722496,0.0363348,-40.0319,11.2047)">
                <path d="M173.542,651.076L-97.056,905.976" style="fill:none;fill-rule:nonzero;stroke:white;stroke-width:12.34px;"/>
            </g>
        </g>
        <g transform="matrix(-0.209496,-0.977809,0.977809,-0.209496,-11.3253,41.4456)">
            <g id="path30613" serif:id="path3061" transform="matrix(0.0363348,-0.0722496,0.0722496,0.0363348,-40.0319,11.2047)">
                <path d="M162.409,627.635L187.867,654.494L-94.409,920.466L-119.867,893.606L162.409,627.635Z" style="fill:rgb(211,215,207);fill-rule:nonzero;stroke:rgb(46,52,54);stroke-width:12.34px;"/>
            </g>
            <g id="path30632" serif:id="path3063" transform="matrix(0.0363348,-0.0722496,0.0722496,0.0363348,-40.0319,11.2047)">
                <path d="M173.542,651.076L-97.056,905.976" style="fill:none;fill-rule:nonzero;stroke:white;stroke-width:12.34px;"/>
            </g>
        </g>
        <g transform="matrix(-0.209496,-0.977809,0.977809,-0.209496,8.30048,64.1498)">
            <g id="path30614" serif:id="path3061" transform="matrix(0.0363348,-0.0722496,0.0722496,0.0363348,-40.0319,11.2047)">
                <path d="M256.927,538.577L282.385,565.436L-94.409,920.466L-119.867,893.606L256.927,538.577Z" style="fill:rgb(211,215,207);fill-rule:nonzero;stroke:rgb(46,52,54);stroke-width:12.34px;"/>
            </g>
            <g id="path30633" serif:id="path3063" transform="matrix(0.0363348,-0.0722496,0.0722496,0.0363348,-40.0319,11.2047)">
                <path d="M268.06,562.018L-97.056,905.976" style="fill:none;fill-rule:nonzero;stroke:white;stroke-width:12.34px;"/>
            </g>
        </g>
        <g transform="matrix(0.386188,2.39296e-08,-2.39296e-08,0.386188,16.1033,20.0135)">
            <g id="g3827-1-3">
                <g id="g3797-9-5">
                    <path id="path4250-71-6" d="M-26.156,5.583C-24.448,3.585 -21.947,2.434 -19.318,2.435C-14.385,2.437 -10.326,6.498 -10.328,11.432C-10.329,13.577 -11.097,15.653 -12.494,17.282C-14.202,19.279 -16.703,20.431 -19.332,20.43C-24.265,20.428 -28.324,16.367 -28.322,11.433C-28.321,9.288 -27.553,7.211 -26.156,5.583Z" style="fill:none;fill-rule:nonzero;stroke:rgb(40,0,0);stroke-width:2px;"/>
                    <path id="path4250-7-3-2" d="M-24.634,6.894C-23.304,5.34 -21.359,4.444 -19.314,4.444C-15.474,4.444 -12.314,7.604 -12.314,11.444C-12.314,13.115 -12.912,14.732 -14,16C-15.329,17.55 -17.272,18.444 -19.314,18.444C-23.154,18.444 -26.314,15.284 -26.314,11.444C-26.314,9.776 -25.718,8.161 -24.634,6.894Z" style="fill:url(#_Linear2);fill-rule:nonzero;stroke:rgb(239,41,41);stroke-width:2px;"/>
                </g>
            </g>
        </g>
        <g transform="matrix(0.358953,2.22421e-08,-2.22421e-08,0.358953,41.4329,5.33434)">
            <g id="g3827-1-3-3">
                <g id="g3797-9-5-5">
                    <path id="path4250-71-6-6" d="M-26.156,5.583C-24.448,3.585 -21.947,2.434 -19.318,2.435C-14.385,2.437 -10.326,6.498 -10.328,11.432C-10.329,13.577 -11.097,15.653 -12.494,17.282C-14.202,19.279 -16.703,20.431 -19.332,20.43C-24.265,20.428 -28.324,16.367 -28.322,11.433C-28.321,9.288 -27.553,7.211 -26.156,5.583Z" style="fill:none;fill-rule:nonzero;stroke:rgb(40,0,0);stroke-width:2px;"/>
                    <path id="path4250-7-3-2-2" d="M-24.634,6.894C-23.304,5.34 -21.359,4.444 -19.314,4.444C-15.474,4.444 -12.314,7.604 -12.314,11.444C-12.314,13.115 -12.912,14.732 -14,16C-15.329,17.55 -17.272,18.444 -19.314,18.444C-23.154,18.444 -26.314,15.284 -26.314,11.444C-26.314,9.776 -25.718,8.161 -24.634,6.894Z" style="fill:url(#_Linear3);fill-rule:nonzero;stroke:rgb(239,41,41);stroke-width:2px;"/>
                </g>
            </g>
        </g>
        <g transform="matrix(0.465101,2.90084e-08,-2.88193e-08,0.468153,26.3437,47.3002)">
            <g id="g3827-1-31" serif:id="g3827-1-3">
                <g id="g3797-9-51" serif:id="g3797-9-5">
                    <path id="path4250-71-61" serif:id="path4250-71-6" d="M-26.156,5.583C-24.448,3.585 -21.947,2.434 -19.318,2.435C-14.385,2.437 -10.326,6.498 -10.328,11.432C-10.329,13.577 -11.097,15.653 -12.494,17.282C-14.202,19.279 -16.703,20.431 -19.332,20.43C-24.265,20.428 -28.324,16.367 -28.322,11.433C-28.321,9.288 -27.553,7.211 -26.156,5.583Z" style="fill:none;fill-rule:nonzero;stroke:rgb(40,0,0);stroke-width:2px;"/>
                    <path id="path4250-7-3-21" serif:id="path4250-7-3-2" d="M-24.634,6.894C-23.304,5.34 -21.359,4.444 -19.314,4.444C-15.474,4.444 -12.314,7.604 -12.314,11.444C-12.314,13.115 -12.912,14.732 -14,16C-15.329,17.55 -17.272,18.444 -19.314,18.444C-23.154,18.444 -26.314,15.284 -26.314,11.444C-26.314,9.776 -25.718,8.161 -24.634,6.894Z" style="fill:url(#_Linear4);fill-rule:nonzero;stroke:rgb(239,41,41);stroke-width:2px;"/>
                </g>
            </g>
        </g>
        <g transform="matrix(0.446772,2.76831e-08,-2.76836e-08,0.446765,65.0079,25.3472)">
            <g id="g3827-1-3-31" serif:id="g3827-1-3-3">
                <g id="g3797-9-5-51" serif:id="g3797-9-5-5">
                    <path id="path4250-71-6-61" serif:id="path4250-71-6-6" d="M-26.156,5.583C-24.448,3.585 -21.947,2.434 -19.318,2.435C-14.385,2.437 -10.326,6.498 -10.328,11.432C-10.329,13.577 -11.097,15.653 -12.494,17.282C-14.202,19.279 -16.703,20.431 -19.332,20.43C-24.265,20.428 -28.324,16.367 -28.322,11.433C-28.321,9.288 -27.553,7.211 -26.156,5.583Z" style="fill:none;fill-rule:nonzero;stroke:rgb(40,0,0);stroke-width:2px;"/>
                    <path id="path4250-7-3-2-21" serif:id="path4250-7-3-2-2" d="M-24.634,6.894C-23.304,5.34 -21.359,4.444 -19.314,4.444C-15.474,4.444 -12.314,7.604 -12.314,11.444C-12.314,13.115 -12.912,14.732 -14,16C-15.329,17.55 -17.272,18.444 -19.314,18.444C-23.154,18.444 -26.314,15.284 -26.314,11.444C-26.314,9.776 -25.718,8.161 -24.634,6.894Z" style="fill:url(#_Linear5);fill-rule:nonzero;stroke:rgb(239,41,41);stroke-width:2px;"/>
                </g>
            </g>
        </g>
    </g>
    <defs>
        <linearGradient id="_Linear1" x1="0" y1="0" x2="1" y2="-0.171717" gradientUnits="userSpaceOnUse" gradientTransform="matrix(-14.0674,-33.1149,33.1149,-14.0674,22.1165,51.7175)"><stop offset="0" style="stop-color:rgb(52,101,164);stop-opacity:1"/><stop offset="1" style="stop-color:rgb(114,159,207);stop-opacity:1"/></linearGradient>
        <linearGradient id="_Linear2" x1="0" y1="0" x2="1" y2="0" gradientUnits="userSpaceOnUse" gradientTransform="matrix(-4,-13,13,-4,-18,18)"><stop offset="0" style="stop-color:rgb(164,0,0);stop-opacity:1"/><stop offset="1" style="stop-color:rgb(239,41,41);stop-opacity:1"/></linearGradient>
        <linearGradient id="_Linear3" x1="0" y1="0" x2="1" y2="0" gradientUnits="userSpaceOnUse" gradientTransform="matrix(-4,-13,13,-4,-18,18)"><stop offset="0" style="stop-color:rgb(164,0,0);stop-opacity:1"/><stop offset="1" style="stop-color:rgb(239,41,41);stop-opacity:1"/></linearGradient>
        <linearGradient id="_Linear4" x1="0" y1="0" x2="1" y2="-0.00369649" gradientUnits="userSpaceOnUse" gradientTransform="matrix(-4,-13,13,-4,-18,18)"><stop offset="0" style="stop-color:rgb(164,0,0);stop-opacity:1"/><stop offset="1" style="stop-color:rgb(239,41,41);stop-opacity:1"/></linearGradient>
        <linearGradient id="_Linear5" x1="0" y1="0" x2="1" y2="9.61141e-06" gradientUnits="userSpaceOnUse" gradientTransform="matrix(-4,-13,13,-4,-18,18)"><stop offset="0" style="stop-color:rgb(164,0,0);stop-opacity:1"/><stop offset="1" style="stop-color:rgb(239,41,41);stop-opacity:1"/></linearGradient>
    </defs>
</svg>
