<?xml version="1.0" encoding="UTF-8" standalone="no"?>
<svg
   width="32"
   height="32"
   viewBox="0 0 32 32"
   version="1.1"
   xml:space="preserve"
   style="clip-rule:evenodd;fill-rule:evenodd;stroke-linecap:round;stroke-linejoin:round"
   id="svg1942"
   sodipodi:docname="nodes_number_slider.svg"
   inkscape:version="1.1.2 (b8e25be833, 2022-02-05)"
   xmlns:inkscape="http://www.inkscape.org/namespaces/inkscape"
   xmlns:sodipodi="http://sodipodi.sourceforge.net/DTD/sodipodi-0.dtd"
   xmlns="http://www.w3.org/2000/svg"
   xmlns:svg="http://www.w3.org/2000/svg"><sodipodi:namedview
   id="namedview1944"
   pagecolor="#ffffff"
   bordercolor="#666666"
   borderopacity="1.0"
   inkscape:pageshadow="2"
   inkscape:pageopacity="0.0"
   inkscape:pagecheckerboard="0"
   showgrid="false"
   inkscape:zoom="12.625"
   inkscape:cx="31.960396"
   inkscape:cy="32.039604"
   inkscape:window-width="1920"
   inkscape:window-height="1001"
   inkscape:window-x="-9"
   inkscape:window-y="-9"
   inkscape:window-maximized="1"
   inkscape:current-layer="svg1942" />
    <g
   transform="matrix(0.50081069,0,0,0.50081069,-0.02590856,-496.08074)"
   id="g1931">
        <g
   transform="matrix(1.06494,0,0,1,-3.06175,5.97777)"
   id="g1919">
            <g
   id="rect3852"
   transform="translate(0.923623,997.038)">
                <rect
   x="3"
   y="37"
   width="58"
   height="6"
   style="fill:#ffffff;stroke:#2e3436;stroke-width:2px"
   id="rect1912" />
            </g>
            <g
   transform="matrix(0.97976,0,0,0.821343,1.5904,1004.1)"
   id="g1917">
                <rect
   x="3.421"
   y="39.452999"
   width="57.158001"
   height="3.095"
   style="fill:#d3d7cf"
   id="rect1915" />
            </g>
        </g>
        <g
   transform="matrix(-2.06717,0,0,-2.06717,109.29,1068.36)"
   id="g1925">
            <path
   d="M 37.429,15.631 46.15,33.073 H 28.708 Z"
   style="fill:#d3d7cf"
   id="path1921" />
            <path
   d="m 38.294,15.198 8.721,17.442 c 0.15,0.3 0.134,0.656 -0.042,0.942 -0.176,0.285 -0.488,0.459 -0.823,0.459 H 28.708 c -0.335,0 -0.647,-0.174 -0.823,-0.459 -0.176,-0.286 -0.192,-0.642 -0.042,-0.942 l 8.721,-17.442 c 0.164,-0.327 0.499,-0.535 0.865,-0.535 0.366,0 0.701,0.208 0.865,0.535 z m -0.865,0.433 -8.721,17.442 H 46.15 Z"
   style="fill:#2e3436"
   id="path1923" />
        </g>
        <g
   transform="matrix(-1.38307,0,0,-1.38307,83.6846,1048.94)"
   id="g1929">
            <path
   d="M 37.429,15.631 46.15,33.073 H 28.708 Z"
   style="fill:url(#_Linear1)"
   id="path1927" />
        </g>
    </g>
    <defs
   id="defs1940">
        <linearGradient
   id="_Linear1"
   x1="0"
   y1="0"
   x2="1"
   y2="0"
   gradientUnits="userSpaceOnUse"
   gradientTransform="matrix(17.4423,0,0,17.4423,28.7076,24.3519)"><stop
     offset="0"
     style="stop-color:rgb(86,94,79);stop-opacity:1"
     id="stop1933" /><stop
     offset="0.58"
     style="stop-color:rgb(172,177,167);stop-opacity:1"
     id="stop1935" /><stop
     offset="1"
     style="stop-color:rgb(211,215,207);stop-opacity:1"
     id="stop1937" /></linearGradient>
    </defs>
</svg>
