<?xml version="1.0" encoding="UTF-8" standalone="no"?>
<svg
   width="32"
   height="32"
   viewBox="0 0 32 32"
   version="1.1"
   xml:space="preserve"
   style="clip-rule:evenodd;fill-rule:evenodd;stroke-linejoin:round;stroke-miterlimit:2"
   id="svg1158"
   sodipodi:docname="nodes_cview.svg"
   inkscape:version="1.1.2 (b8e25be833, 2022-02-05)"
   xmlns:inkscape="http://www.inkscape.org/namespaces/inkscape"
   xmlns:sodipodi="http://sodipodi.sourceforge.net/DTD/sodipodi-0.dtd"
   xmlns="http://www.w3.org/2000/svg"
   xmlns:svg="http://www.w3.org/2000/svg"><sodipodi:namedview
   id="namedview1160"
   pagecolor="#ffffff"
   bordercolor="#666666"
   borderopacity="1.0"
   inkscape:pageshadow="2"
   inkscape:pageopacity="0.0"
   inkscape:pagecheckerboard="0"
   showgrid="false"
   width="32px"
   inkscape:zoom="11.198562"
   inkscape:cx="35.942113"
   inkscape:cy="17.546895"
   inkscape:window-width="1920"
   inkscape:window-height="1001"
   inkscape:window-x="-9"
   inkscape:window-y="-9"
   inkscape:window-maximized="1"
   inkscape:current-layer="svg1158" />
    <g
   transform="matrix(0.14265777,0,0,0.14265777,-3.1393978,-3.021075)"
   id="g1149">
        <g
   transform="scale(4.16667)"
   id="g1147">
            <path
   d="M 8.404,31.543 C 13.743,25.339 22.363,21.28 32.011,21.28 c 9.647,0 18.267,4.059 23.607,10.263 -5.34,6.203 -13.96,10.311 -23.607,10.311 -9.648,0 -18.268,-4.108 -23.607,-10.311 z"
   style="fill:url(#_Radial1)"
   id="path1065" />
            <path
   d="M 6.888,30.238 C 12.574,23.633 21.739,19.28 32.011,19.28 c 10.272,0 19.437,4.353 25.123,10.958 l 1.123,1.305 -1.123,1.304 C 51.449,39.452 42.283,43.854 32.011,43.854 21.739,43.854 12.573,39.452 6.888,32.847 L 5.765,31.543 Z m 1.516,1.305 c 5.339,6.203 13.959,10.311 23.607,10.311 9.647,0 18.267,-4.108 23.607,-10.311 -5.34,-6.204 -13.96,-10.263 -23.607,-10.263 -9.648,0 -18.268,4.059 -23.607,10.263 z"
   style="fill:#0b1521"
   id="path1067" />
            <path
   d="M 8.404,31.543 C 13.743,25.339 22.363,21.28 32.011,21.28 c 9.647,0 18.267,4.059 23.607,10.263 -5.34,6.203 -13.96,10.311 -23.607,10.311 -9.648,0 -18.268,-4.108 -23.607,-10.311 z m 2.724,0 c 5.036,5.062 12.555,8.311 20.883,8.311 8.328,0 15.847,-3.249 20.883,-8.311 -5.036,-5.055 -12.556,-8.263 -20.883,-8.263 -8.327,0 -15.847,3.208 -20.883,8.263 z"
   style="fill:#729fcf"
   id="path1069" />
            <g
   transform="matrix(0.779233,2.17119e-8,0,0.785328,47.0426,22.2412)"
   id="g1073">
                <path
   d="m -26.118,5.664 c 1.697,-1.968 4.181,-3.103 6.792,-3.103 4.903,0 8.938,4.003 8.938,8.868 0,2.117 -0.764,4.165 -2.153,5.772 -1.697,1.968 -4.181,3.103 -6.792,3.103 -4.903,0 -8.938,-4.003 -8.938,-8.868 0,-2.116 0.764,-4.165 2.153,-5.772 z"
   style="fill:#ffffff;fill-rule:nonzero"
   id="path1071" />
            </g>
            <g
   transform="matrix(0.779233,2.17119e-8,0,0.785328,47.0426,22.2412)"
   id="g1077">
                <path
   d="m -26.118,5.664 c 1.697,-1.968 4.181,-3.103 6.792,-3.103 4.903,0 8.938,4.003 8.938,8.868 0,2.117 -0.764,4.165 -2.153,5.772 -1.697,1.968 -4.181,3.103 -6.792,3.103 -4.903,0 -8.938,-4.003 -8.938,-8.868 0,-2.116 0.764,-4.165 2.153,-5.772 z m 2.705,2.301 c -0.835,0.966 -1.295,2.198 -1.295,3.471 0,2.926 2.427,5.333 5.375,5.333 1.571,0 3.065,-0.683 4.087,-1.868 0.835,-0.967 1.295,-2.199 1.295,-3.472 0,-2.926 -2.426,-5.333 -5.375,-5.333 -1.57,0 -3.065,0.683 -4.087,1.869 z"
   style="fill:#0b1521"
   id="path1075" />
            </g>
            <g
   transform="matrix(0.779233,2.17119e-8,0,0.785328,47.0426,22.2412)"
   id="g1081">
                <path
   d="m -28.824,3.365 c 2.373,-2.752 5.847,-4.339 9.498,-4.339 6.858,0 12.501,5.599 12.501,12.403 0,2.96 -1.068,5.824 -3.01,8.071 -2.373,2.753 -5.847,4.34 -9.498,4.34 -6.857,0 -12.5,-5.6 -12.5,-12.404 0,-2.959 1.067,-5.824 3.009,-8.071 z m 2.706,2.299 c -1.389,1.607 -2.153,3.656 -2.153,5.772 0,4.865 4.035,8.868 8.938,8.868 2.611,0 5.095,-1.135 6.792,-3.103 1.389,-1.607 2.153,-3.655 2.153,-5.772 0,-4.865 -4.035,-8.868 -8.938,-8.868 -2.611,0 -5.095,1.135 -6.792,3.103 z"
   style="fill:#729fcf"
   id="path1079" />
            </g>
            <g
   transform="matrix(-0.752988,0.658035,0.476581,0.545351,33.8847,-13.7571)"
   id="g1085">
                <path
   d="m 36.327,4.981 c -0.002,-0.552 0.444,-1.002 0.996,-1.004 0.552,-0.002 1.002,0.444 1.004,0.996 l 0.04,10.333 c 0.002,0.552 -0.444,1.002 -0.996,1.004 -0.552,0.002 -1.002,-0.444 -1.004,-0.996 z"
   style="fill:#729fcf"
   id="path1083" />
            </g>
            <g
   transform="matrix(-0.752988,0.658035,0.476581,0.545351,33.8847,-13.7571)"
   id="g1089">
                <path
   d="m 34.327,4.996 0.04,10.333 c 0.007,1.808 1.202,3.75 3.01,3.743 1.814,-0.008 2.997,-1.966 2.99,-3.781 L 40.327,4.958 C 40.32,3.15 39.125,1.209 37.317,1.216 35.503,1.223 34.32,3.182 34.327,4.996 Z m 2,-0.015 c -0.002,-0.552 0.444,-1.002 0.996,-1.004 0.552,-0.002 1.002,0.444 1.004,0.996 l 0.04,10.333 c 0.002,0.552 -0.444,1.002 -0.996,1.004 -0.552,0.002 -1.002,-0.444 -1.004,-0.996 z"
   style="fill:#0b1521"
   id="path1087" />
            </g>
            <g
   transform="matrix(-0.956254,0.292538,0.211871,0.692566,57.778,-6.76222)"
   id="g1093">
                <path
   d="m 36.327,4.981 c -0.002,-0.552 0.444,-1.002 0.996,-1.004 0.552,-0.002 1.002,0.444 1.004,0.996 l 0.04,10.333 c 0.002,0.552 -0.444,1.002 -0.996,1.004 -0.552,0.002 -1.002,-0.444 -1.004,-0.996 z"
   style="fill:#729fcf"
   id="path1091" />
            </g>
            <g
   transform="matrix(-0.956254,0.292538,0.211871,0.692566,57.778,-6.76222)"
   id="g1097">
                <path
   d="m 34.327,4.996 0.04,10.333 c 0.007,1.808 1.202,3.75 3.01,3.743 1.814,-0.008 2.997,-1.966 2.99,-3.781 L 40.327,4.958 C 40.32,3.15 39.125,1.209 37.317,1.216 35.503,1.223 34.32,3.182 34.327,4.996 Z m 2,-0.015 c -0.002,-0.552 0.444,-1.002 0.996,-1.004 0.552,-0.002 1.002,0.444 1.004,0.996 l 0.04,10.333 c 0.002,0.552 -0.444,1.002 -0.996,1.004 -0.552,0.002 -1.002,-0.444 -1.004,-0.996 z"
   style="fill:#0b1521"
   id="path1095" />
            </g>
            <g
   transform="matrix(0.752988,0.658035,-0.476581,0.545351,30.5135,-13.7571)"
   id="g1101">
                <path
   d="m 36.327,4.981 c -0.002,-0.552 0.444,-1.002 0.996,-1.004 0.552,-0.002 1.002,0.444 1.004,0.996 l 0.04,10.333 c 0.002,0.552 -0.444,1.002 -0.996,1.004 -0.552,0.002 -1.002,-0.444 -1.004,-0.996 z"
   style="fill:#729fcf"
   id="path1099" />
            </g>
            <g
   transform="matrix(0.752988,0.658035,-0.476581,0.545351,30.5135,-13.7571)"
   id="g1105">
                <path
   d="m 34.327,4.996 c -0.007,-1.814 1.176,-3.773 2.99,-3.78 1.808,-0.007 3.003,1.934 3.01,3.742 l 0.04,10.333 c 0.007,1.815 -1.176,3.773 -2.99,3.781 -1.808,0.007 -3.003,-1.935 -3.01,-3.743 z m 2,-0.015 0.04,10.333 c 0.002,0.552 0.452,0.998 1.004,0.996 0.552,-0.002 0.998,-0.452 0.996,-1.004 L 38.327,4.973 C 38.325,4.421 37.875,3.975 37.323,3.977 36.771,3.979 36.325,4.429 36.327,4.981 Z"
   style="fill:#0b1521"
   id="path1103" />
            </g>
            <g
   transform="matrix(0.956254,0.292538,-0.211871,0.692566,6.62032,-6.76222)"
   id="g1109">
                <path
   d="m 36.327,4.981 c -0.002,-0.552 0.444,-1.002 0.996,-1.004 0.552,-0.002 1.002,0.444 1.004,0.996 l 0.04,10.333 c 0.002,0.552 -0.444,1.002 -0.996,1.004 -0.552,0.002 -1.002,-0.444 -1.004,-0.996 z"
   style="fill:#729fcf"
   id="path1107" />
            </g>
            <g
   transform="matrix(0.956254,0.292538,-0.211871,0.692566,6.62032,-6.76222)"
   id="g1113">
                <path
   d="m 34.327,4.996 c -0.007,-1.814 1.176,-3.773 2.99,-3.78 1.808,-0.007 3.003,1.934 3.01,3.742 l 0.04,10.333 c 0.007,1.815 -1.176,3.773 -2.99,3.781 -1.808,0.007 -3.003,-1.935 -3.01,-3.743 z m 2,-0.015 0.04,10.333 c 0.002,0.552 0.452,0.998 1.004,0.996 0.552,-0.002 0.998,-0.452 0.996,-1.004 L 38.327,4.973 C 38.325,4.421 37.875,3.975 37.323,3.977 36.771,3.979 36.325,4.429 36.327,4.981 Z"
   style="fill:#0b1521"
   id="path1111" />
            </g>
            <g
   transform="matrix(-0.752988,-0.658035,0.476581,-0.545351,33.8847,77.7572)"
   id="g1117">
                <path
   d="m 36.327,4.981 c -0.002,-0.552 0.444,-1.002 0.996,-1.004 0.552,-0.002 1.002,0.444 1.004,0.996 l 0.04,10.333 c 0.002,0.552 -0.444,1.002 -0.996,1.004 -0.552,0.002 -1.002,-0.444 -1.004,-0.996 z"
   style="fill:#729fcf"
   id="path1115" />
            </g>
            <g
   transform="matrix(-0.752988,-0.658035,0.476581,-0.545351,33.8847,77.7572)"
   id="g1121">
                <path
   d="m 34.327,4.996 c -0.007,-1.814 1.176,-3.773 2.99,-3.78 1.808,-0.007 3.003,1.934 3.01,3.742 l 0.04,10.333 c 0.007,1.815 -1.176,3.773 -2.99,3.781 -1.808,0.007 -3.003,-1.935 -3.01,-3.743 z m 2,-0.015 0.04,10.333 c 0.002,0.552 0.452,0.998 1.004,0.996 0.552,-0.002 0.998,-0.452 0.996,-1.004 L 38.327,4.973 C 38.325,4.421 37.875,3.975 37.323,3.977 36.771,3.979 36.325,4.429 36.327,4.981 Z"
   style="fill:#0b1521"
   id="path1119" />
            </g>
            <g
   transform="matrix(-0.956254,-0.292538,0.211871,-0.692566,57.778,70.7623)"
   id="g1125">
                <path
   d="m 36.327,4.981 c -0.002,-0.552 0.444,-1.002 0.996,-1.004 0.552,-0.002 1.002,0.444 1.004,0.996 l 0.04,10.333 c 0.002,0.552 -0.444,1.002 -0.996,1.004 -0.552,0.002 -1.002,-0.444 -1.004,-0.996 z"
   style="fill:#729fcf"
   id="path1123" />
            </g>
            <g
   transform="matrix(-0.956254,-0.292538,0.211871,-0.692566,57.778,70.7623)"
   id="g1129">
                <path
   d="m 34.327,4.996 c -0.007,-1.814 1.176,-3.773 2.99,-3.78 1.808,-0.007 3.003,1.934 3.01,3.742 l 0.04,10.333 c 0.007,1.815 -1.176,3.773 -2.99,3.781 -1.808,0.007 -3.003,-1.935 -3.01,-3.743 z m 2,-0.015 0.04,10.333 c 0.002,0.552 0.452,0.998 1.004,0.996 0.552,-0.002 0.998,-0.452 0.996,-1.004 L 38.327,4.973 C 38.325,4.421 37.875,3.975 37.323,3.977 36.771,3.979 36.325,4.429 36.327,4.981 Z"
   style="fill:#0b1521"
   id="path1127" />
            </g>
            <g
   transform="matrix(0.752988,-0.658035,-0.476581,-0.545351,30.5135,77.7572)"
   id="g1133">
                <path
   d="m 36.327,4.981 c -0.002,-0.552 0.444,-1.002 0.996,-1.004 0.552,-0.002 1.002,0.444 1.004,0.996 l 0.04,10.333 c 0.002,0.552 -0.444,1.002 -0.996,1.004 -0.552,0.002 -1.002,-0.444 -1.004,-0.996 z"
   style="fill:#729fcf"
   id="path1131" />
            </g>
            <g
   transform="matrix(0.752988,-0.658035,-0.476581,-0.545351,30.5135,77.7572)"
   id="g1137">
                <path
   d="m 34.327,4.996 0.04,10.333 c 0.007,1.808 1.202,3.75 3.01,3.743 1.814,-0.008 2.997,-1.966 2.99,-3.781 L 40.327,4.958 C 40.32,3.15 39.125,1.209 37.317,1.216 35.503,1.223 34.32,3.182 34.327,4.996 Z m 2,-0.015 c -0.002,-0.552 0.444,-1.002 0.996,-1.004 0.552,-0.002 1.002,0.444 1.004,0.996 l 0.04,10.333 c 0.002,0.552 -0.444,1.002 -0.996,1.004 -0.552,0.002 -1.002,-0.444 -1.004,-0.996 z"
   style="fill:#0b1521"
   id="path1135" />
            </g>
            <g
   transform="matrix(0.956254,-0.292538,-0.211871,-0.692566,6.62032,70.7623)"
   id="g1141">
                <path
   d="m 36.327,4.981 c -0.002,-0.552 0.444,-1.002 0.996,-1.004 0.552,-0.002 1.002,0.444 1.004,0.996 l 0.04,10.333 c 0.002,0.552 -0.444,1.002 -0.996,1.004 -0.552,0.002 -1.002,-0.444 -1.004,-0.996 z"
   style="fill:#729fcf"
   id="path1139" />
            </g>
            <g
   transform="matrix(0.956254,-0.292538,-0.211871,-0.692566,6.62032,70.7623)"
   id="g1145">
                <path
   d="m 34.327,4.996 0.04,10.333 c 0.007,1.808 1.202,3.75 3.01,3.743 1.814,-0.008 2.997,-1.966 2.99,-3.781 L 40.327,4.958 C 40.32,3.15 39.125,1.209 37.317,1.216 35.503,1.223 34.32,3.182 34.327,4.996 Z m 2,-0.015 c -0.002,-0.552 0.444,-1.002 0.996,-1.004 0.552,-0.002 1.002,0.444 1.004,0.996 l 0.04,10.333 c 0.002,0.552 -0.444,1.002 -0.996,1.004 -0.552,0.002 -1.002,-0.444 -1.004,-0.996 z"
   style="fill:#0b1521"
   id="path1143" />
            </g>
        </g>
    </g>
    <defs
   id="defs1156">
        <radialGradient
   id="_Radial1"
   cx="0"
   cy="0"
   r="1"
   gradientUnits="userSpaceOnUse"
   gradientTransform="matrix(18.0564,18.9592,-36.5934,34.8509,20.8025,18.627)"><stop
     offset="0"
     style="stop-color:rgb(114,159,207);stop-opacity:1"
     id="stop1151" /><stop
     offset="1"
     style="stop-color:rgb(32,74,135);stop-opacity:1"
     id="stop1153" /></radialGradient>
    </defs>
</svg>
