<?xml version="1.0" encoding="UTF-8" standalone="no"?>
<!DOCTYPE svg PUBLIC "-//W3C//DTD SVG 1.1//EN" "http://www.w3.org/Graphics/SVG/1.1/DTD/svg11.dtd">
<svg width="100%" height="100%" viewBox="0 0 64 64" version="1.1" xmlns="http://www.w3.org/2000/svg" xmlns:xlink="http://www.w3.org/1999/xlink" xml:space="preserve" xmlns:serif="http://www.serif.com/" style="fill-rule:evenodd;clip-rule:evenodd;">
    <g transform="matrix(2.29751,0,0,2.10229,-102.787,-43.4679)">
        <path id="path3057" d="M53.507,27.518L57.187,26.638L57.187,45.718L53.947,45.718C52.107,45.718 51.267,45.798 51.267,47.078C51.267,47.998 51.787,48.478 52.827,48.478L64.507,48.478C65.547,48.478 66.067,47.998 66.067,47.078C66.067,45.798 65.227,45.718 63.387,45.718L60.267,45.718L60.267,24.598C60.267,23.798 59.947,23.318 59.467,23.318C59.227,23.318 58.947,23.358 58.627,23.438L52.827,24.998C51.987,25.238 51.547,25.718 51.547,26.358C51.547,27.078 52.067,27.598 52.907,27.598C53.107,27.598 53.307,27.558 53.507,27.518Z" style="fill:rgb(211,215,207);fill-rule:nonzero;stroke:rgb(46,52,54);stroke-width:0.91px;"/>
    </g>
</svg>
