<?xml version="1.0" encoding="UTF-8" standalone="no"?>
<svg
   width="32"
   height="32"
   viewBox="0 0 32 32"
   version="1.1"
   xml:space="preserve"
   style="clip-rule:evenodd;fill-rule:evenodd;stroke-linecap:round;stroke-linejoin:round;stroke-miterlimit:1.5"
   id="svg1702"
   sodipodi:docname="nodes_python.svg"
   inkscape:version="1.1.2 (b8e25be833, 2022-02-05)"
   xmlns:inkscape="http://www.inkscape.org/namespaces/inkscape"
   xmlns:sodipodi="http://sodipodi.sourceforge.net/DTD/sodipodi-0.dtd"
   xmlns="http://www.w3.org/2000/svg"
   xmlns:svg="http://www.w3.org/2000/svg"
   xmlns:serif="http://www.serif.com/"><sodipodi:namedview
   id="namedview1704"
   pagecolor="#ffffff"
   bordercolor="#666666"
   borderopacity="1.0"
   inkscape:pageshadow="2"
   inkscape:pageopacity="0.0"
   inkscape:pagecheckerboard="0"
   showgrid="false"
   inkscape:zoom="12.625"
   inkscape:cx="31.960396"
   inkscape:cy="32.039604"
   inkscape:window-width="1920"
   inkscape:window-height="1001"
   inkscape:window-x="-9"
   inkscape:window-y="-9"
   inkscape:window-maximized="1"
   inkscape:current-layer="svg1702" />
    <g
   id="Layer-1"
   serif:id="Layer 1"
   transform="matrix(0.53461434,0,0,0.53461434,-1.0018052,-1.1184848)">
        <path
   d="m 31.462,1.879 c -2.47,0.011 -4.828,0.222 -6.903,0.589 -6.113,1.08 -7.223,3.341 -7.223,7.509 v 5.506 h 14.445 v 1.835 H 11.915 c -4.198,0 -7.874,2.523 -9.024,7.323 -1.327,5.503 -1.385,8.936 0,14.681 1.027,4.277 3.479,7.324 7.677,7.324 h 4.967 v -6.6 c 0,-4.768 4.125,-8.973 9.024,-8.973 h 14.428 c 4.017,0 7.223,-3.307 7.223,-7.341 V 9.977 C 46.21,6.062 42.907,3.122 38.987,2.468 36.506,2.055 33.931,1.867 31.462,1.879 Z"
   style="fill:url(#_Linear1);fill-rule:nonzero"
   id="path1671" />
        <path
   d="m 31.462,1.879 c 2.469,-0.012 5.044,0.176 7.525,0.589 3.92,0.654 7.223,3.594 7.223,7.509 v 13.755 c 0,4.034 -3.206,7.341 -7.223,7.341 H 24.559 c -4.899,0 -9.024,4.205 -9.024,8.973 v 6.6 h -4.967 c -4.198,0 -6.65,-3.047 -7.677,-7.324 -1.385,-5.745 -1.327,-9.178 0,-14.681 1.15,-4.8 4.826,-7.323 9.024,-7.323 H 31.781 V 15.483 H 17.336 V 9.977 c 0,-4.168 1.11,-6.429 7.223,-7.509 2.075,-0.367 4.433,-0.578 6.903,-0.589 z m 0.009,2 c -2.348,0.011 -4.591,0.21 -6.564,0.559 -2.42,0.427 -3.905,0.957 -4.73,1.924 -0.76,0.891 -0.841,2.094 -0.841,3.615 v 3.506 h 12.445 c 1.105,0 2,0.895 2,2 v 1.835 c 0,1.104 -0.895,2 -2,2 H 11.915 c -3.304,0 -6.174,2.012 -7.079,5.789 L 4.835,25.11 c -1.242,5.151 -1.297,8.365 0,13.744 l 0.001,10e-4 c 0.788,3.285 2.508,5.791 5.732,5.791 h 2.967 v -4.6 c 0,-5.827 5.036,-10.973 11.024,-10.973 h 14.428 c 2.914,0 5.223,-2.415 5.223,-5.341 V 9.977 c 0,-2.946 -2.602,-5.044 -5.551,-5.536 -2.37,-0.394 -4.83,-0.573 -7.188,-0.562 z"
   style="fill:#11142a"
   id="path1673" />
        <g
   transform="matrix(0.90697,0,0,0.90697,2.49965,0.863188)"
   id="g1677">
            <circle
   cx="23.306999"
   cy="9.0480003"
   r="2.9979999"
   style="fill:#ffffff;stroke:#11142a;stroke-width:2.21px"
   id="circle1675" />
        </g>
        <g
   transform="rotate(180,31.802,32.02025)"
   id="g1681">
            <path
   d="m 31.462,1.879 c 2.469,-0.012 5.044,0.176 7.525,0.589 3.92,0.654 7.223,3.594 7.223,7.509 v 13.755 c 0,4.034 -3.206,7.341 -7.223,7.341 H 24.559 c -4.899,0 -9.024,4.205 -9.024,8.973 v 6.6 h -4.967 c -4.198,0 -6.65,-3.047 -7.677,-7.324 -1.385,-5.745 -1.327,-9.178 0,-14.681 1.15,-4.8 4.826,-7.323 9.024,-7.323 H 31.781 V 15.483 H 17.336 V 9.977 c 0,-4.168 1.11,-6.429 7.223,-7.509 2.075,-0.367 4.433,-0.578 6.903,-0.589 z m 0.009,2 c -2.348,0.011 -4.591,0.21 -6.564,0.559 -2.42,0.427 -3.905,0.957 -4.73,1.924 -0.76,0.891 -0.841,2.094 -0.841,3.615 v 3.506 h 12.445 c 1.105,0 2,0.895 2,2 v 1.835 c 0,1.104 -0.895,2 -2,2 H 11.915 c -3.304,0 -6.174,2.012 -7.079,5.789 L 4.835,25.11 c -1.242,5.151 -1.297,8.365 0,13.744 l 0.001,10e-4 c 0.788,3.285 2.508,5.791 5.732,5.791 h 2.967 v -4.6 c 0,-5.827 5.036,-10.973 11.024,-10.973 h 14.428 c 2.914,0 5.223,-2.415 5.223,-5.341 V 9.977 c 0,-2.946 -2.602,-5.044 -5.551,-5.536 -2.37,-0.394 -4.83,-0.573 -7.188,-0.562 z"
   style="fill:#11142a"
   id="path1679" />
        </g>
        <path
   d="m 32.133,60.161 c 2.348,-0.01 4.591,-0.21 6.564,-0.558 2.42,-0.427 3.905,-0.957 4.73,-1.924 0.76,-0.892 0.841,-2.094 0.841,-3.615 V 50.558 H 31.823 c -1.105,0 -2,-0.896 -2,-2 v -1.836 c 0,-1.103 0.895,-2 2,-2 h 19.866 c 3.304,0 6.174,-2.012 7.079,-5.789 l 10e-4,-0.003 c 1.242,-5.15 1.297,-8.365 0,-13.744 L 58.768,25.185 C 57.98,21.9 56.26,19.394 53.036,19.394 h -2.967 v 4.6 c 0,5.827 -5.036,10.974 -11.024,10.974 H 24.617 c -2.914,0 -5.223,2.415 -5.223,5.341 v 13.755 c 0,2.946 2.602,5.044 5.551,5.536 2.37,0.393 4.83,0.573 7.188,0.561 z"
   style="fill:url(#_Linear2)"
   id="path1683" />
        <g
   transform="matrix(0.90697,0,0,0.90697,18.7935,46.7039)"
   id="g1687">
            <circle
   cx="23.306999"
   cy="9.0480003"
   r="2.9979999"
   style="fill:#ffffff;stroke:#11142a;stroke-width:2.21px"
   id="circle1685" />
        </g>
    </g>
    <defs
   id="defs1700">
        <linearGradient
   id="_Linear1"
   x1="0"
   y1="0"
   x2="1"
   y2="0"
   gradientUnits="userSpaceOnUse"
   gradientTransform="matrix(33.0397,28.7007,-28.7007,33.0397,1.87387,1.87847)"><stop
     offset="0"
     style="stop-color:rgb(90,159,212);stop-opacity:1"
     id="stop1690" /><stop
     offset="1"
     style="stop-color:rgb(48,105,152);stop-opacity:1"
     id="stop1692" /></linearGradient>
        <linearGradient
   id="_Linear2"
   x1="0"
   y1="0"
   x2="1"
   y2="0"
   gradientUnits="userSpaceOnUse"
   gradientTransform="matrix(16.8696,21.735,-21.735,16.8696,33.4197,26.3282)"><stop
     offset="0"
     style="stop-color:rgb(255,212,58);stop-opacity:1"
     id="stop1695" /><stop
     offset="1"
     style="stop-color:rgb(255,232,116);stop-opacity:1"
     id="stop1697" /></linearGradient>
    </defs>
</svg>
