<?xml version="1.0" encoding="UTF-8" standalone="no"?>
<svg
   width="32"
   height="32"
   viewBox="0 0 32 32"
   version="1.1"
   xml:space="preserve"
   style="clip-rule:evenodd;fill-rule:evenodd;stroke-linejoin:round;stroke-miterlimit:2"
   id="svg3568"
   sodipodi:docname="nodes_text.svg"
   inkscape:version="1.1.2 (b8e25be833, 2022-02-05)"
   xmlns:inkscape="http://www.inkscape.org/namespaces/inkscape"
   xmlns:sodipodi="http://sodipodi.sourceforge.net/DTD/sodipodi-0.dtd"
   xmlns="http://www.w3.org/2000/svg"
   xmlns:svg="http://www.w3.org/2000/svg"
   xmlns:serif="http://www.serif.com/"><sodipodi:namedview
   id="namedview3570"
   pagecolor="#ffffff"
   bordercolor="#666666"
   borderopacity="1.0"
   inkscape:pageshadow="2"
   inkscape:pageopacity="0.0"
   inkscape:pagecheckerboard="0"
   showgrid="false"
   inkscape:zoom="3.0262172"
   inkscape:cx="133.33478"
   inkscape:cy="107.22958"
   inkscape:window-width="1920"
   inkscape:window-height="1001"
   inkscape:window-x="-9"
   inkscape:window-y="-9"
   inkscape:window-maximized="1"
   inkscape:current-layer="svg3568" />
    <g
   transform="matrix(0.55172559,0,0,0.55172559,-0.55103116,-1.1036709)"
   id="g3559">
        <g
   transform="matrix(0.16492,0,0,0.16492,-643.717,-232.014)"
   id="g3557">
            <g
   id="layer1">
                <g
   id="g3491">
                    <g
   id="text2714"
   transform="matrix(6.06353,0,0,6.06353,3903.2,1406.83)">
                        <path
   d="M 41,41 H 23 l -5.521,6.72 C 16.899,48.579 17.086,48.506 17,49 c 0,1 0.647,1.635 2,2 v 2 H 3 V 51 C 3.902,50.828 5.463,50.429 6,50 6.537,49.571 7,49 8,48 L 31,15 c 0.73,-1.074 0.871,-1.356 1,-2 0.215,-0.988 0.16,-1.57 -1,-2 V 9 h 16 v 2 c -2,0 -2.828,0.098 -3,1 -0.129,0.623 -0.108,1.04 0.15,1.834 l 9.953,33.886 c 0.43,1.439 0.467,1.743 0.897,2.28 0.429,0.515 1.141,0.828 2,1 v 2 H 41 v -2 c 1.482,-0.236 1.785,-0.905 2,-2 0.086,-0.451 0.258,-1.12 0,-2 z M 40.834,35.083 37,19 25,35 Z"
   style="fill:url(#_Radial1);fill-rule:nonzero"
   id="path3539" />
                    </g>
                    <g
   transform="matrix(6.06353,0,0,6.06353,3903.2,1406.83)"
   id="g3544">
                        <path
   d="M 41,41 H 23 l -5.521,6.72 C 16.899,48.579 17.086,48.506 17,49 c 0,1 0.647,1.635 2,2 v 2 H 3 V 51 C 3.902,50.828 5.463,50.429 6,50 6.537,49.571 7,49 8,48 L 31,15 c 0.73,-1.074 0.871,-1.356 1,-2 0.215,-0.988 0.16,-1.57 -1,-2 V 9 h 16 v 2 c -2,0 -2.828,0.098 -3,1 -0.129,0.623 -0.108,1.04 0.15,1.834 l 9.953,33.886 c 0.43,1.439 0.467,1.743 0.897,2.28 0.429,0.515 1.141,0.828 2,1 v 2 H 41 v -2 c 1.482,-0.236 1.785,-0.905 2,-2 0.086,-0.451 0.258,-1.12 0,-2 z M 7.867,51 h 7.64 C 15.157,50.419 15,49.747 15,49 c 0,-0.115 0.01,-0.229 0.03,-0.343 0.138,-0.796 -0.143,-0.671 0.792,-2.056 0.035,-0.052 0.072,-0.102 0.112,-0.15 L 21.455,39.73 C 21.835,39.268 22.402,39 23,39 h 18 c 0.861,0 1.625,0.551 1.897,1.368 l 2,6 c 0.008,0.023 0.016,0.047 0.023,0.07 0.378,1.293 0.171,2.274 0.045,2.936 -0.001,0.004 -0.002,0.007 -0.002,0.011 -0.123,0.627 -0.295,1.16 -0.542,1.615 h 8.827 C 52.837,50.431 52.68,49.944 52.187,48.292 l -0.003,-0.008 c 0,0 -9.946,-33.862 -9.944,-33.855 -0.392,-1.216 -0.398,-1.864 -0.205,-2.803 0.043,-0.225 0.099,-0.433 0.17,-0.626 h -8.352 c 0.004,0.011 0.009,0.023 0.014,0.034 0.259,0.635 0.299,1.405 0.091,2.373 -0.173,0.863 -0.321,1.272 -1.304,2.718 -0.004,0.006 -0.009,0.012 -0.013,0.019 l -23,33 C 9.573,49.24 9.498,49.331 9.414,49.414 8.719,50.11 8.26,50.609 7.867,51 Z"
   style="fill:#729fcf"
   id="path3542" />
                    </g>
                    <g
   id="text27141"
   serif:id="text2714"
   transform="matrix(6.06353,0,0,6.06353,3903.2,1406.83)">
                        <path
   d="M 40.824,37.083 24.99,37 C 24.234,36.996 23.545,36.567 23.209,35.89 22.873,35.213 22.947,34.405 23.4,33.8 l 12,-16 c 0.465,-0.62 1.247,-0.916 2.007,-0.758 0.759,0.157 1.359,0.74 1.538,1.494 l 3.835,16.083 c 0.142,0.597 0.002,1.227 -0.379,1.707 -0.382,0.481 -0.963,0.76 -1.577,0.757 z m 0.01,-2 L 37,19 25,35 Z"
   style="fill:#729fcf"
   id="path3546" />
                    </g>
                    <g
   id="text2714-7"
   transform="matrix(6.06353,0,0,6.06353,3903.2,1406.83)">
                        <path
   d="m 4.796,48.402 c 0.453,-0.374 0.855,-0.871 1.663,-1.688 0,0 22.895,-32.85 22.895,-32.85 0.414,-0.608 0.568,-0.801 0.655,-1.127 C 29.392,12.386 29,11.726 29,11 V 9 c 0,-1.105 0.895,-2 2,-2 h 16 c 1.105,0 2,0.895 2,2 v 2 c 0,1.105 -0.895,2 -2,2 -0.337,0 -0.703,0.017 -1.003,0.036 0.016,0.056 0.034,0.115 0.055,0.181 0.006,0.018 0.012,0.036 0.017,0.053 0,0 9.953,33.885 9.953,33.885 0.289,0.97 0.245,1.217 0.533,1.585 0.179,0.193 0.498,0.231 0.837,0.299 C 58.327,49.226 59,50.047 59,51 v 2 c 0,1.105 -0.895,2 -2,2 H 41 c -1.105,0 -2,-0.895 -2,-2 v -2 c 0,-0.983 0.714,-1.82 1.685,-1.975 0.085,-0.014 0.189,-0.041 0.266,-0.062 0.027,-0.098 0.065,-0.24 0.084,-0.337 0.045,-0.235 0.177,-0.58 0.053,-1.036 L 39.558,43 H 23.945 c 0,0 -4.703,5.725 -4.853,5.909 0.123,0.055 0.288,0.122 0.429,0.16 C 20.394,49.305 21,50.096 21,51 v 2 c 0,1.105 -0.895,2 -2,2 H 3 C 1.895,55 1,54.105 1,53 v -2 c 0,-0.96 0.682,-1.785 1.626,-1.965 0.598,-0.114 2.042,-0.591 2.17,-0.633 z M 41,41 l 2,6 c 0.258,0.88 0.086,1.549 0,2 -0.215,1.095 -0.518,1.764 -2,2 v 2 H 57 V 51 C 56.141,50.828 55.429,50.515 55,50 54.57,49.463 54.533,49.159 54.103,47.72 L 44.15,13.834 C 43.892,13.04 43.871,12.623 44,12 c 0.172,-0.902 1,-1 3,-1 V 9 H 31 v 2 c 1.16,0.43 1.215,1.012 1,2 -0.129,0.644 -0.27,0.926 -1,2 L 8,48 c -1,1 -1.463,1.571 -2,2 -0.537,0.429 -2.098,0.828 -3,1 v 2 h 16 v -2 c -1.353,-0.365 -2,-1 -2,-2 0.086,-0.494 -0.101,-0.421 0.479,-1.28 L 23,41 Z"
   style="fill:#0b1521"
   id="path3549" />
                    </g>
                    <g
   id="text2714-71"
   serif:id="text2714-7"
   transform="matrix(6.06353,0,0,6.06353,3903.2,1406.83)">
                        <path
   d="M 41.078,35.07 25,35 37,19 Z m -2.574,-2.012 -2.414,-9.512 -7.103,9.471 z"
   style="fill:#0b1521"
   id="path3552" />
                    </g>
                </g>
            </g>
        </g>
    </g>
    <defs
   id="defs3566">
        <radialGradient
   id="_Radial1"
   cx="0"
   cy="0"
   r="1"
   gradientUnits="userSpaceOnUse"
   gradientTransform="matrix(112.907,96.5983,-228.819,177.567,4017.36,1535)"><stop
     offset="0"
     style="stop-color:rgb(114,159,207);stop-opacity:1"
     id="stop3561" /><stop
     offset="1"
     style="stop-color:rgb(32,74,135);stop-opacity:1"
     id="stop3563" /></radialGradient>
    </defs>
</svg>
