<?xml version="1.0" encoding="UTF-8" standalone="no"?>
<!DOCTYPE svg PUBLIC "-//W3C//DTD SVG 1.1//EN" "http://www.w3.org/Graphics/SVG/1.1/DTD/svg11.dtd">
<svg width="100%" height="100%" viewBox="0 0 64 64" version="1.1" xmlns="http://www.w3.org/2000/svg" xmlns:xlink="http://www.w3.org/1999/xlink" xml:space="preserve" xmlns:serif="http://www.serif.com/" style="fill-rule:evenodd;clip-rule:evenodd;stroke-linecap:round;stroke-linejoin:round;">
    <g transform="matrix(1,0,0,1,60,0)">
        <g id="g3122">
            <g id="path2195" transform="matrix(-1.11579,-2.37639,2.00616,-1.3217,-206.271,2002.41)">
                <path d="M581.55,424.77L582.086,424.848L582.658,424.825L583.256,424.706L583.717,424.559L584.183,424.368L584.801,424.053L585.42,423.675L586.047,423.233L586.666,422.742L587.859,421.645L588.992,420.423L590.013,419.161L590.96,417.836L591.823,416.47L592.588,415.085L593.298,413.571L593.619,412.76L593.883,411.975L594.053,411.359L594.174,410.778L594.255,410.007L594.247,409.671L594.205,409.376L594.127,409.127L594.015,408.929L593.797,408.744L593.517,408.676" style="fill:none;fill-rule:nonzero;stroke:rgb(11,21,33);stroke-width:2.4px;"/>
            </g>
            <g id="path2197" transform="matrix(-1.11579,-2.37639,2.00616,-1.3217,-206.271,2002.41)">
                <path d="M593.517,408.676L593.314,408.694L593.093,408.756L592.607,409.005L592.082,409.404L591.669,409.792L591.249,410.243L590.411,411.299L589.601,412.512L588.838,413.837L588.01,415.518L587.285,417.278L586.684,419.084L586.425,420.042L586.21,420.997L586.06,421.846L585.954,422.682L585.901,423.381L585.886,424.062L585.93,424.933L586.054,425.748L586.266,426.487L586.428,426.867L586.621,427.212L586.925,427.612L587.283,427.936L587.69,428.178L588.107,428.325" style="fill:none;fill-rule:nonzero;stroke:rgb(11,21,33);stroke-width:2.4px;"/>
            </g>
            <g id="path2199" transform="matrix(-1.11579,-2.37639,2.00616,-1.3217,-206.271,2002.41)">
                <path d="M588.107,428.325L588.643,428.403L589.215,428.379L589.813,428.261L590.273,428.114L590.74,427.922L591.358,427.608L591.977,427.23L592.603,426.788L593.223,426.296L594.416,425.2L595.549,423.977L596.57,422.715L597.517,421.39L598.379,420.024L599.145,418.64L599.855,417.126L600.176,416.315L600.44,415.53L600.61,414.913L600.731,414.333L600.812,413.562L600.804,413.226L600.762,412.931L600.684,412.681L600.571,412.483L600.354,412.299L600.074,412.231" style="fill:none;fill-rule:nonzero;stroke:rgb(11,21,33);stroke-width:2.4px;"/>
            </g>
            <g id="path2201" transform="matrix(-1.11579,-2.37639,2.00616,-1.3217,-206.271,2002.41)">
                <path d="M600.074,412.231L599.871,412.248L599.65,412.31L599.164,412.56L598.639,412.959L598.226,413.347L597.806,413.798L596.968,414.854L596.158,416.067L595.395,417.392L594.567,419.073L593.842,420.833L593.241,422.638L592.982,423.596L592.767,424.551L592.617,425.4L592.511,426.237L592.458,426.935L592.443,427.616L592.487,428.488L592.611,429.302L592.823,430.042L592.985,430.422L593.178,430.767L593.482,431.167L593.84,431.491L594.247,431.732L594.663,431.879" style="fill:none;fill-rule:nonzero;stroke:rgb(11,21,33);stroke-width:2.4px;"/>
            </g>
            <g id="path2203" transform="matrix(-1.11579,-2.37639,2.00616,-1.3217,-206.271,2002.41)">
                <path d="M594.663,431.879L595.2,431.957L595.772,431.934L596.37,431.815L596.83,431.669L597.297,431.477L597.915,431.162L598.534,430.784L599.16,430.343L599.78,429.851L600.972,428.754L602.105,427.532L603.127,426.27L604.074,424.945L604.936,423.579L605.702,422.194L606.412,420.681" style="fill:none;fill-rule:nonzero;stroke:rgb(11,21,33);stroke-width:2.4px;"/>
            </g>
            <g id="path2199-5" transform="matrix(-1.11579,-2.37639,2.00616,-1.3217,-206.271,2002.41)">
                <path d="M588.107,428.325L588.643,428.403L589.215,428.379L589.813,428.261L590.273,428.114L590.74,427.922L591.358,427.608L591.977,427.23L592.603,426.788L593.223,426.296L594.416,425.2L595.549,423.977L596.57,422.715L597.517,421.39L598.379,420.024L599.145,418.64L599.855,417.126L600.176,416.315L600.44,415.53L600.61,414.913L600.731,414.333L600.812,413.562L600.804,413.226L600.762,412.931L600.684,412.681L600.571,412.483L600.354,412.299L600.074,412.231" style="fill:none;fill-rule:nonzero;stroke:white;stroke-width:0.74px;"/>
            </g>
            <g id="path2203-5" transform="matrix(-1.11579,-2.37639,2.00616,-1.3217,-206.271,2002.41)">
                <path d="M594.663,431.879L595.2,431.957L595.772,431.934L596.37,431.815L596.83,431.669L597.297,431.477L597.915,431.162L598.534,430.784L599.16,430.343L599.78,429.851L600.972,428.754L602.105,427.532L603.127,426.27L604.074,424.945L604.936,423.579L605.702,422.194L606.412,420.681" style="fill:none;fill-rule:nonzero;stroke:white;stroke-width:0.74px;"/>
            </g>
            <g id="path2199-51" serif:id="path2199-5" transform="matrix(-1.10208,-2.3472,1.95458,-1.28772,-192.864,1971.28)">
                <path d="M588.107,428.325L588.643,428.403L589.215,428.379L589.813,428.261L590.273,428.114L590.74,427.922L591.358,427.608L591.977,427.23L592.603,426.788L593.223,426.296L594.416,425.2L595.549,423.977L596.57,422.715L597.517,421.39L598.379,420.024L599.145,418.64L599.855,417.126L600.176,416.315L600.44,415.53L600.61,414.913L600.731,414.333L600.812,413.562L600.804,413.226L600.762,412.931L600.684,412.681L600.571,412.483L600.354,412.299L600.074,412.231" style="fill:none;fill-rule:nonzero;stroke:rgb(221,221,221);stroke-width:0.37px;"/>
            </g>
            <path id="path2201-2" d="M-15.564,32.418L-10.828,30.217L-9.445,29.353" style="fill:none;fill-rule:nonzero;stroke:rgb(11,21,33);stroke-width:6px;"/>
            <g id="path2195-2" transform="matrix(-1.11579,-2.37639,2.00616,-1.3217,-206.271,2002.41)">
                <path d="M581.55,424.77L582.086,424.848L582.658,424.825L583.256,424.706L583.717,424.559L584.183,424.368L584.801,424.053L585.42,423.675L586.047,423.233L586.666,422.742L587.859,421.645L588.992,420.423L590.013,419.161L590.96,417.836L591.823,416.47L592.588,415.085L593.298,413.571L593.619,412.76L593.883,411.975L594.053,411.359L594.174,410.778L594.255,410.007L594.247,409.671L594.205,409.376L594.127,409.127L594.015,408.929L593.797,408.744L593.517,408.676" style="fill:none;fill-rule:nonzero;stroke:rgb(11,21,33);stroke-width:2.4px;"/>
            </g>
            <g id="path2195-6-9" transform="matrix(-1.11579,-2.37639,2.00616,-1.3217,-206.271,2002.41)">
                <path d="M581.55,424.77L582.086,424.848L582.658,424.825L583.256,424.706L583.717,424.559L584.183,424.368L584.801,424.053L585.42,423.675L586.047,423.233L586.666,422.742L587.859,421.645L588.992,420.423L590.013,419.161L590.96,417.836L591.823,416.47L592.588,415.085L593.298,413.571L593.619,412.76L593.883,411.975L594.053,411.359L594.174,410.778L594.255,410.007L594.247,409.671L594.205,409.376L594.127,409.127L594.015,408.929L593.797,408.744L593.517,408.676" style="fill:none;fill-rule:nonzero;stroke:white;stroke-width:0.74px;"/>
            </g>
            <g id="path2195-6-91" serif:id="path2195-6-9" transform="matrix(-1.09495,-2.33201,1.95324,-1.28683,-196.331,1962.1)">
                <path d="M581.55,424.77L582.086,424.848L582.658,424.825L583.256,424.706L583.717,424.559L584.183,424.368L584.801,424.053L585.42,423.675L586.047,423.233L586.666,422.742L587.859,421.645L588.992,420.423L590.013,419.161L590.96,417.836L591.823,416.47L592.588,415.085L593.298,413.571L593.619,412.76L593.883,411.975L594.053,411.359L594.174,410.778L594.255,410.007L594.247,409.671L594.205,409.376L594.127,409.127L594.015,408.929L593.797,408.744L593.517,408.676" style="fill:none;fill-rule:nonzero;stroke:rgb(221,221,221);stroke-width:0.37px;"/>
            </g>
            <path id="path2201-2-6" d="M-15.378,52.697L-10.641,50.496L-9.258,49.632" style="fill:none;fill-rule:nonzero;stroke:rgb(11,21,33);stroke-width:6px;"/>
            <g id="path2203-51" serif:id="path2203-5" transform="matrix(-1.08906,-2.31947,1.98214,-1.30588,-212.435,1961.78)">
                <path d="M594.663,431.879L595.2,431.957L595.772,431.934L596.37,431.815L596.83,431.669L597.297,431.477L597.915,431.162L598.534,430.784L599.16,430.343L599.78,429.851L600.972,428.754L602.105,427.532L603.127,426.27L604.074,424.945L604.936,423.579L605.702,422.194L606.412,420.681" style="fill:none;fill-rule:nonzero;stroke:rgb(221,221,221);stroke-width:0.37px;"/>
            </g>
            <g id="path3130-6-3" transform="matrix(1,0,0,1,-52,-30)">
                <path d="M22,35L22,88.806" style="fill:none;fill-rule:nonzero;stroke:rgb(40,0,0);stroke-width:6px;stroke-linejoin:miter;"/>
            </g>
            <g id="path3130-2-1-1" transform="matrix(1,0,0,1,-52,-30)">
                <path d="M22,35L22,89" style="fill:none;fill-rule:nonzero;stroke:rgb(239,41,41);stroke-width:2px;stroke-linejoin:miter;"/>
            </g>
            <g id="path2197-78" transform="matrix(-1.11579,-2.37639,2.00616,-1.3217,-205.75,2002.53)">
                <path d="M588.838,413.837L588.01,415.518" style="fill:none;fill-rule:nonzero;stroke:rgb(11,21,33);stroke-width:2.4px;"/>
            </g>
            <g id="path2201-5" transform="matrix(-1.11579,-2.37639,2.00616,-1.3217,-205.75,2002.53)">
                <path d="M596.968,414.854L596.158,416.067L595.395,417.392L594.567,419.073" style="fill:none;fill-rule:nonzero;stroke:rgb(11,21,33);stroke-width:2.4px;"/>
            </g>
            <g id="path3130-6-9" transform="matrix(1,0,0,1,-42,-35)">
                <path d="M26,43L12,53" style="fill:none;fill-rule:nonzero;stroke:rgb(40,0,0);stroke-width:6px;stroke-linecap:butt;stroke-linejoin:miter;"/>
            </g>
            <g id="path3130-2-1-2" transform="matrix(1,0,0,1,-42,-35)">
                <path d="M26,43L12,53" style="fill:none;fill-rule:nonzero;stroke:rgb(239,41,41);stroke-width:2px;stroke-linecap:butt;stroke-linejoin:miter;"/>
            </g>
            <g id="path4250-71-6-49-2-9-3" transform="matrix(0.561379,1.56418e-08,0,0.56577,-19.1295,11.5124)">
                <path d="M-26.118,5.664C-24.421,3.696 -21.937,2.561 -19.326,2.561C-14.423,2.561 -10.388,6.564 -10.388,11.429C-10.388,13.546 -11.152,15.594 -12.541,17.201C-14.238,19.169 -16.722,20.304 -19.333,20.304C-24.236,20.304 -28.271,16.301 -28.271,11.436C-28.271,9.32 -27.507,7.271 -26.118,5.664Z" style="fill:rgb(239,41,41);fill-rule:nonzero;stroke:rgb(40,0,0);stroke-width:3.55px;stroke-linecap:butt;stroke-linejoin:miter;"/>
            </g>
            <g id="path4250-7-3-2-5-7-2-7" transform="matrix(0.561379,1.56418e-08,0,0.56577,-19.1295,11.5124)">
                <path d="M-23.402,7.974C-22.388,6.797 -20.902,6.118 -19.341,6.118C-16.409,6.118 -13.997,8.512 -13.997,11.421C-13.997,12.687 -14.454,13.912 -15.284,14.873C-16.299,16.047 -17.782,16.723 -19.341,16.723C-22.273,16.723 -24.685,14.33 -24.685,11.421C-24.685,10.157 -24.23,8.935 -23.402,7.974Z" style="fill:url(#_Linear1);fill-rule:nonzero;stroke:rgb(239,41,41);stroke-width:3.55px;stroke-linecap:butt;stroke-linejoin:miter;"/>
            </g>
            <g id="path4250-71-6-49-2-9-3-1" transform="matrix(0.561379,1.56418e-08,0,0.56577,-5.12946,1.51236)">
                <path d="M-26.118,5.664C-24.421,3.696 -21.937,2.561 -19.326,2.561C-14.423,2.561 -10.388,6.564 -10.388,11.429C-10.388,13.546 -11.152,15.594 -12.541,17.201C-14.238,19.169 -16.722,20.304 -19.333,20.304C-24.236,20.304 -28.271,16.301 -28.271,11.436C-28.271,9.32 -27.507,7.271 -26.118,5.664Z" style="fill:rgb(239,41,41);fill-rule:nonzero;stroke:rgb(40,0,0);stroke-width:3.55px;stroke-linecap:butt;stroke-linejoin:miter;"/>
            </g>
            <g id="path4250-7-3-2-5-7-2-7-2" transform="matrix(0.561379,1.56418e-08,0,0.56577,-5.12946,1.51236)">
                <path d="M-23.402,7.974C-22.388,6.797 -20.902,6.118 -19.341,6.118C-16.409,6.118 -13.997,8.512 -13.997,11.421C-13.997,12.687 -14.454,13.912 -15.284,14.873C-16.299,16.047 -17.782,16.723 -19.341,16.723C-22.273,16.723 -24.685,14.33 -24.685,11.421C-24.685,10.157 -24.23,8.935 -23.402,7.974Z" style="fill:url(#_Linear2);fill-rule:nonzero;stroke:rgb(239,41,41);stroke-width:3.55px;stroke-linecap:butt;stroke-linejoin:miter;"/>
            </g>
            <g id="path3130-6" transform="matrix(1,0,0,1,-72,-6)">
                <path d="M22,36L22,57" style="fill:none;fill-rule:nonzero;stroke:rgb(40,0,0);stroke-width:6px;stroke-linecap:butt;stroke-linejoin:miter;"/>
            </g>
            <g id="path3130-2-1" transform="matrix(1,0,0,1,-72,-6)">
                <path d="M22,36L22,57" style="fill:none;fill-rule:nonzero;stroke:rgb(239,41,41);stroke-width:2px;stroke-linecap:butt;stroke-linejoin:miter;"/>
            </g>
            <path id="path2201-3-0-1" d="M-48.638,51.832L-48.377,52.292L-48.006,52.735L-46.962,53.56L-45.576,54.28L-44.337,54.748L-42.963,55.15L-39.91,55.746L-36.573,56.068L-33.063,56.13L-28.767,55.876L-24.427,55.272L-20.135,54.315L-17.925,53.664L-15.769,52.913L-13.898,52.147L-12.101,51.293L-10.641,50.496L-9.258,49.632L-7.558,48.375L-6.063,47.004L-4.815,45.522L-4.234,44.635L-3.757,43.72L-3.294,42.469L-3.043,41.19L-3.014,39.905L-3.183,38.722" style="fill:none;fill-rule:nonzero;stroke:white;stroke-width:2px;stroke-linecap:butt;"/>
            <g id="path2201-3-0" transform="matrix(-1.11579,-2.37639,2.00616,-1.3217,-206.271,2002.41)">
                <path d="M600.074,412.231L599.871,412.248L599.65,412.31L599.164,412.56L598.639,412.959L598.226,413.347L597.806,413.798L596.968,414.854L596.158,416.067L595.395,417.392L594.567,419.073L593.842,420.833L593.241,422.638L592.982,423.596L592.767,424.551L592.617,425.4L592.511,426.237L592.458,426.935L592.443,427.616L592.487,428.488L592.611,429.302L592.823,430.042L592.985,430.422L593.178,430.767L593.482,431.167L593.84,431.491L594.247,431.732L594.663,431.879" style="fill:none;fill-rule:nonzero;stroke:white;stroke-width:0.74px;"/>
            </g>
            <g id="path2201-3-0-11" serif:id="path2201-3-0-1" transform="matrix(0.976285,0,3.88578e-16,0.945838,-0.782478,2.39045)">
                <path d="M-48.638,51.832L-48.377,52.292L-48.006,52.735L-46.962,53.56L-45.576,54.28L-44.337,54.748L-42.963,55.15L-39.91,55.746L-36.573,56.068L-33.063,56.13L-28.767,55.876L-24.427,55.272L-20.135,54.315L-17.925,53.664L-15.769,52.913L-13.898,52.147L-12.101,51.293L-10.641,50.496L-9.258,49.632L-7.558,48.375L-6.063,47.004L-4.815,45.522L-4.234,44.635L-3.757,43.72L-3.294,42.469L-3.043,41.19L-3.014,39.905L-3.183,38.722" style="fill:none;fill-rule:nonzero;stroke:rgb(221,221,221);stroke-width:1px;"/>
            </g>
            <g id="path4250-71-6-49-2" transform="matrix(0.561379,1.56418e-08,0,0.56577,-39.1295,43.5124)">
                <path d="M-26.118,5.664C-24.421,3.696 -21.937,2.561 -19.326,2.561C-14.423,2.561 -10.388,6.564 -10.388,11.429C-10.388,13.546 -11.152,15.594 -12.541,17.201C-14.238,19.169 -16.722,20.304 -19.333,20.304C-24.236,20.304 -28.271,16.301 -28.271,11.436C-28.271,9.32 -27.507,7.271 -26.118,5.664Z" style="fill:rgb(239,41,41);fill-rule:nonzero;stroke:rgb(40,0,0);stroke-width:3.55px;stroke-linecap:butt;stroke-linejoin:miter;"/>
            </g>
            <g id="path4250-7-3-2-5-7" transform="matrix(0.561379,1.56418e-08,0,0.56577,-39.1295,43.5124)">
                <path d="M-23.402,7.974C-22.388,6.797 -20.902,6.118 -19.341,6.118C-16.409,6.118 -13.997,8.512 -13.997,11.421C-13.997,12.687 -14.454,13.912 -15.284,14.873C-16.299,16.047 -17.782,16.723 -19.341,16.723C-22.273,16.723 -24.685,14.33 -24.685,11.421C-24.685,10.157 -24.23,8.935 -23.402,7.974Z" style="fill:url(#_Linear3);fill-rule:nonzero;stroke:rgb(239,41,41);stroke-width:3.55px;stroke-linecap:butt;stroke-linejoin:miter;"/>
            </g>
            <g id="path2201-3-01" serif:id="path2201-3-0" transform="matrix(-1.11579,-2.37639,1.9783,-1.30334,-195.086,1993.9)">
                <path d="M600.074,412.231L599.871,412.248L599.65,412.31L599.164,412.56L598.639,412.959L598.226,413.347L597.806,413.798L596.968,414.854L596.158,416.067L595.395,417.392L594.567,419.073L593.842,420.833L593.241,422.638L592.982,423.596L592.767,424.551L592.617,425.4L592.511,426.237L592.458,426.935L592.443,427.616L592.487,428.488L592.611,429.302L592.823,430.042L592.985,430.422L593.178,430.767L593.482,431.167L593.84,431.491L594.247,431.732L594.663,431.879" style="fill:none;fill-rule:nonzero;stroke:rgb(221,221,221);stroke-width:0.37px;"/>
            </g>
            <g id="path4250-71-6-49-2-9" transform="matrix(0.561379,1.56418e-08,0,0.56577,-39.1295,23.5124)">
                <path d="M-26.118,5.664C-24.421,3.696 -21.937,2.561 -19.326,2.561C-14.423,2.561 -10.388,6.564 -10.388,11.429C-10.388,13.546 -11.152,15.594 -12.541,17.201C-14.238,19.169 -16.722,20.304 -19.333,20.304C-24.236,20.304 -28.271,16.301 -28.271,11.436C-28.271,9.32 -27.507,7.271 -26.118,5.664Z" style="fill:rgb(239,41,41);fill-rule:nonzero;stroke:rgb(40,0,0);stroke-width:3.55px;stroke-linecap:butt;stroke-linejoin:miter;"/>
            </g>
            <g id="path4250-7-3-2-5-7-2" transform="matrix(0.561379,1.56418e-08,0,0.56577,-39.1295,23.5124)">
                <path d="M-23.402,7.974C-22.388,6.797 -20.902,6.118 -19.341,6.118C-16.409,6.118 -13.997,8.512 -13.997,11.421C-13.997,12.687 -14.454,13.912 -15.284,14.873C-16.299,16.047 -17.782,16.723 -19.341,16.723C-22.273,16.723 -24.685,14.33 -24.685,11.421C-24.685,10.157 -24.23,8.935 -23.402,7.974Z" style="fill:url(#_Linear4);fill-rule:nonzero;stroke:rgb(239,41,41);stroke-width:3.55px;stroke-linecap:butt;stroke-linejoin:miter;"/>
            </g>
        </g>
    </g>
    <defs>
        <linearGradient id="_Linear1" x1="0" y1="0" x2="1" y2="-0.00443668" gradientUnits="userSpaceOnUse" gradientTransform="matrix(-3.0537,-9.84756,9.84756,-3.0537,-18.338,16.3876)"><stop offset="0" style="stop-color:rgb(164,0,0);stop-opacity:1"/><stop offset="1" style="stop-color:rgb(239,41,41);stop-opacity:1"/></linearGradient>
        <linearGradient id="_Linear2" x1="0" y1="0" x2="1" y2="-0.00443668" gradientUnits="userSpaceOnUse" gradientTransform="matrix(-3.0537,-9.84756,9.84756,-3.0537,-18.338,16.3876)"><stop offset="0" style="stop-color:rgb(164,0,0);stop-opacity:1"/><stop offset="1" style="stop-color:rgb(239,41,41);stop-opacity:1"/></linearGradient>
        <linearGradient id="_Linear3" x1="0" y1="0" x2="1" y2="-0.00443668" gradientUnits="userSpaceOnUse" gradientTransform="matrix(-3.0537,-9.84756,9.84756,-3.0537,-18.338,16.3876)"><stop offset="0" style="stop-color:rgb(164,0,0);stop-opacity:1"/><stop offset="1" style="stop-color:rgb(239,41,41);stop-opacity:1"/></linearGradient>
        <linearGradient id="_Linear4" x1="0" y1="0" x2="1" y2="-0.00443668" gradientUnits="userSpaceOnUse" gradientTransform="matrix(-3.0537,-9.84756,9.84756,-3.0537,-18.338,16.3876)"><stop offset="0" style="stop-color:rgb(164,0,0);stop-opacity:1"/><stop offset="1" style="stop-color:rgb(239,41,41);stop-opacity:1"/></linearGradient>
    </defs>
</svg>
