<?xml version="1.0" encoding="UTF-8" standalone="no"?>
<!DOCTYPE svg PUBLIC "-//W3C//DTD SVG 1.1//EN" "http://www.w3.org/Graphics/SVG/1.1/DTD/svg11.dtd">
<svg width="100%" height="100%" viewBox="0 0 32 32" version="1.1" xmlns="http://www.w3.org/2000/svg" xmlns:xlink="http://www.w3.org/1999/xlink" xml:space="preserve" xmlns:serif="http://www.serif.com/" style="fill-rule:evenodd;clip-rule:evenodd;">
    <g transform="matrix(0.129588,0,0,0.129588,0.611852,-0.957871)">
        <g id="Layer-1" serif:id="Layer 1">
            <g transform="matrix(0.808413,0,0,0.808413,-0.274935,-12.7375)">
                <g id="path5463" transform="matrix(0.735537,0,0,0.735537,-32.3824,22.4782)">
                    <path d="M130.365,84.851C134.335,77.73 143.507,75.262 150.833,79.345C158.16,83.428 160.885,92.524 156.914,99.646L79.958,237.693C75.989,244.815 66.816,247.283 59.49,243.2C52.164,239.117 49.439,230.021 53.408,222.898L130.365,84.851Z" style="fill:url(#_Linear1);"/>
                </g>
                <g id="path5465" transform="matrix(0.735537,0,0,0.735537,-32.3824,22.4782)">
                    <path d="M122.087,80.237C128.6,68.553 143.373,64.354 155.058,70.866C166.742,77.379 170.941,92.153 164.428,103.837L87.483,241.891C80.972,253.576 66.198,257.774 54.513,251.262C42.828,244.749 38.629,229.976 45.142,218.291L122.087,80.237ZM130.353,84.845L53.408,222.898C49.439,230.021 51.999,239.026 59.12,242.995C66.243,246.965 75.249,244.405 79.217,237.283L156.162,99.23C160.132,92.108 157.573,83.103 150.45,79.133C143.329,75.163 134.323,77.723 130.353,84.845Z" style="fill:rgb(46,52,54);"/>
                </g>
                <g id="path5467" transform="matrix(0.735537,0,0,0.735537,-32.3824,22.4782)">
                    <path d="M130.991,83.892C133.023,80.245 141.856,85.525 139.823,89.171L56.203,241.046C50.464,236.523 49.957,228.392 54.046,221.945L130.991,83.892Z" style="fill:rgb(211,215,207);"/>
                </g>
                <g id="path6475" transform="matrix(0.735537,0,0,0.735537,-32.3824,22.4782)">
                    <path d="M187.128,95.898C176.61,115.397 107.578,76.399 116.223,58.359L186.023,15.683L187.128,95.898Z" style="fill:rgb(49,49,49);fill-rule:nonzero;"/>
                </g>
                <g id="path5470" transform="matrix(0.735537,0,0,0.735537,-32.3824,22.4782)">
                    <path d="M194.426,99.835C190.96,106.259 184.058,109.74 174.676,109.502C165.092,109.259 152.284,104.92 140.511,98.48C126.624,90.885 114.345,80.364 109.743,71.415C106.629,65.361 106.423,59.622 108.746,54.775C109.438,53.331 110.532,52.119 111.898,51.284L181.698,8.609C184.239,7.055 187.42,6.984 190.028,8.424C192.636,9.863 194.272,12.591 194.314,15.57L195.419,95.783C195.438,97.197 195.096,98.591 194.426,99.835ZM187.128,95.898L186.023,15.683L116.223,58.359C107.578,76.399 176.61,115.397 187.128,95.898Z" style="fill:rgb(46,52,54);"/>
                </g>
                <g id="path6475-6" transform="matrix(0.735537,0,0,0.735537,-32.3824,22.4782)">
                    <path d="M183.591,94.493C175.949,109.874 111.302,71.793 119.604,60.367L182.43,22.468L183.591,94.493Z" style="fill:url(#_Linear2);stroke:rgb(211,215,207);stroke-width:7.57px;"/>
                </g>
            </g>
            <g transform="matrix(0.808413,0,0,0.808413,149.956,82.0805)">
                <g id="path54631" serif:id="path5463" transform="matrix(0.735537,0,0,0.735537,-32.3824,22.4782)">
                    <path d="M130.365,84.851C134.335,77.73 143.507,75.262 150.833,79.345C158.16,83.428 160.885,92.524 156.914,99.646L79.958,237.693C75.989,244.815 66.816,247.283 59.49,243.2C52.164,239.117 49.439,230.021 53.408,222.898L130.365,84.851Z" style="fill:url(#_Linear3);"/>
                </g>
                <g id="path54651" serif:id="path5465" transform="matrix(0.735537,0,0,0.735537,-32.3824,22.4782)">
                    <path d="M122.087,80.237C128.6,68.553 143.373,64.354 155.058,70.866C166.742,77.379 170.941,92.153 164.428,103.837L87.483,241.891C80.972,253.576 66.198,257.774 54.513,251.262C42.828,244.749 38.629,229.976 45.142,218.291L122.087,80.237ZM130.353,84.845L53.408,222.898C49.439,230.021 51.999,239.026 59.12,242.995C66.243,246.965 75.249,244.405 79.217,237.283L156.162,99.23C160.132,92.108 157.573,83.103 150.45,79.133C143.329,75.163 134.323,77.723 130.353,84.845Z" style="fill:rgb(46,52,54);"/>
                </g>
                <g id="path54671" serif:id="path5467" transform="matrix(0.735537,0,0,0.735537,-32.3824,22.4782)">
                    <path d="M130.991,83.892C133.023,80.245 141.856,85.525 139.823,89.171L56.203,241.046C50.464,236.523 49.957,228.392 54.046,221.945L130.991,83.892Z" style="fill:rgb(211,215,207);"/>
                </g>
                <g id="path64751" serif:id="path6475" transform="matrix(0.735537,0,0,0.735537,-32.3824,22.4782)">
                    <path d="M187.128,95.898C176.61,115.397 107.578,76.399 116.223,58.359L186.023,15.683L187.128,95.898Z" style="fill:rgb(49,49,49);fill-rule:nonzero;"/>
                </g>
                <g id="path54701" serif:id="path5470" transform="matrix(0.735537,0,0,0.735537,-32.3824,22.4782)">
                    <path d="M194.426,99.835C190.96,106.259 184.058,109.74 174.676,109.502C165.092,109.259 152.284,104.92 140.511,98.48C126.624,90.885 114.345,80.364 109.743,71.415C106.629,65.361 106.423,59.622 108.746,54.775C109.438,53.331 110.532,52.119 111.898,51.284L181.698,8.609C184.239,7.055 187.42,6.984 190.028,8.424C192.636,9.863 194.272,12.591 194.314,15.57L195.419,95.783C195.438,97.197 195.096,98.591 194.426,99.835ZM187.128,95.898L186.023,15.683L116.223,58.359C107.578,76.399 176.61,115.397 187.128,95.898Z" style="fill:rgb(46,52,54);"/>
                </g>
                <g id="path6475-61" serif:id="path6475-6" transform="matrix(0.735537,0,0,0.735537,-32.3824,22.4782)">
                    <path d="M183.591,94.493C175.949,109.874 111.302,71.793 119.604,60.367L182.43,22.468L183.591,94.493Z" style="fill:url(#_Linear4);stroke:rgb(211,215,207);stroke-width:7.57px;"/>
                </g>
            </g>
            <g transform="matrix(0.851372,0,0,0.858622,17.6492,18.5008)">
                <g id="path1488" transform="matrix(2.1587,0,0,2.1587,49.6687,61.7819)">
                    <path d="M27.102,27.102L27.102,7.857L36.898,7.857L36.898,27.102L56.143,27.102L56.143,36.898L36.898,36.898L36.898,56.143L27.102,56.143L27.102,36.898L7.857,36.898L7.857,27.102L27.102,27.102Z" style="fill:url(#_Linear5);"/>
                    <path d="M24.652,24.672L24.652,7.857C24.652,6.515 25.749,5.427 27.102,5.427L36.898,5.427C38.251,5.427 39.348,6.515 39.348,7.857C39.348,7.857 39.348,24.672 39.348,24.672L56.143,24.672C57.496,24.672 58.593,25.76 58.593,27.102L58.593,36.898C58.593,38.24 57.496,39.328 56.143,39.328L39.348,39.328L39.348,56.143C39.348,57.485 38.251,58.573 36.898,58.573L27.102,58.573C25.749,58.573 24.652,57.485 24.652,56.143C24.652,56.143 24.652,39.328 24.652,39.328L7.857,39.328C6.504,39.328 5.407,38.24 5.407,36.898L5.407,27.102C5.407,25.76 6.504,24.672 7.857,24.672L24.652,24.672ZM27.102,27.102L7.857,27.102L7.857,36.898L27.102,36.898L27.102,56.143L36.898,56.143L36.898,36.898L56.143,36.898L56.143,27.102L36.898,27.102L36.898,7.857L27.102,7.857L27.102,27.102Z" style="fill:rgb(46,52,54);"/>
                </g>
                <g id="path14881" serif:id="path1488" transform="matrix(2.1587,0,0,2.1587,49.6687,61.7819)">
                    <path d="M27.102,27.102L27.102,7.857L36.898,7.857L36.898,27.102L56.143,27.102L56.143,36.898L36.898,36.898L36.898,56.143L27.102,56.143L27.102,36.898L7.857,36.898L7.857,27.102L27.102,27.102ZM27.102,29.532C27.102,29.532 10.307,29.532 10.307,29.532C10.307,29.532 10.307,34.468 10.307,34.468L29.552,34.468L29.552,53.713L34.448,53.713L34.448,34.468C34.448,34.468 53.693,34.468 53.693,34.468C53.693,34.468 53.693,29.532 53.693,29.532L34.448,29.532L34.448,10.287L29.552,10.287L29.552,29.532L27.102,29.532Z" style="fill:rgb(211,215,207);"/>
                </g>
            </g>
        </g>
    </g>
    <defs>
        <linearGradient id="_Linear1" x1="0" y1="0" x2="1" y2="0" gradientUnits="userSpaceOnUse" gradientTransform="matrix(107.155,0,0,107.155,51.5841,161.273)"><stop offset="0" style="stop-color:rgb(57,62,53);stop-opacity:1"/><stop offset="1" style="stop-color:rgb(130,136,125);stop-opacity:1"/></linearGradient>
        <linearGradient id="_Linear2" x1="0" y1="0" x2="1" y2="0" gradientUnits="userSpaceOnUse" gradientTransform="matrix(64.4814,0,0,64.4814,119.11,60.113)"><stop offset="0" style="stop-color:rgb(57,62,53);stop-opacity:1"/><stop offset="1" style="stop-color:rgb(130,136,125);stop-opacity:1"/></linearGradient>
        <linearGradient id="_Linear3" x1="0" y1="0" x2="1" y2="0" gradientUnits="userSpaceOnUse" gradientTransform="matrix(107.155,0,0,107.155,51.5841,161.273)"><stop offset="0" style="stop-color:rgb(57,62,53);stop-opacity:1"/><stop offset="1" style="stop-color:rgb(130,136,125);stop-opacity:1"/></linearGradient>
        <linearGradient id="_Linear4" x1="0" y1="0" x2="1" y2="0" gradientUnits="userSpaceOnUse" gradientTransform="matrix(64.4814,0,0,64.4814,119.11,60.113)"><stop offset="0" style="stop-color:rgb(57,62,53);stop-opacity:1"/><stop offset="1" style="stop-color:rgb(130,136,125);stop-opacity:1"/></linearGradient>
        <linearGradient id="_Linear5" x1="0" y1="0" x2="1" y2="0" gradientUnits="userSpaceOnUse" gradientTransform="matrix(51.58,0,0,51.58,7.93,15.457)"><stop offset="0" style="stop-color:rgb(198,202,194);stop-opacity:1"/><stop offset="1" style="stop-color:rgb(57,62,53);stop-opacity:1"/></linearGradient>
    </defs>
</svg>
