<?xml version="1.0" encoding="UTF-8" standalone="no"?>
<svg
   width="32"
   height="32"
   viewBox="0 0 32 32"
   version="1.1"
   xml:space="preserve"
   style="clip-rule:evenodd;fill-rule:evenodd"
   id="svg5486"
   sodipodi:docname="nodes_vect.svg"
   inkscape:version="1.1.2 (b8e25be833, 2022-02-05)"
   xmlns:inkscape="http://www.inkscape.org/namespaces/inkscape"
   xmlns:sodipodi="http://sodipodi.sourceforge.net/DTD/sodipodi-0.dtd"
   xmlns="http://www.w3.org/2000/svg"
   xmlns:svg="http://www.w3.org/2000/svg"
   xmlns:serif="http://www.serif.com/"><sodipodi:namedview
     id="namedview5488"
     pagecolor="#ffffff"
     bordercolor="#666666"
     borderopacity="1.0"
     inkscape:pageshadow="2"
     inkscape:pageopacity="0.0"
     inkscape:pagecheckerboard="0"
     showgrid="false"
     inkscape:zoom="3.0262172"
     inkscape:cx="133.33478"
     inkscape:cy="133.66522"
     inkscape:window-width="1920"
     inkscape:window-height="1001"
     inkscape:window-x="-9"
     inkscape:window-y="-9"
     inkscape:window-maximized="1"
     inkscape:current-layer="svg5486" /><g
     id="Layer-1"
     serif:id="Layer 1"
     transform="matrix(0.12958753,0,0,0.12958753,0.61185172,-0.95787143)"><path
       d="m 130.365,84.851 c 3.97,-7.121 13.142,-9.589 20.468,-5.506 7.327,4.083 10.052,13.179 6.081,20.301 L 79.958,237.693 c -3.969,7.122 -13.142,9.59 -20.468,5.507 -7.326,-4.083 -10.051,-13.179 -6.082,-20.302 z"
       style="fill:url(#_Linear1)"
       id="path5463" /><path
       d="m 122.087,80.237 c 6.513,-11.684 21.286,-15.883 32.971,-9.371 11.684,6.513 15.883,21.287 9.37,32.971 L 87.483,241.891 c -6.511,11.685 -21.285,15.883 -32.97,9.371 -11.685,-6.513 -15.884,-21.286 -9.371,-32.971 z m 8.266,4.608 -76.945,138.053 c -3.969,7.123 -1.409,16.128 5.712,20.097 7.123,3.97 16.129,1.41 20.097,-5.712 L 156.162,99.23 c 3.97,-7.122 1.411,-16.127 -5.712,-20.097 -7.121,-3.97 -16.127,-1.41 -20.097,5.712 z"
       style="fill:#2e3436"
       id="path5465" /><path
       d="m 130.991,83.892 c 2.032,-3.647 10.865,1.633 8.832,5.279 l -83.62,151.875 c -5.739,-4.523 -6.246,-12.654 -2.157,-19.101 z"
       style="fill:#d3d7cf"
       id="path5467" /><path
       id="path6475"
       d="M 187.128,95.898 C 176.61,115.397 107.578,76.399 116.223,58.359 l 69.8,-42.676 z"
       style="fill:#313131;fill-rule:nonzero" /><path
       d="m 194.426,99.835 c -3.466,6.424 -10.368,9.905 -19.75,9.667 -9.584,-0.243 -22.392,-4.582 -34.165,-11.022 -13.887,-7.595 -26.166,-18.116 -30.768,-27.065 -3.114,-6.054 -3.32,-11.793 -0.997,-16.64 0.692,-1.444 1.786,-2.656 3.152,-3.491 l 69.8,-42.675 c 2.541,-1.554 5.722,-1.625 8.33,-0.185 2.608,1.439 4.244,4.167 4.286,7.146 l 1.105,80.213 c 0.019,1.414 -0.323,2.808 -0.993,4.052 z m -7.298,-3.937 -1.105,-80.215 -69.8,42.676 c -8.645,18.04 60.387,57.038 70.905,37.539 z"
       style="fill:#2e3436"
       id="path5470" /><path
       id="path6475-6"
       d="m 183.591,94.493 c -7.642,15.381 -72.289,-22.7 -63.987,-34.126 L 182.43,22.468 Z"
       style="fill:url(#_Linear2);stroke:#d3d7cf;stroke-width:7.57px" /></g><defs
     id="defs5484"><linearGradient
       id="_Linear1"
       x1="0"
       y1="0"
       x2="1"
       y2="0"
       gradientUnits="userSpaceOnUse"
       gradientTransform="matrix(107.155,0,0,174.087,51.5841,161.273)"><stop
         offset="0"
         style="stop-color:#393e35;stop-opacity:1"
         id="stop5474" /><stop
         offset="1"
         style="stop-color:#82887d;stop-opacity:1"
         id="stop5476" /></linearGradient><linearGradient
       id="_Linear2"
       x1="0"
       y1="0"
       x2="1"
       y2="0"
       gradientUnits="userSpaceOnUse"
       gradientTransform="matrix(64.4814,0,0,78.1134,119.11,60.113)"><stop
         offset="0"
         style="stop-color:#393e35;stop-opacity:1"
         id="stop5479" /><stop
         offset="1"
         style="stop-color:#82887d;stop-opacity:1"
         id="stop5481" /></linearGradient></defs></svg>
