<?xml version="1.0" encoding="UTF-8" standalone="no"?>
<svg
   width="32"
   height="32"
   viewBox="0 0 32 32"
   version="1.1"
   xml:space="preserve"
   style="clip-rule:evenodd;fill-rule:evenodd;stroke-linecap:round;stroke-miterlimit:32.2"
   id="svg4020"
   sodipodi:docname="nodes_vect_z.svg"
   inkscape:version="1.1.2 (b8e25be833, 2022-02-05)"
   xmlns:inkscape="http://www.inkscape.org/namespaces/inkscape"
   xmlns:sodipodi="http://sodipodi.sourceforge.net/DTD/sodipodi-0.dtd"
   xmlns="http://www.w3.org/2000/svg"
   xmlns:svg="http://www.w3.org/2000/svg"
   xmlns:serif="http://www.serif.com/"><defs
     id="defs4024" /><sodipodi:namedview
     id="namedview4022"
     pagecolor="#ffffff"
     bordercolor="#666666"
     borderopacity="1.0"
     inkscape:pageshadow="2"
     inkscape:pageopacity="0.0"
     inkscape:pagecheckerboard="0"
     showgrid="false"
     inkscape:zoom="3.0262172"
     inkscape:cx="133.33478"
     inkscape:cy="133.66522"
     inkscape:window-width="1920"
     inkscape:window-height="1001"
     inkscape:window-x="-9"
     inkscape:window-y="-9"
     inkscape:window-maximized="1"
     inkscape:current-layer="svg4020" /><g
     id="Layer-1"
     serif:id="Layer 1"
     transform="matrix(0.13084665,0,0,0.13084665,-1.9230808,-1.5272413)"><path
       d="m 72.885,95.888 c 0.021,-7.17 5.86,-12.976 13.03,-12.955 7.171,0.021 12.975,5.859 12.954,13.03 L 98.47,234.955 c -0.02,7.17 -5.859,12.976 -13.03,12.955 -7.17,-0.021 -12.975,-5.859 -12.955,-13.03 z"
       style="fill:#3465a4"
       id="path3999" /><path
       d="M 64.562,95.864 C 64.596,84.1 74.174,74.577 85.939,74.611 c 11.764,0.034 21.287,9.612 21.253,21.376 l -0.399,138.992 c -0.033,11.765 -9.612,21.288 -21.377,21.254 -11.764,-0.034 -21.287,-9.612 -21.253,-21.377 z m 8.323,0.024 -0.4,138.992 c -0.02,7.171 5.785,13.009 12.955,13.03 7.171,0.021 13.01,-5.785 13.03,-12.955 L 98.869,95.963 C 98.89,88.792 93.086,82.954 85.915,82.933 78.745,82.912 72.906,88.718 72.885,95.888 Z"
       style="fill:#0b1521"
       id="path4001" /><path
       d="m 72.97,94.883 c 0.01,-3.671 2.999,-6.642 6.67,-6.632 3.672,0.011 6.644,3 6.633,6.671 l -0.288,152.683 c -9.02,0.714 -13.815,-7.028 -13.415,-13.729 z"
       style="fill:#729fcf"
       id="path4003" /><path
       id="path6475"
       d="m 121.275,80.21 c 0.213,19.482 -69.511,18.881 -70.543,1.318 L 86.259,18.963 Z"
       style="fill:#3465a4;fill-rule:nonzero" /><path
       d="m 128.567,80.131 c 0.07,6.419 -3.758,12.037 -11.078,15.85 -7.478,3.895 -19.18,6.012 -30.981,6.071 C 72.588,102.124 58.66,99.259 51.307,94.334 46.332,91.002 43.729,86.675 43.453,81.956 43.37,80.55 43.695,79.151 44.391,77.928 L 79.918,15.363 c 1.293,-2.278 3.71,-3.688 6.33,-3.691 2.62,-0.004 5.041,1.399 6.341,3.673 l 35.016,61.245 c 0.618,1.08 0.948,2.298 0.962,3.541 z M 121.275,80.21 86.259,18.963 50.732,81.528 c 1.032,17.563 70.756,18.164 70.543,-1.318 z"
       style="fill:#0b1521"
       id="path4006" /><path
       id="path6475-6"
       d="M 117.956,80.635 C 117.509,95.632 53.282,92.02 54.188,81.633 L 86.384,25.714 Z"
       style="fill:none;stroke:#729fcf;stroke-width:7.62px" /><path
       d="m 216.886,152.071 -52.86,84.895 h 17.112 c 8.091,0 13.751,-0.509 16.978,-1.525 5.263,-1.592 9.794,-4.522 13.597,-8.788 3.803,-4.267 6.433,-9.982 7.892,-17.145 h 2.587 l -3.647,32.498 H 136.17 l 52.927,-85.026 h -13.332 c -5.172,0 -8.577,0.154 -10.213,0.463 -3.095,0.575 -6.002,1.714 -8.722,3.416 -2.72,1.703 -4.974,3.969 -6.765,6.798 -1.79,2.83 -3.195,6.411 -4.211,10.745 H 143.4 l 2.454,-26.331 z"
       style="fill:#3465a4;fill-rule:nonzero"
       id="path4009" /><path
       d="M 150.327,148.312 147.11,182.59"
       style="fill:none;stroke:#73a0cf;stroke-width:8.32px;stroke-linecap:butt;stroke-linejoin:round;stroke-miterlimit:1.5"
       id="path4011" /><path
       d="m 214.078,207.76 9.333,0.922 c 0.448,12.212 -2.893,21.693 -14.197,28.096 l -25.302,0.138 c 19.076,-4.601 30.689,-13.436 30.166,-29.156 z"
       style="fill:#73a0cf"
       id="path4013" /><path
       d="m 184.694,157.009 12.9,-0.008 -52.502,85.888 -11.793,1.564 z"
       style="fill:#729fcf"
       id="path4015" /><path
       d="m 174.11,165.305 c -3.467,0.015 -5.806,0.088 -7.011,0.316 l -0.028,0.006 c -2.067,0.383 -4.008,1.15 -5.825,2.287 -1.672,1.047 -3.047,2.453 -4.148,4.194 -1.362,2.152 -2.368,4.9 -3.141,8.196 -0.883,3.761 -4.239,6.421 -8.103,6.421 H 143.4 c -2.342,0 -4.576,-0.986 -6.153,-2.718 -1.577,-1.731 -2.352,-4.046 -2.135,-6.377 l 2.454,-26.331 c 0.4,-4.279 3.99,-7.551 8.288,-7.551 h 71.032 c 3.023,0 5.809,1.639 7.277,4.283 1.467,2.643 1.386,5.874 -0.211,8.439 l -44.939,72.173 h 2.125 c 6.893,0 11.728,-0.274 14.477,-1.14 0.03,-0.01 0.061,-0.019 0.091,-0.029 3.796,-1.148 7.051,-3.281 9.793,-6.359 2.93,-3.287 4.827,-7.75 5.951,-13.269 0.79,-3.876 4.199,-6.661 8.155,-6.661 h 2.587 c 2.369,0 4.626,1.009 6.206,2.775 1.578,1.767 2.33,4.122 2.065,6.476 l -3.648,32.498 c -0.472,4.212 -4.033,7.395 -8.27,7.395 H 136.17 c -3.022,0 -5.808,-1.639 -7.276,-4.282 -1.467,-2.642 -1.387,-5.872 0.211,-8.439 z m 42.776,-13.234 h -71.032 l -2.454,26.331 h 2.454 c 1.016,-4.334 2.421,-7.915 4.211,-10.745 1.791,-2.829 4.045,-5.095 6.765,-6.798 2.72,-1.702 5.627,-2.841 8.722,-3.416 1.636,-0.309 5.041,-0.463 10.213,-0.463 h 13.332 l -52.927,85.026 h 82.375 l 3.647,-32.498 h -2.587 c -1.459,7.163 -4.089,12.878 -7.892,17.145 -3.803,4.266 -8.334,7.196 -13.597,8.788 -3.227,1.016 -8.887,1.525 -16.978,1.525 h -17.112 z"
       style="fill:#0b1521"
       id="path4017" /></g></svg>
