<?xml version="1.0" encoding="UTF-8" standalone="no"?>
<svg
   width="32"
   height="32"
   viewBox="0 0 32 32"
   version="1.1"
   xml:space="preserve"
   style="clip-rule:evenodd;fill-rule:evenodd;stroke-linecap:round;stroke-miterlimit:32.2"
   id="svg3764"
   sodipodi:docname="nodes_vect_x.svg"
   inkscape:version="1.1.2 (b8e25be833, 2022-02-05)"
   xmlns:inkscape="http://www.inkscape.org/namespaces/inkscape"
   xmlns:sodipodi="http://sodipodi.sourceforge.net/DTD/sodipodi-0.dtd"
   xmlns="http://www.w3.org/2000/svg"
   xmlns:svg="http://www.w3.org/2000/svg"
   xmlns:serif="http://www.serif.com/"><defs
   id="defs3768" /><sodipodi:namedview
   id="namedview3766"
   pagecolor="#ffffff"
   bordercolor="#666666"
   borderopacity="1.0"
   inkscape:pageshadow="2"
   inkscape:pageopacity="0.0"
   inkscape:pagecheckerboard="0"
   showgrid="false"
   inkscape:zoom="22.299267"
   inkscape:cx="13.924225"
   inkscape:cy="10.919642"
   inkscape:window-width="1920"
   inkscape:window-height="1001"
   inkscape:window-x="-9"
   inkscape:window-y="-9"
   inkscape:window-maximized="1"
   inkscape:current-layer="svg3764" />
    <g
   transform="matrix(0.03371703,0,0,0.03371703,-2.4043001,-2.6972222)"
   id="g3762">
        <g
   transform="scale(4.16667)"
   id="g3760">
            <g
   id="Layer-1"
   serif:id="Layer 1">
                <g
   transform="translate(0,-124.565)"
   id="g3747">
                    <path
   d="m 188.869,189.256 24.78,36.773 c 4.108,6.096 7.034,9.795 8.779,11.098 1.745,1.303 3.809,2.087 6.194,2.352 v 2.452 h -43.795 v -2.452 c 3.49,-0.265 5.742,-0.795 6.759,-1.59 1.015,-0.795 1.523,-1.767 1.523,-2.916 0,-0.795 -0.154,-1.501 -0.464,-2.119 -0.618,-1.325 -2.164,-3.799 -4.638,-7.421 l -13.119,-19.414 -13.714,16.764 c -4.108,5.079 -6.163,8.525 -6.163,10.336 0,1.28 0.531,2.474 1.591,3.577 1.06,1.105 2.628,1.9 4.704,2.385 0.927,0.266 2.827,0.398 5.698,0.398 v 2.452 h -34.52 v -2.452 c 3.931,-0.574 7.024,-1.634 9.277,-3.18 2.959,-2.032 7.089,-6.273 12.389,-12.721 l 17.823,-21.732 -22.858,-33.592 c -3.755,-5.522 -5.897,-8.592 -6.427,-9.21 -1.193,-1.458 -2.363,-2.496 -3.512,-3.114 -1.149,-0.619 -2.739,-1.083 -4.77,-1.391 v -2.452 h 44.59 v 2.452 h -2.252 c -2.562,0 -4.351,0.408 -5.367,1.225 -1.016,0.817 -1.524,1.844 -1.524,3.081 0,0.972 0.154,1.811 0.464,2.517 l 4.571,6.892 11.131,16.961 9.476,-11.595 c 4.859,-5.963 7.288,-10.137 7.288,-12.522 0,-1.193 -0.343,-2.298 -1.027,-3.313 -0.685,-1.016 -1.668,-1.811 -2.949,-2.385 -1.281,-0.575 -3.268,-0.861 -5.963,-0.861 v -2.452 h 33.062 v 2.452 c -2.606,0.044 -4.705,0.363 -6.295,0.96 -1.59,0.597 -3.29,1.711 -5.101,3.346 -1.149,1.06 -4.019,4.351 -8.613,9.872 z"
   style="fill:#ef2929;fill-rule:nonzero"
   id="path3741" />
                    <path
   d="m 169.505,198.834 -39.768,-48.508 18.618,0.449 64.536,93.685 -31.943,0.082 4.751,-11.674 -9.287,-23.065 -17.619,23.349 10.961,4.891 0.207,6.607 -39.127,-0.172 0.426,-6.463 11.367,-6.684 z m 28.993,-36.449 -7.832,-5.972 -0.156,-6.696 38.09,-0.023 -1.168,6.407 -7.879,3.544 -29.971,30.605 -5.669,-8.195 z"
   style="fill:#cc0000"
   id="path3743" />
                    <path
   d="m 185.921,147.467 c 1.492,-2.233 4.036,-3.703 6.923,-3.703 h 33.062 c 4.597,0 8.323,3.727 8.323,8.323 v 2.452 c 0,4.541 -3.641,8.245 -8.182,8.321 -1.449,0.024 -2.629,0.1 -3.513,0.432 -0.77,0.289 -1.535,0.91 -2.436,1.722 -1.087,1.025 -3.665,4.053 -7.799,9.022 l -13.047,15.737 21.298,31.605 c 3.304,4.901 5.454,8.032 6.858,9.081 0.595,0.444 1.32,0.658 2.134,0.748 4.215,0.468 7.404,4.031 7.404,8.272 v 2.452 c 0,4.596 -3.727,8.322 -8.324,8.322 h -43.795 c -4.596,0 -8.323,-3.726 -8.323,-8.322 v -2.452 c 0,-3.633 2.336,-6.753 5.632,-7.878 -0.312,-0.463 -0.646,-0.954 -1.001,-1.475 l -0.023,-0.034 -6.861,-10.15 -6.617,8.087 c -0.825,1.022 -1.616,2.107 -2.297,3.09 0.537,0.021 1.119,0.037 1.667,0.037 4.596,0 8.323,3.726 8.323,8.323 v 2.452 c 0,4.596 -3.727,8.322 -8.323,8.322 h -34.52 c -4.596,0 -8.322,-3.726 -8.322,-8.322 v -2.452 c 0,-4.132 3.031,-7.638 7.12,-8.235 2.423,-0.355 4.379,-0.854 5.769,-1.807 2.57,-1.766 6.064,-5.541 10.668,-11.143 l 13.871,-16.913 -19.358,-28.447 c -3.444,-5.067 -5.377,-7.906 -5.863,-8.474 -0.041,-0.048 -0.082,-0.096 -0.122,-0.145 -0.373,-0.456 -0.657,-0.864 -1.016,-1.057 -0.493,-0.266 -1.205,-0.359 -2.077,-0.491 -4.066,-0.62 -7.071,-4.115 -7.071,-8.228 v -2.452 c 0,-4.596 3.727,-8.323 8.323,-8.323 h 44.59 c 2.888,0 5.431,1.47 6.925,3.703 z m -4.802,15.122 0.705,1.063 0.023,0.035 4.907,7.477 2.29,-2.802 c 1.501,-1.843 2.901,-3.913 3.915,-5.5 -0.039,-0.001 -0.077,-0.001 -0.115,-0.001 -2.887,0 -5.431,-1.47 -6.923,-3.702 -1.114,1.665 -2.813,2.906 -4.802,3.43 z m 7.75,26.667 17.028,-20.539 c 4.594,-5.521 7.464,-8.812 8.613,-9.872 1.811,-1.635 3.511,-2.749 5.101,-3.346 1.59,-0.597 3.689,-0.916 6.295,-0.96 v -2.452 h -33.062 v 2.452 c 2.695,0 4.682,0.286 5.963,0.861 1.281,0.574 2.264,1.369 2.949,2.385 0.684,1.015 1.027,2.12 1.027,3.313 0,2.385 -2.429,6.559 -7.288,12.522 l -9.476,11.595 -11.131,-16.961 -4.571,-6.892 c -0.31,-0.706 -0.464,-1.545 -0.464,-2.517 0,-1.237 0.508,-2.264 1.524,-3.081 1.016,-0.817 2.805,-1.225 5.367,-1.225 h 2.252 v -2.452 h -44.59 v 2.452 c 2.031,0.308 3.621,0.772 4.77,1.391 1.149,0.618 2.319,1.656 3.512,3.114 0.53,0.618 2.672,3.688 6.427,9.21 l 22.858,33.592 -17.823,21.732 c -5.3,6.448 -9.43,10.689 -12.389,12.721 -2.253,1.546 -5.346,2.606 -9.277,3.18 v 2.452 h 34.52 v -2.452 c -2.871,0 -4.771,-0.132 -5.698,-0.398 -2.076,-0.485 -3.644,-1.28 -4.704,-2.385 -1.06,-1.103 -1.591,-2.297 -1.591,-3.577 0,-1.811 2.055,-5.257 6.163,-10.336 l 13.714,-16.764 13.119,19.414 c 2.474,3.622 4.02,6.096 4.638,7.421 0.31,0.618 0.464,1.324 0.464,2.119 0,1.149 -0.508,2.121 -1.523,2.916 -1.017,0.795 -3.269,1.325 -6.759,1.59 v 2.452 h 43.795 v -2.452 c -2.385,-0.265 -4.449,-1.049 -6.194,-2.352 -1.745,-1.303 -4.671,-5.002 -8.779,-11.098 z"
   style="fill:#280000"
   id="path3745" />
                </g>
                <path
   d="m 149.725,177.971 c 4.903,4.932 4.881,12.918 -0.052,17.822 -4.933,4.904 -12.918,4.881 -17.822,-0.052 L 36.795,100.137 c -4.905,-4.932 -4.882,-12.918 0.051,-17.822 4.932,-4.904 12.917,-4.881 17.822,0.051 z"
   style="fill:#cc0000"
   id="path3749" />
                <path
   d="m 155.45,172.279 c 8.045,8.093 8.007,21.193 -0.085,29.239 -8.092,8.045 -21.193,8.007 -29.239,-0.085 L 31.07,105.829 c -8.047,-8.092 -8.008,-21.194 0.084,-29.239 8.092,-8.046 21.194,-8.008 29.239,0.084 z m -5.725,5.692 -95.057,-95.605 c -4.905,-4.932 -12.89,-4.955 -17.822,-0.051 -4.933,4.904 -4.956,12.89 -0.051,17.822 l 95.056,95.604 c 4.904,4.933 12.889,4.956 17.822,0.052 4.933,-4.904 4.955,-12.89 0.052,-17.822 z"
   style="fill:#280000"
   id="path3751" />
                <path
   d="m 150.355,178.719 c 2.512,2.524 2.5,6.612 -0.026,9.123 -2.525,2.511 -6.614,2.5 -9.125,-0.026 L 36.681,82.897 c 5.698,-6.675 14.296,-4.655 18.618,0.216 z"
   style="fill:#ef2929"
   id="path3753" />
                <path
   id="path6475"
   d="m 127.288,221.914 c -13.508,-13.217 34.725,-60.626 47.481,-49.288 l 18.543,67.278 z"
   style="fill:#cc0000;fill-rule:nonzero" />
                <path
   d="m 122.341,226.969 c -4.45,-4.354 -5.678,-10.833 -3.273,-18.469 2.457,-7.8 9.032,-17.278 17.085,-25.414 9.498,-9.596 21.017,-17.183 29.437,-18.849 5.698,-1.127 10.451,0.057 13.878,3.103 1.02,0.907 1.756,2.09 2.119,3.407 l 18.544,67.277 c 0.675,2.45 -0.016,5.075 -1.811,6.874 -1.794,1.799 -4.416,2.498 -6.867,1.83 l -66.024,-17.99 c -1.163,-0.318 -2.226,-0.926 -3.088,-1.769 z m 4.947,-5.055 66.024,17.99 -18.543,-67.278 c -12.756,-11.338 -60.989,36.071 -47.481,49.288 z"
   style="fill:#280000"
   id="path3756" />
                <path
   id="path6475-6"
   d="m 129.273,219.345 c -9.979,-10.592 36.55,-52.166 43.053,-44.421 l 16.27,60.436 z"
   style="fill:none;stroke:#ef2929;stroke-width:7.39px" />
            </g>
        </g>
    </g>
</svg>
