<?xml version="1.0" encoding="UTF-8" standalone="no"?>
<!DOCTYPE svg PUBLIC "-//W3C//DTD SVG 1.1//EN" "http://www.w3.org/Graphics/SVG/1.1/DTD/svg11.dtd">
<svg width="100%" height="100%" viewBox="0 0 64 64" version="1.1" xmlns="http://www.w3.org/2000/svg" xmlns:xlink="http://www.w3.org/1999/xlink" xml:space="preserve" xmlns:serif="http://www.serif.com/" style="fill-rule:evenodd;clip-rule:evenodd;stroke-linecap:round;stroke-linejoin:round;stroke-miterlimit:1.5;">
    <g id="Layer-1" serif:id="Layer 1">
        <path d="M31.462,1.879C28.992,1.89 26.634,2.101 24.559,2.468C18.446,3.548 17.336,5.809 17.336,9.977L17.336,15.483L31.781,15.483L31.781,17.318L11.915,17.318C7.717,17.318 4.041,19.841 2.891,24.641C1.564,30.144 1.506,33.577 2.891,39.322C3.918,43.599 6.37,46.646 10.568,46.646L15.535,46.646L15.535,40.046C15.535,35.278 19.66,31.073 24.559,31.073L38.987,31.073C43.004,31.073 46.21,27.766 46.21,23.732L46.21,9.977C46.21,6.062 42.907,3.122 38.987,2.468C36.506,2.055 33.931,1.867 31.462,1.879Z" style="fill:url(#_Linear1);fill-rule:nonzero;"/>
        <path d="M31.462,1.879C33.931,1.867 36.506,2.055 38.987,2.468C42.907,3.122 46.21,6.062 46.21,9.977L46.21,23.732C46.21,27.766 43.004,31.073 38.987,31.073L24.559,31.073C19.66,31.073 15.535,35.278 15.535,40.046L15.535,46.646L10.568,46.646C6.37,46.646 3.918,43.599 2.891,39.322C1.506,33.577 1.564,30.144 2.891,24.641C4.041,19.841 7.717,17.318 11.915,17.318L31.781,17.318L31.781,15.483L17.336,15.483L17.336,9.977C17.336,5.809 18.446,3.548 24.559,2.468C26.634,2.101 28.992,1.89 31.462,1.879ZM31.471,3.879C29.123,3.89 26.88,4.089 24.907,4.438C22.487,4.865 21.002,5.395 20.177,6.362C19.417,7.253 19.336,8.456 19.336,9.977L19.336,13.483L31.781,13.483C32.886,13.483 33.781,14.378 33.781,15.483L33.781,17.318C33.781,18.422 32.886,19.318 31.781,19.318L11.915,19.318C8.611,19.318 5.741,21.33 4.836,25.107L4.835,25.11C3.593,30.261 3.538,33.475 4.835,38.854L4.836,38.855C5.624,42.14 7.344,44.646 10.568,44.646L13.535,44.646L13.535,40.046C13.535,34.219 18.571,29.073 24.559,29.073L38.987,29.073C41.901,29.073 44.21,26.658 44.21,23.732L44.21,9.977C44.21,7.031 41.608,4.933 38.659,4.441C36.289,4.047 33.829,3.868 31.471,3.879Z" style="fill:rgb(17,20,42);"/>
        <g transform="matrix(0.90697,0,0,0.90697,2.49965,0.863188)">
            <circle cx="23.307" cy="9.048" r="2.998" style="fill:white;stroke:rgb(17,20,42);stroke-width:2.21px;"/>
        </g>
        <g transform="matrix(-1,1.22465e-16,-1.22465e-16,-1,63.604,64.0405)">
            <path d="M31.462,1.879C33.931,1.867 36.506,2.055 38.987,2.468C42.907,3.122 46.21,6.062 46.21,9.977L46.21,23.732C46.21,27.766 43.004,31.073 38.987,31.073L24.559,31.073C19.66,31.073 15.535,35.278 15.535,40.046L15.535,46.646L10.568,46.646C6.37,46.646 3.918,43.599 2.891,39.322C1.506,33.577 1.564,30.144 2.891,24.641C4.041,19.841 7.717,17.318 11.915,17.318L31.781,17.318L31.781,15.483L17.336,15.483L17.336,9.977C17.336,5.809 18.446,3.548 24.559,2.468C26.634,2.101 28.992,1.89 31.462,1.879ZM31.471,3.879C29.123,3.89 26.88,4.089 24.907,4.438C22.487,4.865 21.002,5.395 20.177,6.362C19.417,7.253 19.336,8.456 19.336,9.977L19.336,13.483L31.781,13.483C32.886,13.483 33.781,14.378 33.781,15.483L33.781,17.318C33.781,18.422 32.886,19.318 31.781,19.318L11.915,19.318C8.611,19.318 5.741,21.33 4.836,25.107L4.835,25.11C3.593,30.261 3.538,33.475 4.835,38.854L4.836,38.855C5.624,42.14 7.344,44.646 10.568,44.646L13.535,44.646L13.535,40.046C13.535,34.219 18.571,29.073 24.559,29.073L38.987,29.073C41.901,29.073 44.21,26.658 44.21,23.732L44.21,9.977C44.21,7.031 41.608,4.933 38.659,4.441C36.289,4.047 33.829,3.868 31.471,3.879Z" style="fill:rgb(17,20,42);"/>
        </g>
        <path d="M32.133,60.161C34.481,60.151 36.724,59.951 38.697,59.603C41.117,59.176 42.602,58.646 43.427,57.679C44.187,56.787 44.268,55.585 44.268,54.064L44.268,50.558L31.823,50.558C30.718,50.558 29.823,49.662 29.823,48.558L29.823,46.722C29.823,45.619 30.718,44.722 31.823,44.722L51.689,44.722C54.993,44.722 57.863,42.71 58.768,38.933L58.769,38.93C60.011,33.78 60.066,30.565 58.769,25.186L58.768,25.185C57.98,21.9 56.26,19.394 53.036,19.394L50.069,19.394L50.069,23.994C50.069,29.821 45.033,34.968 39.045,34.968L24.617,34.968C21.703,34.968 19.394,37.383 19.394,40.309L19.394,54.064C19.394,57.01 21.996,59.108 24.945,59.6C27.315,59.993 29.775,60.173 32.133,60.161Z" style="fill:url(#_Linear2);"/>
        <g transform="matrix(0.90697,0,0,0.90697,18.7935,46.7039)">
            <circle cx="23.307" cy="9.048" r="2.998" style="fill:white;stroke:rgb(17,20,42);stroke-width:2.21px;"/>
        </g>
    </g>
    <defs>
        <linearGradient id="_Linear1" x1="0" y1="0" x2="1" y2="0" gradientUnits="userSpaceOnUse" gradientTransform="matrix(33.0397,28.7007,-28.7007,33.0397,1.87387,1.87847)"><stop offset="0" style="stop-color:rgb(90,159,212);stop-opacity:1"/><stop offset="1" style="stop-color:rgb(48,105,152);stop-opacity:1"/></linearGradient>
        <linearGradient id="_Linear2" x1="0" y1="0" x2="1" y2="0" gradientUnits="userSpaceOnUse" gradientTransform="matrix(16.8696,21.735,-21.735,16.8696,33.4197,26.3282)"><stop offset="0" style="stop-color:rgb(255,212,58);stop-opacity:1"/><stop offset="1" style="stop-color:rgb(255,232,116);stop-opacity:1"/></linearGradient>
    </defs>
</svg>
