<?xml version="1.0" encoding="UTF-8" standalone="no"?><!DOCTYPE svg PUBLIC "-//W3C//DTD SVG 1.1//EN" "http://www.w3.org/Graphics/SVG/1.1/DTD/svg11.dtd"><svg width="100%" height="100%" viewBox="0 0 267 267" version="1.1" xmlns="http://www.w3.org/2000/svg" xmlns:xlink="http://www.w3.org/1999/xlink" xml:space="preserve" xmlns:serif="http://www.serif.com/" style="fill-rule:evenodd;clip-rule:evenodd;stroke-linecap:round;stroke-miterlimit:32.2;"><g id="Layer-1" serif:id="Layer 1"><g><path d="M227.177,31.914l0,2.45c-2.958,0.398 -5.232,1.259 -6.822,2.583c-2.207,1.855 -5.696,6.911 -10.465,15.168l-19.473,32.521l0,21.725c0,4.637 0.243,7.518 0.729,8.644c0.486,1.126 1.446,2.119 2.881,2.98c1.435,0.861 3.345,1.292 5.729,1.292l5.034,-0l0,2.451l-50.404,-0l-0,-2.451l4.702,-0c2.65,-0 4.747,-0.464 6.293,-1.391c1.148,-0.618 2.053,-1.678 2.715,-3.179c0.486,-1.06 0.729,-3.842 0.729,-8.346l-0,-18.016l-21.129,-38.482c-4.195,-7.595 -7.153,-12.066 -8.875,-13.412c-1.722,-1.347 -4.019,-2.043 -6.889,-2.087l0,-2.45l43.053,-0l-0,2.45l-1.921,0c-2.605,0 -4.427,0.376 -5.464,1.126c-1.038,0.751 -1.557,1.546 -1.557,2.385c0,1.589 1.766,5.585 5.299,11.988l16.227,29.739l16.161,-27.089c4.019,-6.624 6.028,-11.017 6.028,-13.181c-0,-1.192 -0.574,-2.186 -1.722,-2.981c-1.502,-1.104 -4.261,-1.766 -8.28,-1.987l0,-2.45l27.421,-0Z" style="fill:#c00;fill-rule:nonzero;"/><path d="M165.495,88.875l-28.123,-49.84l-6.915,-0.864l-2.817,-7.246l19.901,0.123l29.398,55.484l0.282,37.192l-25.12,-0.412l0.073,-5.904l11.947,-3.722l1.374,-24.811Zm36.878,-46.555l-7.842,-5.979l-0.155,-6.705l38.138,-0.024l-1.17,6.416l-7.89,3.549l-32.33,46.314l-3.585,-6.382l14.834,-37.189Z" style="fill:#ef2929;"/><path d="M176.885,42.48c0.539,1.084 1.133,2.234 1.753,3.357l0.019,0.035l9.235,16.924l8.682,-14.553c0.01,-0.018 0.021,-0.035 0.032,-0.053c1.116,-1.84 2.161,-3.819 2.993,-5.485c-0.101,-0.008 -0.201,-0.015 -0.3,-0.02c-4.418,-0.243 -7.876,-3.896 -7.876,-8.321l0,-2.45c0,-4.603 3.731,-8.334 8.333,-8.334l27.421,0c4.603,0 8.334,3.731 8.334,8.334l-0,2.45c-0,4.174 -3.088,7.704 -7.224,8.259c-1.086,0.146 -1.996,0.235 -2.584,0.716c-1.864,1.575 -4.58,5.99 -8.596,12.944c-0.022,0.038 -0.045,0.076 -0.067,0.113l-18.289,30.544l-0,19.421c-0,1.668 0.095,3.426 0.175,4.61c0.249,0.001 0.528,-0.027 0.83,-0.027l5.034,-0c4.603,-0 8.334,3.731 8.334,8.333l-0,2.451c-0,4.602 -3.731,8.333 -8.334,8.333l-50.404,-0c-4.603,-0 -8.334,-3.731 -8.334,-8.333l0,-2.451c0,-4.602 3.731,-8.333 8.334,-8.333l4.702,-0c0.452,-0 0.863,0.025 1.223,0.002c0.078,-1.111 0.181,-2.892 0.181,-4.585l-0,-15.878l-20.094,-36.596c-2.981,-5.397 -6.404,-10.315 -6.867,-10.974c-0.446,-0.245 -1.048,-0.206 -1.727,-0.216c-4.552,-0.07 -8.205,-3.78 -8.205,-8.333l-0,-2.45c-0,-4.603 3.731,-8.334 8.333,-8.334l43.053,0c4.602,0 8.333,3.731 8.333,8.334l0,2.45c0,3.949 -2.746,7.256 -6.433,8.116Zm-15.938,68.334c0.05,-0.021 0.099,-0.046 0.146,-0.074c0.111,-0.066 0.223,-0.13 0.337,-0.191c-0.155,0.083 -0.325,0.162 -0.483,0.265Zm66.23,-78.9l-27.421,-0l0,2.45c4.019,0.221 6.778,0.883 8.28,1.987c1.148,0.795 1.722,1.789 1.722,2.981c-0,2.164 -2.009,6.557 -6.028,13.181l-16.161,27.089l-16.227,-29.739c-3.533,-6.403 -5.299,-10.399 -5.299,-11.988c0,-0.839 0.519,-1.634 1.557,-2.385c1.037,-0.75 2.859,-1.126 5.464,-1.126l1.921,0l-0,-2.45l-43.053,-0l0,2.45c2.87,0.044 5.167,0.74 6.889,2.087c1.722,1.346 4.68,5.817 8.875,13.412l21.129,38.482l-0,18.016c-0,4.504 -0.243,7.286 -0.729,8.346c-0.662,1.501 -1.567,2.561 -2.715,3.179c-1.546,0.927 -3.643,1.391 -6.293,1.391l-4.702,-0l-0,2.451l50.404,-0l0,-2.451l-5.034,-0c-2.384,-0 -4.294,-0.431 -5.729,-1.292c-1.435,-0.861 -2.395,-1.854 -2.881,-2.98c-0.486,-1.126 -0.729,-4.007 -0.729,-8.644l0,-21.725l19.473,-32.521c4.769,-8.257 8.258,-13.313 10.465,-15.168c1.59,-1.324 3.864,-2.185 6.822,-2.583l0,-2.45Z" style="fill:#280000;"/></g><path d="M149.912,178.193c4.909,4.939 4.887,12.935 -0.052,17.845c-4.939,4.91 -12.934,4.887 -17.844,-0.052l-95.175,-95.724c-4.911,-4.938 -4.888,-12.934 0.051,-17.844c4.938,-4.91 12.933,-4.887 17.844,0.051l95.176,95.724Z" style="fill:#c00;"/><path d="M155.644,172.494c8.055,8.103 8.017,21.22 -0.085,29.276c-8.102,8.055 -21.219,8.017 -29.275,-0.085l-95.175,-95.724c-8.057,-8.102 -8.018,-21.22 0.084,-29.275c8.102,-8.056 21.22,-8.018 29.275,0.084l95.176,95.724Zm-5.732,5.699l-95.176,-95.724c-4.911,-4.938 -12.906,-4.961 -17.844,-0.051c-4.939,4.91 -4.962,12.906 -0.051,17.844l95.175,95.724c4.91,4.939 12.905,4.962 17.844,0.052c4.939,-4.91 4.961,-12.906 0.052,-17.845Z" style="fill:#280000;"/><path d="M150.543,178.942c2.515,2.528 2.503,6.621 -0.026,9.135c-2.528,2.514 -6.622,2.503 -9.136,-0.026l-104.654,-105.05c5.705,-6.684 14.314,-4.661 18.641,0.216l95.175,95.725Z" style="fill:#ef2929;"/><path id="path6475" d="M127.447,222.191c-13.525,-13.233 34.769,-60.701 47.54,-49.349l18.567,67.362l-66.107,-18.013Z" style="fill:#c00;fill-rule:nonzero;"/><path d="M122.494,227.253c-4.456,-4.36 -5.685,-10.847 -3.277,-18.492c2.46,-7.81 9.043,-17.3 17.106,-25.446c9.51,-9.608 21.043,-17.205 29.474,-18.873c5.705,-1.128 10.464,0.057 13.895,3.107c1.022,0.908 1.759,2.093 2.122,3.411l18.567,67.362c0.676,2.453 -0.016,5.081 -1.813,6.882c-1.796,1.801 -4.422,2.501 -6.876,1.832l-66.106,-18.012c-1.165,-0.318 -2.229,-0.927 -3.092,-1.771Zm4.953,-5.062l66.107,18.013l-18.567,-67.362c-12.771,-11.352 -61.065,36.116 -47.54,49.349Z" style="fill:#280000;"/><path id="path6475-6" d="M129.435,219.619c-9.992,-10.605 36.595,-52.231 43.106,-44.476l16.291,60.511l-59.397,-16.035Z" style="fill:none;stroke:#ef2929;stroke-width:7.4px;"/></g></svg>