<?xml version="1.0" encoding="UTF-8" standalone="no"?>
<!DOCTYPE svg PUBLIC "-//W3C//DTD SVG 1.1//EN" "http://www.w3.org/Graphics/SVG/1.1/DTD/svg11.dtd">
<svg width="100%" height="100%" viewBox="0 0 32 32" version="1.1" xmlns="http://www.w3.org/2000/svg" xmlns:xlink="http://www.w3.org/1999/xlink" xml:space="preserve" xmlns:serif="http://www.serif.com/" style="fill-rule:evenodd;clip-rule:evenodd;">
    <g transform="matrix(0.129588,0,0,0.129588,0.611852,-0.957871)">
        <g id="Layer-1" serif:id="Layer 1">
            <g id="path5463" transform="matrix(0.799378,0,0,0.799378,-35.0685,3.92067)">
                <path d="M130.365,84.851C134.335,77.73 143.507,75.262 150.833,79.345C158.16,83.428 160.885,92.524 156.914,99.646L79.958,237.693C75.989,244.815 66.816,247.283 59.49,243.2C52.164,239.117 49.439,230.021 53.408,222.898L130.365,84.851Z" style="fill:url(#_Linear1);"/>
                <path d="M124.463,81.56C130.222,71.229 143.494,67.519 154.123,73.442C164.754,79.367 168.578,92.603 162.816,102.936L85.861,240.983C80.102,251.315 66.829,255.026 56.2,249.103C45.571,243.179 41.747,229.943 47.505,219.609L124.463,81.56ZM130.365,84.851L53.408,222.898C49.439,230.021 52.164,239.117 59.49,243.2C66.816,247.283 75.989,244.815 79.958,237.693L156.914,99.646C160.885,92.524 158.16,83.428 150.833,79.345C143.507,75.262 134.335,77.73 130.365,84.851Z" style="fill:rgb(46,52,54);"/>
            </g>
            <g id="path5467" transform="matrix(0.799378,0,0,0.799378,-35.0685,3.92067)">
                <path d="M130.991,83.892C133.023,80.245 141.856,85.525 139.823,89.171L56.203,241.046C50.464,236.523 49.957,228.392 54.046,221.945L130.991,83.892Z" style="fill:rgb(211,215,207);"/>
            </g>
            <g id="path6475" transform="matrix(0.799378,0,0,0.799378,-35.0685,3.92067)">
                <path d="M187.128,95.898C176.61,115.397 107.578,76.399 116.223,58.359L186.023,15.683L187.128,95.898Z" style="fill:rgb(49,49,49);fill-rule:nonzero;"/>
                <path d="M193.075,99.106C189.862,105.063 183.414,108.189 174.714,107.969C165.323,107.731 152.784,103.444 141.247,97.134C127.664,89.705 115.609,79.466 111.107,70.714C108.247,65.154 107.997,59.889 110.129,55.439C110.693,54.262 111.585,53.274 112.698,52.594L182.498,9.918C184.57,8.651 187.161,8.593 189.287,9.766C191.413,10.939 192.746,13.162 192.78,15.59L193.885,95.805C193.901,96.956 193.622,98.093 193.075,99.106ZM187.128,95.898L186.023,15.683L116.223,58.359C107.578,76.399 176.61,115.397 187.128,95.898Z" style="fill:rgb(46,52,54);"/>
            </g>
            <g id="path6475-6" transform="matrix(0.799378,0,0,0.799378,-35.0685,3.92067)">
                <path d="M183.591,94.493C175.949,109.874 111.302,71.793 119.604,60.367L182.43,22.468L183.591,94.493Z" style="fill:url(#_Linear2);stroke:rgb(211,215,207);stroke-width:6.76px;"/>
            </g>
            <g id="path54631" serif:id="path5463" transform="matrix(0.498852,0,0,0.498852,138.789,121.125)">
                <path d="M130.365,84.851C134.335,77.73 143.507,75.262 150.833,79.345C158.16,83.428 160.885,92.524 156.914,99.646L79.958,237.693C75.989,244.815 66.816,247.283 59.49,243.2C52.164,239.117 49.439,230.021 53.408,222.898L130.365,84.851Z" style="fill:url(#_Linear3);"/>
                <path d="M120.907,79.578C127.745,67.313 143.486,62.854 156.105,69.886C168.726,76.92 173.212,92.651 166.372,104.918L89.417,242.964C82.58,255.232 66.837,259.691 54.218,252.659C41.599,245.626 37.112,229.897 43.949,217.627L120.907,79.578ZM130.365,84.851L53.408,222.898C49.439,230.021 52.164,239.117 59.49,243.2C66.816,247.283 75.989,244.815 79.958,237.693L156.914,99.646C160.885,92.524 158.16,83.428 150.833,79.345C143.507,75.262 134.335,77.73 130.365,84.851Z" style="fill:rgb(46,52,54);"/>
            </g>
            <g id="path54671" serif:id="path5467" transform="matrix(0.498852,0,0,0.498852,138.789,121.125)">
                <path d="M130.991,83.892C133.023,80.245 141.856,85.525 139.823,89.171L56.203,241.046C50.464,236.523 49.957,228.392 54.046,221.945L130.991,83.892Z" style="fill:rgb(211,215,207);"/>
            </g>
            <g id="path64751" serif:id="path6475" transform="matrix(0.498852,0,0,0.498852,138.789,121.125)">
                <path d="M187.128,95.898C176.61,115.397 107.578,76.399 116.223,58.359L186.023,15.683L187.128,95.898Z" style="fill:rgb(49,49,49);fill-rule:nonzero;"/>
                <path d="M196.658,101.039C193.502,106.891 188.011,110.58 180.505,111.702C170.071,113.261 153.89,108.689 139.293,100.706C124.904,92.836 112.256,81.848 107.487,72.577C103.951,65.702 103.821,59.182 106.458,53.679C107.361,51.794 108.791,50.211 110.575,49.121L180.375,6.445C183.694,4.415 187.847,4.322 191.254,6.202C194.66,8.081 196.797,11.644 196.85,15.534L197.955,95.749C197.981,97.594 197.534,99.415 196.658,101.039ZM187.128,95.898L186.023,15.683L116.223,58.359C107.578,76.399 176.61,115.397 187.128,95.898Z" style="fill:rgb(46,52,54);"/>
            </g>
            <g id="path6475-61" serif:id="path6475-6" transform="matrix(0.555536,0,0,0.571089,130.093,116.306)">
                <path d="M183.591,94.493C175.949,109.874 111.302,71.793 119.604,60.367L182.43,22.468L183.591,94.493Z" style="fill:url(#_Linear4);"/>
                <path d="M183.591,94.493C175.949,109.874 111.302,71.793 119.604,60.367L182.43,22.468L183.591,94.493ZM132.709,65.031C132.914,65.246 133.121,65.454 133.324,65.647C137.769,69.885 144.249,74.381 151.107,78.231C158.135,82.176 165.566,85.466 171.69,86.852C171.94,86.909 172.209,86.96 172.488,87.005L171.754,41.477L132.709,65.031Z" style="fill:rgb(211,215,207);"/>
            </g>
            <g transform="matrix(0.894254,3.42654,-3.42654,0.894254,174.897,-11.4863)">
                <g id="layer1">
                    <g>
                        <g id="path3343">
                            <path d="M35,15L39.063,19.378L31,27L37,33L44.72,25.035L48.962,29.278L49,15L35,15Z" style="fill:url(#_Linear5);"/>
                            <path d="M35,13.475L49,13.475C49.405,13.475 49.794,13.636 50.08,13.923C50.366,14.21 50.526,14.599 50.525,15.004L50.487,29.282C50.486,29.898 50.113,30.453 49.544,30.688C48.974,30.923 48.319,30.792 47.883,30.356L44.737,27.209L38.095,34.062C37.811,34.355 37.421,34.522 37.012,34.525C36.603,34.528 36.21,34.368 35.921,34.079L29.921,28.079C29.63,27.787 29.469,27.391 29.475,26.979C29.481,26.567 29.653,26.175 29.952,25.892L36.917,19.308L33.882,16.038C33.469,15.593 33.359,14.946 33.602,14.39C33.844,13.834 34.393,13.475 35,13.475ZM35,15L39.063,19.378L31,27L37,33L44.72,25.035L48.962,29.278L49,15L35,15Z" style="fill:rgb(46,52,54);"/>
                        </g>
                        <path id="path33431" serif:id="path3343" d="M35,15L49,15L48.962,29.278L44.72,25.035L37,33L31,27L39.063,19.378L35,15ZM38.497,16.525L40.181,18.34C40.75,18.954 40.719,19.912 40.111,20.486L33.188,27.031L36.983,30.826L43.625,23.973C43.909,23.68 44.299,23.513 44.708,23.51C45.117,23.507 45.51,23.668 45.799,23.957L47.446,25.605C47.446,25.605 47.471,16.525 47.471,16.525L38.497,16.525Z" style="fill:rgb(211,215,207);"/>
                    </g>
                </g>
            </g>
        </g>
    </g>
    <defs>
        <linearGradient id="_Linear1" x1="0" y1="0" x2="1" y2="0" gradientUnits="userSpaceOnUse" gradientTransform="matrix(107.155,0,0,107.155,51.5841,161.273)"><stop offset="0" style="stop-color:rgb(57,62,53);stop-opacity:1"/><stop offset="1" style="stop-color:rgb(130,136,125);stop-opacity:1"/></linearGradient>
        <linearGradient id="_Linear2" x1="0" y1="0" x2="1" y2="0" gradientUnits="userSpaceOnUse" gradientTransform="matrix(64.4814,0,0,64.4814,119.11,60.113)"><stop offset="0" style="stop-color:rgb(57,62,53);stop-opacity:1"/><stop offset="1" style="stop-color:rgb(130,136,125);stop-opacity:1"/></linearGradient>
        <linearGradient id="_Linear3" x1="0" y1="0" x2="1" y2="0" gradientUnits="userSpaceOnUse" gradientTransform="matrix(107.155,0,0,107.155,51.5841,161.273)"><stop offset="0" style="stop-color:rgb(57,62,53);stop-opacity:1"/><stop offset="1" style="stop-color:rgb(130,136,125);stop-opacity:1"/></linearGradient>
        <linearGradient id="_Linear4" x1="0" y1="0" x2="1" y2="0" gradientUnits="userSpaceOnUse" gradientTransform="matrix(64.4814,0,0,64.4814,119.11,60.113)"><stop offset="0" style="stop-color:rgb(57,62,53);stop-opacity:1"/><stop offset="1" style="stop-color:rgb(130,136,125);stop-opacity:1"/></linearGradient>
        <linearGradient id="_Linear5" x1="0" y1="0" x2="1" y2="0" gradientUnits="userSpaceOnUse" gradientTransform="matrix(17.9332,0,0,15.3462,31.0669,23.9593)"><stop offset="0" style="stop-color:rgb(57,62,53);stop-opacity:1"/><stop offset="1" style="stop-color:rgb(130,136,125);stop-opacity:1"/></linearGradient>
    </defs>
</svg>
