<?xml version="1.0" encoding="UTF-8" standalone="no"?><!DOCTYPE svg PUBLIC "-//W3C//DTD SVG 1.1//EN" "http://www.w3.org/Graphics/SVG/1.1/DTD/svg11.dtd"><svg width="100%" height="100%" viewBox="0 0 267 267" version="1.1" xmlns="http://www.w3.org/2000/svg" xmlns:xlink="http://www.w3.org/1999/xlink" xml:space="preserve" xmlns:serif="http://www.serif.com/" style="fill-rule:evenodd;clip-rule:evenodd;stroke-linecap:round;stroke-miterlimit:32.2;"><g id="Layer-1" serif:id="Layer 1"><path d="M72.976,96.008c0.021,-7.179 5.867,-12.992 13.046,-12.971c7.18,0.021 12.992,5.866 12.971,13.046l-0.4,139.166c-0.02,7.179 -5.866,12.992 -13.046,12.971c-7.179,-0.021 -12.991,-5.866 -12.971,-13.046l0.4,-139.166Z" style="fill:#3465a4;"/><path d="M64.643,95.984c0.034,-11.779 9.624,-21.314 21.403,-21.28c11.779,0.034 21.314,9.624 21.28,21.403l-0.4,139.166c-0.033,11.779 -9.624,21.314 -21.403,21.28c-11.779,-0.034 -21.314,-9.624 -21.28,-21.403l0.4,-139.166Zm8.333,0.024l-0.4,139.166c-0.02,7.18 5.792,13.025 12.971,13.046c7.18,0.021 13.026,-5.792 13.046,-12.971l0.4,-139.166c0.021,-7.18 -5.791,-13.025 -12.971,-13.046c-7.179,-0.021 -13.025,5.792 -13.046,12.971Z" style="fill:#0b1521;"/><path d="M73.061,95.002c0.01,-3.676 3.003,-6.651 6.679,-6.641c3.676,0.011 6.652,3.004 6.641,6.68l-0.289,152.874c-9.031,0.714 -13.832,-7.037 -13.431,-13.747l0.4,-139.166Z" style="fill:#729fcf;"/><path id="path6475" d="M121.427,80.31c0.213,19.507 -69.598,18.905 -70.632,1.32l35.572,-62.643l35.06,61.323Z" style="fill:#3465a4;fill-rule:nonzero;"/><path d="M128.728,80.231c0.07,6.427 -3.763,12.052 -11.092,15.87c-7.487,3.9 -19.204,6.019 -31.02,6.079c-13.937,0.072 -27.883,-2.797 -35.245,-7.728c-4.981,-3.336 -7.587,-7.669 -7.864,-12.394c-0.083,-1.407 0.243,-2.808 0.939,-4.033l35.572,-62.643c1.295,-2.281 3.715,-3.692 6.338,-3.695c2.623,-0.004 5.047,1.4 6.349,3.677l35.06,61.322c0.618,1.081 0.949,2.301 0.963,3.545Zm-7.301,0.079l-35.06,-61.323l-35.572,62.643c1.034,17.585 70.845,18.187 70.632,-1.32Z" style="fill:#0b1521;"/><path id="path6475-6" d="M118.103,80.736c-0.447,15.016 -64.754,11.399 -63.847,0.999l32.236,-55.989l31.611,54.99Z" style="fill:none;stroke:#729fcf;stroke-width:7.63px;"/><path d="M217.157,152.261l-52.926,85.001l17.133,0c8.102,0 13.769,-0.509 17,-1.527c5.269,-1.594 9.806,-4.527 13.614,-8.799c3.807,-4.272 6.441,-9.994 7.902,-17.166l2.59,-0l-3.652,32.539l-82.478,-0l52.993,-85.133l-13.348,-0c-5.179,-0 -8.588,0.154 -10.226,0.464c-3.099,0.576 -6.01,1.716 -8.733,3.42c-2.723,1.705 -4.98,3.974 -6.773,6.807c-1.793,2.833 -3.199,6.419 -4.217,10.758l-2.457,-0l2.457,-26.364l71.121,0Z" style="fill:#3465a4;fill-rule:nonzero;"/><path d="M150.515,148.497l-3.221,34.321" style="fill:none;stroke:#73a0cf;stroke-width:8.33px;stroke-linecap:butt;stroke-linejoin:round;stroke-miterlimit:1.5;"/><path d="M214.346,208.02l9.344,0.923c0.449,12.227 -2.896,21.72 -14.214,28.131l-25.334,0.138c19.1,-4.607 30.727,-13.453 30.204,-29.192Z" style="fill:#73a0cf;"/><path d="M184.925,157.205l12.916,-0.008l-52.568,85.996l-11.807,1.566l51.459,-87.554Z" style="fill:#729fcf;"/><path d="M174.328,165.512c-3.472,0.015 -5.814,0.088 -7.02,0.316l-0.028,0.006c-2.07,0.384 -4.013,1.151 -5.832,2.29c-1.675,1.048 -3.051,2.456 -4.154,4.199c-1.363,2.155 -2.371,4.906 -3.145,8.206c-0.884,3.766 -4.244,6.429 -8.113,6.429l-2.457,0c-2.345,0 -4.581,-0.987 -6.16,-2.721c-1.579,-1.733 -2.355,-4.051 -2.138,-6.385l2.457,-26.364c0.4,-4.284 3.995,-7.56 8.298,-7.56l71.121,0c3.027,0 5.816,1.641 7.286,4.288c1.469,2.646 1.388,5.881 -0.211,8.45l-44.995,72.263l2.127,-0c6.902,-0 11.743,-0.275 14.496,-1.142c0.03,-0.01 0.061,-0.019 0.091,-0.029c3.8,-1.149 7.059,-3.285 9.805,-6.367c2.934,-3.291 4.833,-7.759 5.958,-13.285c0.791,-3.881 4.205,-6.67 8.166,-6.67l2.59,0c2.372,0 4.632,1.011 6.213,2.779c1.58,1.769 2.333,4.127 2.068,6.484l-3.652,32.539c-0.473,4.217 -4.039,7.404 -8.281,7.404l-82.478,0c-3.026,0 -5.815,-1.641 -7.285,-4.287c-1.469,-2.646 -1.389,-5.88 0.211,-8.45l45.062,-72.393Zm42.829,-13.251l-71.121,0l-2.457,26.364l2.457,-0c1.018,-4.339 2.424,-7.925 4.217,-10.758c1.793,-2.833 4.05,-5.102 6.773,-6.807c2.723,-1.704 5.634,-2.844 8.733,-3.42c1.638,-0.31 5.047,-0.464 10.226,-0.464l13.348,-0l-52.993,85.133l82.478,-0l3.652,-32.539l-2.59,-0c-1.461,7.172 -4.095,12.894 -7.902,17.166c-3.808,4.272 -8.345,7.205 -13.614,8.799c-3.231,1.018 -8.898,1.527 -17,1.527l-17.133,0l52.926,-85.001Z" style="fill:#0b1521;"/></g></svg>