<?xml version="1.0" encoding="UTF-8" standalone="no"?>
<!DOCTYPE svg PUBLIC "-//W3C//DTD SVG 1.1//EN" "http://www.w3.org/Graphics/SVG/1.1/DTD/svg11.dtd">
<svg width="100%" height="100%" viewBox="0 0 1113 1113" version="1.1" xmlns="http://www.w3.org/2000/svg" xmlns:xlink="http://www.w3.org/1999/xlink" xml:space="preserve" xmlns:serif="http://www.serif.com/" style="fill-rule:evenodd;clip-rule:evenodd;">
    <g transform="matrix(4.16667,0,0,4.16667,0,0)">
        <g transform="matrix(1,0,0,1,-139.85,21.6194)">
            <g id="Layer-1" serif:id="Layer 1">
                <g transform="matrix(0.35509,-0.198932,0.198932,0.35509,151.261,61.0554)">
                    <g transform="matrix(3.31422,1.85672,-1.4321,2.55627,-434.699,-501.309)">
                        <path d="M199.901,69.785C199.891,64.744 203.974,60.643 209.016,60.631C214.057,60.621 218.159,64.705 218.169,69.746L218.385,214.091C218.397,219.132 214.313,223.234 209.271,223.245C204.23,223.256 200.128,219.172 200.117,214.131L199.901,69.785Z" style="fill:rgb(46,52,54);"/>
                    </g>
                    <path d="M130.365,84.851C134.335,77.73 143.507,75.262 150.833,79.345C158.16,83.428 160.885,92.524 156.914,99.646L-30.523,434.899C-34.492,442.021 -43.665,444.489 -50.991,440.406C-58.317,436.323 -61.042,427.227 -57.073,420.104L130.365,84.851Z" style="fill:url(#_Linear1);"/>
                    <path d="M130.991,83.892C133.023,80.245 141.856,85.525 139.823,89.171L-52.334,438.176C-58.073,433.653 -58.58,425.522 -54.491,419.075L130.991,83.892Z" style="fill:rgb(211,215,207);"/>
                    <g transform="matrix(3.82679,2.14388,-2.14388,3.82679,-507.672,-622.158)">
                        <path d="M227.295,62.905C227.339,65.655 225.711,68.071 222.582,69.721C219.386,71.406 214.376,72.339 209.319,72.39C203.354,72.451 197.379,71.253 194.218,69.159C192.079,67.742 190.954,65.893 190.825,63.871C190.787,63.269 190.923,62.669 191.218,62.143L206.307,35.255C206.856,34.276 207.889,33.667 209.012,33.66C210.134,33.653 211.175,34.249 211.737,35.22L226.875,61.389C227.142,61.851 227.286,62.372 227.295,62.905Z" style="fill:rgb(46,52,54);"/>
                    </g>
                    <g id="path6475-6" transform="matrix(1.3846,7.68606e-17,-7.68606e-17,1.3846,-50.6799,-43.3263)">
                        <path d="M183.591,94.493C175.949,109.874 111.302,71.793 119.604,60.367L182.43,22.468L183.591,94.493Z" style="fill:url(#_Linear2);stroke:rgb(211,215,207);stroke-width:7.57px;"/>
                    </g>
                </g>
                <g transform="matrix(1.08001,0,0,1.08001,136.006,-30.0962)">
                    <path d="M77.268,25.262C75.612,25.262 74.268,23.917 74.268,22.262C74.268,20.606 75.612,19.262 77.268,19.262L188.743,19.262C190.398,19.262 191.743,20.606 191.743,22.262C191.743,23.917 190.398,25.262 188.743,25.262L77.268,25.262Z" style="fill:rgb(52,101,164);stroke:rgb(11,21,33);stroke-width:2.78px;stroke-linejoin:round;stroke-miterlimit:2;"/>
                </g>
                <g transform="matrix(1.08001,0,0,1.08001,158.421,206.921)">
                    <path d="M77.268,25.262C75.612,25.262 74.268,23.917 74.268,22.262C74.268,20.606 75.612,19.262 77.268,19.262L167.58,19.262C169.236,19.262 170.58,20.606 170.58,22.262C170.58,23.917 169.236,25.262 167.58,25.262L77.268,25.262Z" style="fill:rgb(52,101,164);stroke:rgb(11,21,33);stroke-width:2.78px;stroke-linejoin:round;stroke-miterlimit:2;"/>
                </g>
                <g id="g3894" transform="matrix(0,-1.08001,1.08001,0,279.112,86.9878)">
                    <g id="path3034" transform="matrix(0.974686,0,0,0.974686,-0.619827,0.810049)">
                        <path d="M-105.971,27L-105.971,19L-126.971,32L-105.971,45L-105.971,37L57,37L57,45L78,32L57,19L57,27L-105.971,27Z" style="fill:rgb(52,101,164);fill-rule:nonzero;"/>
                        <path d="M-102.499,23.528C-102.499,23.528 53.528,23.528 53.528,23.528L53.528,19C53.528,17.74 54.21,16.579 55.31,15.966C56.411,15.353 57.757,15.384 58.828,16.048L79.828,29.048C80.85,29.68 81.472,30.797 81.472,32C81.472,33.203 80.85,34.32 79.828,34.952L58.828,47.952C57.757,48.616 56.411,48.647 55.31,48.034C54.21,47.421 53.528,46.26 53.528,45L53.528,40.472C53.528,40.472 -102.499,40.472 -102.499,40.472L-102.499,45C-102.499,46.26 -103.181,47.421 -104.281,48.034C-105.382,48.647 -106.728,48.616 -107.799,47.952L-128.799,34.952C-129.821,34.32 -130.443,33.203 -130.443,32C-130.443,30.797 -129.821,29.68 -128.799,29.048L-107.799,16.048C-106.728,15.384 -105.382,15.353 -104.281,15.966C-103.181,16.579 -102.499,17.74 -102.499,19L-102.499,23.528ZM-105.971,27L-105.971,19L-126.971,32L-105.971,45L-105.971,37L57,37L57,45L78,32L57,19L57,27L-105.971,27Z" style="fill:rgb(11,21,33);"/>
                    </g>
                    <g id="path3034-3" transform="matrix(1.1331,-2.68782e-32,2.68782e-32,1.1331,-10.72,-4.25921)">
                        <path d="M-83.163,29L-83.163,22.6L-98.363,32L-83.163,41.4L-83.163,35L59,35L59,41.4L74.2,32L59,22.6L59,29L-83.163,29Z" style="fill:none;fill-rule:nonzero;stroke:rgb(114,159,207);stroke-width:2px;"/>
                    </g>
                </g>
            </g>
        </g>
    </g>
    <defs>
        <linearGradient id="_Linear1" x1="0" y1="0" x2="1" y2="0" gradientUnits="userSpaceOnUse" gradientTransform="matrix(107.155,0,0,107.155,51.5841,161.273)"><stop offset="0" style="stop-color:rgb(57,62,53);stop-opacity:1"/><stop offset="1" style="stop-color:rgb(130,136,125);stop-opacity:1"/></linearGradient>
        <linearGradient id="_Linear2" x1="0" y1="0" x2="1" y2="0" gradientUnits="userSpaceOnUse" gradientTransform="matrix(64.4814,0,0,64.4814,119.11,60.113)"><stop offset="0" style="stop-color:rgb(57,62,53);stop-opacity:1"/><stop offset="1" style="stop-color:rgb(130,136,125);stop-opacity:1"/></linearGradient>
    </defs>
</svg>
