<?xml version="1.0" encoding="UTF-8" standalone="no"?><!DOCTYPE svg PUBLIC "-//W3C//DTD SVG 1.1//EN" "http://www.w3.org/Graphics/SVG/1.1/DTD/svg11.dtd"><svg width="100%" height="100%" viewBox="0 0 267 267" version="1.1" xmlns="http://www.w3.org/2000/svg" xmlns:xlink="http://www.w3.org/1999/xlink" xml:space="preserve" xmlns:serif="http://www.serif.com/" style="fill-rule:evenodd;clip-rule:evenodd;stroke-linecap:round;stroke-miterlimit:32.2;"><g id="Layer-1" serif:id="Layer 1"><g><path d="M226.893,31.874l0,2.447c-2.954,0.398 -5.225,1.258 -6.813,2.58c-2.204,1.853 -5.689,6.902 -10.452,15.149l-19.449,32.48l0,21.698c0,4.631 0.243,7.509 0.728,8.633c0.486,1.125 1.445,2.117 2.878,2.977c1.433,0.86 3.341,1.29 5.722,1.29l5.027,0l0,2.448l-50.341,0l0,-2.448l4.696,0c2.647,0 4.741,-0.463 6.286,-1.389c1.146,-0.617 2.05,-1.676 2.711,-3.175c0.486,-1.059 0.728,-3.837 0.728,-8.336l0,-17.993l-21.102,-38.434c-4.19,-7.586 -7.144,-12.051 -8.864,-13.396c-1.72,-1.345 -4.014,-2.04 -6.881,-2.084l0,-2.447l43,0l-0,2.447l-1.919,0c-2.602,0 -4.422,0.376 -5.457,1.125c-1.037,0.75 -1.555,1.544 -1.555,2.382c-0,1.587 1.764,5.578 5.292,11.973l16.207,29.702l16.141,-27.056c4.014,-6.615 6.02,-11.003 6.02,-13.164c0,-1.191 -0.573,-2.183 -1.72,-2.977c-1.5,-1.103 -4.255,-1.764 -8.269,-1.985l-0,-2.447l27.386,0Z" style="fill:#c00;fill-rule:nonzero;"/><path d="M165.288,88.764l-28.088,-49.778l-6.906,-0.863l-2.813,-7.237l19.876,0.123l29.361,55.415l0.282,37.146l-25.089,-0.412l0.073,-5.897l11.932,-3.717l1.372,-24.78Zm36.832,-46.497l-7.832,-5.971l-0.155,-6.697l38.091,-0.024l-1.169,6.408l-7.88,3.545l-32.29,46.256l-3.58,-6.374l14.815,-37.143Z" style="fill:#ef2929;"/><path d="M176.664,42.427c0.538,1.083 1.132,2.231 1.751,3.353l0.019,0.035l9.223,16.903l8.672,-14.535c0.01,-0.018 0.021,-0.035 0.032,-0.053c1.114,-1.838 2.158,-3.814 2.989,-5.478c-0.101,-0.008 -0.201,-0.015 -0.3,-0.02c-4.412,-0.243 -7.866,-3.891 -7.866,-8.311l0,-2.447c0,-4.597 3.726,-8.323 8.323,-8.323l27.386,-0c4.598,-0 8.324,3.726 8.324,8.323l-0,2.447c-0,4.169 -3.084,7.694 -7.215,8.249c-1.085,0.146 -1.994,0.234 -2.581,0.715c-1.861,1.573 -4.574,5.982 -8.585,12.928c-0.022,0.038 -0.045,0.076 -0.067,0.113l-18.266,30.505l-0,19.397c-0,1.666 0.095,3.422 0.175,4.604c0.248,0.001 0.527,-0.027 0.829,-0.027l5.027,0c4.598,0 8.324,3.727 8.324,8.323l-0,2.448c-0,4.596 -3.726,8.323 -8.324,8.323l-50.341,-0c-4.597,-0 -8.323,-3.727 -8.323,-8.323l-0,-2.448c-0,-4.596 3.726,-8.323 8.323,-8.323l4.696,0c0.452,0 0.862,0.025 1.222,0.002c0.078,-1.109 0.181,-2.888 0.181,-4.579l-0,-15.858l-20.069,-36.55c-2.978,-5.391 -6.396,-10.302 -6.859,-10.961c-0.445,-0.244 -1.046,-0.205 -1.725,-0.215c-4.546,-0.07 -8.194,-3.776 -8.194,-8.323l-0,-2.447c-0,-4.597 3.726,-8.323 8.322,-8.323l43,-0c4.596,-0 8.322,3.726 8.322,8.323l0,2.447c0,3.944 -2.742,7.247 -6.425,8.106Zm-15.918,68.249c0.05,-0.021 0.099,-0.046 0.146,-0.074c0.111,-0.066 0.223,-0.13 0.336,-0.191c-0.154,0.083 -0.324,0.162 -0.482,0.265Zm66.147,-78.802l-27.386,0l-0,2.447c4.014,0.221 6.769,0.882 8.269,1.985c1.147,0.794 1.72,1.786 1.72,2.977c0,2.161 -2.006,6.549 -6.02,13.164l-16.141,27.056l-16.207,-29.702c-3.528,-6.395 -5.292,-10.386 -5.292,-11.973c-0,-0.838 0.518,-1.632 1.555,-2.382c1.035,-0.749 2.855,-1.125 5.457,-1.125l1.919,0l-0,-2.447l-43,0l0,2.447c2.867,0.044 5.161,0.739 6.881,2.084c1.72,1.345 4.674,5.81 8.864,13.396l21.102,38.434l0,17.993c0,4.499 -0.242,7.277 -0.728,8.336c-0.661,1.499 -1.565,2.558 -2.711,3.175c-1.545,0.926 -3.639,1.389 -6.286,1.389l-4.696,0l0,2.448l50.341,0l0,-2.448l-5.027,0c-2.381,0 -4.289,-0.43 -5.722,-1.29c-1.433,-0.86 -2.392,-1.852 -2.878,-2.977c-0.485,-1.124 -0.728,-4.002 -0.728,-8.633l0,-21.698l19.449,-32.48c4.763,-8.247 8.248,-13.296 10.452,-15.149c1.588,-1.322 3.859,-2.182 6.813,-2.58l0,-2.447Z" style="fill:#280000;"/></g><path d="M149.725,177.971c4.903,4.932 4.881,12.918 -0.052,17.822c-4.933,4.904 -12.918,4.881 -17.822,-0.052l-95.056,-95.604c-4.905,-4.932 -4.882,-12.918 0.051,-17.822c4.932,-4.904 12.917,-4.881 17.822,0.051l95.057,95.605Z" style="fill:#c00;"/><path d="M155.45,172.279c8.045,8.093 8.007,21.193 -0.085,29.239c-8.092,8.045 -21.193,8.007 -29.239,-0.085l-95.056,-95.604c-8.047,-8.092 -8.008,-21.194 0.084,-29.239c8.092,-8.046 21.194,-8.008 29.239,0.084l95.057,95.605Zm-5.725,5.692l-95.057,-95.605c-4.905,-4.932 -12.89,-4.955 -17.822,-0.051c-4.933,4.904 -4.956,12.89 -0.051,17.822l95.056,95.604c4.904,4.933 12.889,4.956 17.822,0.052c4.933,-4.904 4.955,-12.89 0.052,-17.822Z" style="fill:#280000;"/><path d="M150.355,178.719c2.512,2.524 2.5,6.612 -0.026,9.123c-2.525,2.511 -6.614,2.5 -9.125,-0.026l-104.523,-104.919c5.698,-6.675 14.296,-4.655 18.618,0.216l95.056,95.606Z" style="fill:#ef2929;"/><path id="path6475" d="M127.288,221.914c-13.508,-13.217 34.725,-60.626 47.481,-49.288l18.543,67.278l-66.024,-17.99Z" style="fill:#c00;fill-rule:nonzero;"/><path d="M122.341,226.969c-4.45,-4.354 -5.678,-10.833 -3.273,-18.469c2.457,-7.8 9.032,-17.278 17.085,-25.414c9.498,-9.596 21.017,-17.183 29.437,-18.849c5.698,-1.127 10.451,0.057 13.878,3.103c1.02,0.907 1.756,2.09 2.119,3.407l18.544,67.277c0.675,2.45 -0.016,5.075 -1.811,6.874c-1.794,1.799 -4.416,2.498 -6.867,1.83l-66.024,-17.99c-1.163,-0.318 -2.226,-0.926 -3.088,-1.769Zm4.947,-5.055l66.024,17.99l-18.543,-67.278c-12.756,-11.338 -60.989,36.071 -47.481,49.288Z" style="fill:#280000;"/><path id="path6475-6" d="M129.273,219.345c-9.979,-10.592 36.55,-52.166 43.053,-44.421l16.27,60.436l-59.323,-16.015Z" style="fill:none;stroke:#ef2929;stroke-width:7.39px;"/></g></svg>