<?xml version="1.0" encoding="UTF-8" standalone="no"?><!DOCTYPE svg PUBLIC "-//W3C//DTD SVG 1.1//EN" "http://www.w3.org/Graphics/SVG/1.1/DTD/svg11.dtd"><svg width="100%" height="100%" viewBox="0 0 267 267" version="1.1" xmlns="http://www.w3.org/2000/svg" xmlns:xlink="http://www.w3.org/1999/xlink" xml:space="preserve" xmlns:serif="http://www.serif.com/" style="fill-rule:evenodd;clip-rule:evenodd;"><path d="M142.051,120.31l-17.577,-15.029l-18.311,19.444l27.121,29.221l21.465,1.695l-4.165,-41.04l-8.533,5.709Z" style="fill:#4e9a06;"/><g id="Layer-1" serif:id="Layer 1"><path id="path4087" d="M122.188,144.527l11.036,-2.201l-21.13,-20.876" style="fill:none;fill-rule:nonzero;stroke:#8ae234;stroke-width:7.36px;"/><path id="path4089" d="M118.049,144.321l34.303,2.313" style="fill:none;fill-rule:nonzero;stroke:#8ae234;stroke-width:7.36px;"/><path id="rect3165-1" d="M111.903,150.713l43.059,3.54l-3.288,-43.079l-9.942,9.885l-15.697,-15.79l-19.886,19.77l15.697,15.789l-9.943,9.885Z" style="fill:none;fill-rule:nonzero;stroke:#172a04;stroke-width:8.32px;stroke-linecap:round;stroke-linejoin:round;"/><g><path id="path3009" d="M200.832,194.072l49.938,-16.646l-0,66.584l-49.938,16.646l-0,-66.584Z" style="fill:#4e9a06;fill-rule:nonzero;"/><path id="path4167" d="M200.832,252.333l58.26,-24.969" style="fill:none;fill-rule:nonzero;stroke:#73d216;stroke-width:8.32px;"/><path id="path3009-6" d="M142.572,164.942l58.26,29.13l-0,66.584l-58.26,-33.292l-0,-62.422Z" style="fill:#73d216;fill-rule:nonzero;"/><path id="path4169" d="M209.155,194.072l-0,58.261" style="fill:none;fill-rule:nonzero;stroke:#73d216;stroke-width:8.32px;"/><path id="path3029" d="M259.092,169.104l-58.26,-24.969l-58.26,24.969l58.26,24.968l58.26,-24.968Z" style="fill:#8ae234;fill-rule:nonzero;stroke:#172a04;stroke-width:8.32px;stroke-linecap:round;stroke-linejoin:round;"/><path id="path4171" d="M250.77,177.426l-0,58.261" style="fill:none;fill-rule:nonzero;stroke:#73d216;stroke-width:8.32px;"/><path id="path5345" d="M257.492,169.104l-114.92,-0" style="fill:none;fill-rule:nonzero;stroke:#172a04;stroke-width:8.32px;stroke-linecap:round;stroke-linejoin:round;"/><path id="path4173" d="M259.092,177.426l-58.26,24.969" style="fill:none;fill-rule:nonzero;stroke:#73d216;stroke-width:8.32px;"/><path id="path5347-7" d="M259.092,169.104l-58.26,91.552" style="fill:none;fill-rule:nonzero;stroke:#172a04;stroke-width:8.32px;stroke-linecap:round;stroke-linejoin:round;"/><path id="path4193" d="M200.832,252.333l-56.141,-34.077" style="fill:none;fill-rule:nonzero;stroke:#8ae234;stroke-width:8.32px;"/><path id="path4195" d="M150.894,223.203l0,-45.777" style="fill:none;fill-rule:nonzero;stroke:#8ae234;stroke-width:8.32px;"/><path id="path4197" d="M142.572,177.426l58.26,24.969" style="fill:none;fill-rule:nonzero;stroke:#8ae234;stroke-width:8.32px;"/><path id="path41971" serif:id="path4197" d="M144.626,216.567l45.35,-25.819" style="fill:none;fill-rule:nonzero;stroke:#8ae234;stroke-width:8.32px;"/><path id="path41972" serif:id="path4197" d="M156.716,228.658l45.35,-25.82" style="fill:none;fill-rule:nonzero;stroke:#8ae234;stroke-width:8.32px;"/><path id="path41973" serif:id="path4197" d="M201.434,247.097l43.431,-71.244" style="fill:none;fill-rule:nonzero;stroke:#73d216;stroke-width:8.32px;"/><path id="path41974" serif:id="path4197" d="M220.812,244.834l38.284,-61.263" style="fill:none;fill-rule:nonzero;stroke:#73d216;stroke-width:8.32px;"/><path id="path3009-9" d="M200.832,194.072l58.26,-24.968l0,66.583l-58.26,24.969l-0,-66.584Z" style="fill:none;fill-rule:nonzero;stroke:#172a04;stroke-width:8.32px;stroke-linejoin:round;"/><path id="path4199" d="M192.509,252.333l0,-58.261" style="fill:none;fill-rule:nonzero;stroke:#8ae234;stroke-width:8.32px;"/><path id="path3009-6-4" d="M142.572,169.104l58.26,24.968l-0,66.584l-58.26,-33.292l-0,-58.26Z" style="fill:none;fill-rule:nonzero;stroke:#172a04;stroke-width:8.32px;stroke-linejoin:round;"/><path id="path5347" d="M200.832,194.072l-58.26,33.292" style="fill:none;fill-rule:nonzero;stroke:#172a04;stroke-width:8.32px;stroke-linecap:round;stroke-linejoin:round;"/></g><g><path id="path30091" serif:id="path3009" d="M66.385,54.638l49.938,-16.645l-0,66.582l-49.938,16.646l0,-66.583Z" style="fill:#4e9a06;fill-rule:nonzero;"/><path id="path41671" serif:id="path4167" d="M66.385,112.899l58.26,-24.969" style="fill:none;fill-rule:nonzero;stroke:#73d216;stroke-width:8.32px;"/><path id="path3009-61" serif:id="path3009-6" d="M8.124,25.508l58.261,29.13l0,66.583l-58.261,-33.291l-0,-62.422Z" style="fill:#73d216;fill-rule:nonzero;"/><path id="path41691" serif:id="path4169" d="M74.708,54.638l-0,58.261" style="fill:none;fill-rule:nonzero;stroke:#73d216;stroke-width:8.32px;"/><path id="path30291" serif:id="path3029" d="M124.645,29.669l-58.26,-24.969l-58.261,24.969l58.261,24.969l58.26,-24.969Z" style="fill:#8ae234;fill-rule:nonzero;stroke:#172a04;stroke-width:8.32px;stroke-linecap:round;stroke-linejoin:round;"/><path id="path41711" serif:id="path4171" d="M116.323,37.993l-0,58.26" style="fill:none;fill-rule:nonzero;stroke:#73d216;stroke-width:8.32px;"/><path id="path41731" serif:id="path4173" d="M124.645,37.993l-58.26,24.968" style="fill:none;fill-rule:nonzero;stroke:#73d216;stroke-width:8.32px;"/><path id="path3009-91" serif:id="path3009-9" d="M66.385,54.638l58.26,-24.969l0,66.584l-58.26,24.968l0,-66.583Z" style="fill:none;fill-rule:nonzero;stroke:#172a04;stroke-width:8.32px;stroke-linejoin:round;"/><path id="path41931" serif:id="path4193" d="M66.031,111.574l-55.858,-32.611" style="fill:none;fill-rule:nonzero;stroke:#8ae234;stroke-width:8.32px;"/><path id="path41951" serif:id="path4195" d="M16.447,83.768l0,-45.775" style="fill:none;fill-rule:nonzero;stroke:#8ae234;stroke-width:8.32px;"/><path id="path41975" serif:id="path4197" d="M8.124,37.993l58.261,24.968" style="fill:none;fill-rule:nonzero;stroke:#8ae234;stroke-width:8.32px;"/><path id="path41991" serif:id="path4199" d="M58.061,112.899l0,-58.261" style="fill:none;fill-rule:nonzero;stroke:#8ae234;stroke-width:8.32px;"/><path id="path3009-6-41" serif:id="path3009-6-4" d="M8.124,29.669l58.261,24.969l0,66.583l-58.261,-33.291l-0,-58.261Z" style="fill:none;fill-rule:nonzero;stroke:#172a04;stroke-width:8.32px;stroke-linejoin:round;"/></g></g></svg>