<?xml version="1.0" encoding="UTF-8" standalone="no"?>
<!DOCTYPE svg PUBLIC "-//W3C//DTD SVG 1.1//EN" "http://www.w3.org/Graphics/SVG/1.1/DTD/svg11.dtd">
<svg width="100%" height="100%" viewBox="0 0 267 267" version="1.1" xmlns="http://www.w3.org/2000/svg" xmlns:xlink="http://www.w3.org/1999/xlink" xml:space="preserve" xmlns:serif="http://www.serif.com/" style="fill-rule:evenodd;clip-rule:evenodd;stroke-linejoin:round;">
    <g transform="matrix(4.16667,0,0,4.16667,0,0)">
        <g id="layer1">
            <g id="g3518" transform="matrix(1.06149,0,0,1,-612.969,-69.1946)">
                <path id="rect3446" d="M580.286,72.195L580.286,86.195L585.938,86.195L585.938,78.195L587.822,78.195L587.822,72.195L580.286,72.195ZM591.591,72.195L591.591,78.195L599.127,78.195L599.127,72.195L591.591,72.195ZM602.896,72.195L602.896,78.195L610.432,78.195L610.432,72.195L602.896,72.195ZM614.2,72.195L614.2,78.195L621.737,78.195L621.737,72.195L614.2,72.195ZM625.505,72.195L625.505,78.195L629.273,78.195L629.273,82.195L634.926,82.195L634.926,72.195L625.505,72.195ZM629.273,86.195L629.273,94.195L634.926,94.195L634.926,86.195L629.273,86.195ZM580.286,90.195L580.286,98.195L585.938,98.195L585.938,90.195L580.286,90.195ZM629.273,98.195L629.273,106.195L634.926,106.195L634.926,98.195L629.273,98.195ZM629.273,110.195L629.273,118.195L634.926,118.195L634.926,110.195L629.273,110.195ZM629.273,122.195L629.273,124.195L625.505,124.195L625.505,130.195L634.926,130.195L634.926,122.195L629.273,122.195ZM610.432,124.195L610.432,130.195L621.737,130.195L621.737,124.195L610.432,124.195Z" style="fill:url(#_Linear1);fill-rule:nonzero;stroke:rgb(11,21,33);stroke-width:1.94px;"/>
                <rect id="path3018" x="583.112" y="105.195" width="20.726" height="22" style="fill:none;fill-rule:nonzero;stroke:rgb(11,21,33);stroke-width:7.76px;stroke-linecap:round;"/>
                <rect id="path3018-1" x="583.112" y="105.195" width="20.726" height="22" style="fill:none;fill-rule:nonzero;stroke:url(#_Linear2);stroke-width:3.88px;stroke-linecap:round;"/>
                <path id="path3018-1-7" d="M586.88,126.195L602.896,126.195L602.896,109.195M604.78,104.195L582.17,104.195L582.17,128.195" style="fill:none;fill-rule:nonzero;stroke:rgb(114,159,207);stroke-width:1.94px;stroke-linecap:round;"/>
                <g id="path3832" transform="matrix(0.942069,0,0,1,577.46,69.1946)">
                    <path d="M36,57L46,57" style="fill:none;fill-rule:nonzero;stroke:rgb(114,159,207);stroke-width:2px;stroke-linejoin:miter;"/>
                </g>
                <g id="path3834" transform="matrix(0.942069,0,0,1,577.46,69.1946)">
                    <path d="M52,57L57,57L57,55L60,55" style="fill:none;fill-rule:nonzero;stroke:rgb(114,159,207);stroke-width:2px;"/>
                </g>
                <g id="path3836" transform="matrix(0.942069,0,0,1,577.46,69.1946)">
                    <path d="M57,48L57,42" style="fill:none;fill-rule:nonzero;stroke:rgb(114,159,207);stroke-width:2px;stroke-linejoin:miter;"/>
                </g>
                <g id="path3838" transform="matrix(0.942069,0,0,1,577.46,69.1946)">
                    <path d="M57,36L57,30" style="fill:none;fill-rule:nonzero;stroke:rgb(114,159,207);stroke-width:2px;stroke-linejoin:miter;"/>
                </g>
                <g id="path3840" transform="matrix(0.942069,0,0,1,577.46,69.1946)">
                    <path d="M57,24L57,18" style="fill:none;fill-rule:nonzero;stroke:rgb(114,159,207);stroke-width:2px;stroke-linejoin:miter;"/>
                </g>
                <g id="path3842" transform="matrix(0.942069,0,0,1,577.46,69.1946)">
                    <path d="M53,8L53,5L60,5" style="fill:none;fill-rule:nonzero;stroke:rgb(114,159,207);stroke-width:2px;stroke-linejoin:miter;"/>
                </g>
                <g id="path3844" transform="matrix(0.942069,0,0,1,577.46,69.1946)">
                    <path d="M46,5L40,5" style="fill:none;fill-rule:nonzero;stroke:rgb(114,159,207);stroke-width:2px;stroke-linejoin:miter;"/>
                </g>
                <g id="path3846" transform="matrix(0.942069,0,0,1,577.46,69.1946)">
                    <path d="M34,5L28,5" style="fill:none;fill-rule:nonzero;stroke:rgb(114,159,207);stroke-width:2px;stroke-linejoin:miter;"/>
                </g>
                <g id="path3848" transform="matrix(0.942069,0,0,1,577.46,69.1946)">
                    <path d="M22,5L16,5" style="fill:none;fill-rule:nonzero;stroke:rgb(114,159,207);stroke-width:2px;stroke-linejoin:miter;"/>
                </g>
                <g id="path3850" transform="matrix(0.942069,0,0,1,577.46,69.1946)">
                    <path d="M10,5L5,5L5,16" style="fill:none;fill-rule:nonzero;stroke:rgb(114,159,207);stroke-width:2px;stroke-linejoin:miter;"/>
                </g>
                <g id="path3852" transform="matrix(0.942069,0,0,1,577.46,69.1946)">
                    <path d="M5,22L5,28" style="fill:none;fill-rule:nonzero;stroke:rgb(114,159,207);stroke-width:2px;stroke-linejoin:miter;"/>
                </g>
                <g id="path3854" transform="matrix(0.942069,0,0,1,577.46,69.1946)">
                    <path d="M57,12L57,9" style="fill:none;fill-rule:nonzero;stroke:rgb(114,159,207);stroke-width:2px;stroke-linejoin:miter;"/>
                </g>
            </g>
            <path id="path3343" d="M35,15L39.063,19.378L31,27L37,33L44.72,25.035L48.962,29.278L49,15L35,15Z" style="fill:url(#_Linear3);stroke:rgb(11,21,33);stroke-width:2px;"/>
            <path id="path3343-2" d="M39.55,17L41.875,19.378L33.888,27.032L36.968,30.145L44.72,22.207L46.941,24.447L47,17L39.55,17Z" style="fill:none;fill-rule:nonzero;stroke:rgb(114,159,207);stroke-width:2px;stroke-linejoin:miter;"/>
        </g>
    </g>
    <defs>
        <linearGradient id="_Linear1" x1="0" y1="0" x2="1" y2="0.0282659" gradientUnits="userSpaceOnUse" gradientTransform="matrix(-17.8993,-67,67,-17.8993,613.258,135.195)"><stop offset="0" style="stop-color:rgb(52,101,164);stop-opacity:1"/><stop offset="1" style="stop-color:rgb(114,159,207);stop-opacity:1"/></linearGradient>
        <linearGradient id="_Linear2" x1="0" y1="0" x2="1" y2="0.0313848" gradientUnits="userSpaceOnUse" gradientTransform="matrix(7.53656,25,-25,7.53656,590.649,104.195)"><stop offset="0" style="stop-color:rgb(114,159,207);stop-opacity:1"/><stop offset="1" style="stop-color:rgb(32,74,135);stop-opacity:1"/></linearGradient>
        <linearGradient id="_Linear3" x1="0" y1="0" x2="1" y2="0" gradientUnits="userSpaceOnUse" gradientTransform="matrix(6,15,-15,6,37,16)"><stop offset="0" style="stop-color:rgb(114,159,207);stop-opacity:1"/><stop offset="1" style="stop-color:rgb(32,74,135);stop-opacity:1"/></linearGradient>
    </defs>
</svg>
